<svg id="Слой_1" data-name="Слой 1" xmlns="http://www.w3.org/2000/svg" viewBox="0 0 138 138"><defs><style>.cls-1{fill:#fff;}</style></defs><path class="cls-1" d="M123.12,8.56a5.22,5.22,0,0,0-3.87-1.73H18.75a5.2,5.2,0,0,0-5.16,5.76L25,115.46a5.2,5.2,0,0,0,3.73,4.42L67.57,131a5.36,5.36,0,0,0,1.43.2,5.29,5.29,0,0,0,1.42-.2l38.82-11.09a5.2,5.2,0,0,0,3.73-4.42L124.4,12.59A5.17,5.17,0,0,0,123.12,8.56ZM97.63,59.11l-2.32,37.8-26.14,8.55L43,96.91,42,78.83H55.27l.33,8.22,13.57,4.61,13.57-4.61,1-14.79H54.61L54,59.11H84.39l1-13.15H39.71l-1-13.15H99.28Z"/></svg>