<svg id="Слой_1" data-name="Слой 1" xmlns="http://www.w3.org/2000/svg" viewBox="0 0 138 138"><defs><style>.cls-1{fill:#fff;}</style></defs><path class="cls-1" d="M58.43,97.77a9.79,9.79,0,0,0-6.63,2.59A34.25,34.25,0,0,1,100,52.06a9.72,9.72,0,0,0-1.47,5.14,9.85,9.85,0,1,0,4-7.93,38.14,38.14,0,0,0-39.22-6.12l14.16-14A9.72,9.72,0,0,0,82,30.18a9.83,9.83,0,1,0-9.83-9.83,9.75,9.75,0,0,0,2.39,6.4l-49,48.52a9.9,9.9,0,1,0,2.53,2.85L43,63.35a38.11,38.11,0,0,0,6.52,40.16,9.82,9.82,0,1,0,8.94-5.74ZM82,14.32a6,6,0,1,1-6,6A6,6,0,0,1,82,14.32ZM19.61,89.12a6,6,0,1,1,6-6A6,6,0,0,1,19.61,89.12Z"/><path class="cls-1" d="M127.54,103.38l-4.69-4.68a4.32,4.32,0,0,0-6.08,0l-2.15,2.15-2-16.54a1.68,1.68,0,0,0-1.12-1.38L72.38,69.54a1.66,1.66,0,0,0-2.1,2.1L83.67,110.8A1.64,1.64,0,0,0,85,111.89l16.55,2L99.44,116a4.34,4.34,0,0,0,0,6.1l4.69,4.67a2.28,2.28,0,0,0,3.27,0l20.14-20.13A2.31,2.31,0,0,0,127.54,103.38Zm-21.78,20.38-4-4a1,1,0,0,1,0-1.42l17.33-17.31a1,1,0,0,1,1.41,0l4,4Z"/></svg>