<svg id="Слой_1" data-name="Слой 1" xmlns="http://www.w3.org/2000/svg" viewBox="0 0 138 138"><defs><style>.cls-1{fill:#fff;}</style></defs><path class="cls-1" d="M48.56,130.33A20.44,20.44,0,0,0,69,109.89V89.44H48.56a20.45,20.45,0,0,0,0,40.89Z"/><path class="cls-1" d="M28.11,69A20.45,20.45,0,0,1,48.56,48.56H69V89.44H48.56A20.45,20.45,0,0,1,28.11,69Z"/><path class="cls-1" d="M28.11,28.11A20.45,20.45,0,0,1,48.54,7.67H69V48.56H48.56A20.46,20.46,0,0,1,28.11,28.11Z"/><path class="cls-1" d="M69,7.67H89.44a20.45,20.45,0,0,1,0,40.89H69Z"/><path class="cls-1" d="M109.89,69A20.45,20.45,0,1,1,89.45,48.56,20.45,20.45,0,0,1,109.89,69Z"/></svg>