<svg id="Слой_1" data-name="Слой 1" xmlns="http://www.w3.org/2000/svg" viewBox="0 0 138 138"><defs><style>.cls-1{fill:#fff;}</style></defs><path class="cls-1" d="M69,8.17A61.79,61.79,0,0,0,54.63,130.06c-1.4-.34-2.8-.71-4.17-1.14V114.76a18.92,18.92,0,0,1-5.4.77c-8.65,0-12.24-7.71-13.14-11.58a12,12,0,0,0-3.49-6c-1.82-1.62-2.67-1.63-2.69-2.18,0-1.17,1.57-1.12,2.32-1.12,3.86,0,6.79,4.11,8.15,6.23,3.37,5.25,7,6.13,8.85,6.13a13.71,13.71,0,0,0,5.69-1,18.34,18.34,0,0,1,5.89-11.35C42.15,91.78,31.92,83.47,31.92,70a27.6,27.6,0,0,1,7.45-18.52,24.87,24.87,0,0,1-1.27-8.51,27.92,27.92,0,0,1,1.55-10s8.81.06,17.12,7.93a43.61,43.61,0,0,1,24.46,0c8.31-7.87,17.12-7.93,17.12-7.93a27.7,27.7,0,0,1,1.55,10,29.63,29.63,0,0,1-1,8.78A27.52,27.52,0,0,1,106.08,70c0,13.51-10.23,21.82-24.72,24.72a18.31,18.31,0,0,1,6.18,13.9v20.34c-1.37.43-2.76.8-4.17,1.14A61.79,61.79,0,0,0,69,8.17Z"/></svg>