<svg id="Слой_1" data-name="Слой 1" xmlns="http://www.w3.org/2000/svg" viewBox="0 0 138 138"><defs><style>.cls-1{fill:#fff;}</style></defs><path class="cls-1" d="M62.68,19.69A29.75,29.75,0,1,0,92.43,49.44,29.75,29.75,0,0,0,62.68,19.69Zm.06,52.79A22.91,22.91,0,1,1,85.65,49.57,22.91,22.91,0,0,1,62.74,72.48Z"/><path class="cls-1" d="M60.55,14.51a44.78,44.78,0,1,0,44.78,44.78A44.78,44.78,0,0,0,60.55,14.51ZM60.63,94A34.49,34.49,0,1,1,95.12,59.49,34.48,34.48,0,0,1,60.63,94Z"/><path class="cls-1" d="M69,10.83A58.17,58.17,0,1,0,127.17,69,58.17,58.17,0,0,0,69,10.83Zm.11,103.22a44.79,44.79,0,1,1,44.8-44.79A44.79,44.79,0,0,1,69.11,114.05Z"/></svg>