<svg id="Слой_1" data-name="Слой 1" xmlns="http://www.w3.org/2000/svg" viewBox="0 0 138 138"><defs><style>.cls-1{fill:#fff;}</style></defs><path class="cls-1" d="M123.28,8.29a2.64,2.64,0,0,0-2-.87H16.7a2.64,2.64,0,0,0-2,.87A2.61,2.61,0,0,0,14,10.34L23.45,115.9a2.69,2.69,0,0,0,1.94,2.34l42.87,12.24a2.52,2.52,0,0,0,.73.1,2.57,2.57,0,0,0,.73-.1l42.9-12.24a2.7,2.7,0,0,0,1.94-2.34L124,10.34A2.61,2.61,0,0,0,123.28,8.29ZM100.72,44.68H50.35l1.2,13.63h48l-3.6,40.28L69,106.73l-.26-.09L42.1,98.58,40.65,82.17h13l.56,6.37,14.89,3.11,14.61-3.11L85.31,71.3H39.67L36.13,31.66h65.75Z"/></svg>