<svg id="Слой_1" data-name="Слой 1" xmlns="http://www.w3.org/2000/svg" viewBox="0 0 138 138"><defs><style>.cls-1{fill:#fff;}</style></defs><path class="cls-1" d="M69.05,97.12H35.68L28.86,118.2a1.56,1.56,0,0,1-1.7,1.25H10.3c-1,0-1.26-.53-1-1.61L38.19,34.69c.27-.9.54-1.88.9-3a31.22,31.22,0,0,0,.54-5.83.89.89,0,0,1,.71-1H63.58c.71,0,1.07.27,1.16.72L97.48,118c.27,1,0,1.43-.9,1.43H77.84a1.35,1.35,0,0,1-1.44-1ZM40.88,78.91H63.66c-.53-1.88-1.25-4.12-2.06-6.46s-1.61-5-2.42-7.71-1.7-5.47-2.6-8.25-1.71-5.38-2.42-8-1.35-4.84-2-7H52a107.37,107.37,0,0,1-3,11.57c-1.34,4.3-2.69,8.79-4.12,13.27C43.57,70.93,42.23,75.14,40.88,78.91Zm76.6-38.3a11.1,11.1,0,0,1-8-3.14,11.66,11.66,0,0,1-3-8.25,10.55,10.55,0,0,1,3.23-8,11.44,11.44,0,0,1,8-3.14,10.7,10.7,0,0,1,8.16,3.14,11.28,11.28,0,0,1,3,8,11.31,11.31,0,0,1-3.14,8.25,10.55,10.55,0,0,1-8.16,3.14Zm-10,77.86V49.4c0-.9.36-1.25,1.16-1.25h17.76c.81,0,1.17.44,1.17,1.25v69.07c0,1-.36,1.43-1.17,1.43H108.78A1.25,1.25,0,0,1,107.44,118.47Z"/></svg>