<svg id="Слой_1" data-name="Слой 1" xmlns="http://www.w3.org/2000/svg" viewBox="0 0 138 138"><defs><style>.cls-1{fill:#fff;}</style></defs><path class="cls-1" d="M123.8,7.71a2.7,2.7,0,0,0-2-.88H16.19A2.71,2.71,0,0,0,13.5,9.78L23,116.35A2.71,2.71,0,0,0,25,118.71l43.27,12.36a3.14,3.14,0,0,0,.74.1,3.07,3.07,0,0,0,.74-.1L113,118.71a2.72,2.72,0,0,0,1.95-2.36L124.5,9.78A2.71,2.71,0,0,0,123.8,7.71ZM33.86,79.82l18.92,5.25V31.16H63.59v70.28L33.86,93.19Zm70.42-18.93L101.44,94l-27,7.44V89l18.24-5,.68-10.14L74.41,77.11V31.16h32.43L105.91,42H85.22V63.59Z"/></svg>