<svg id="Слой_1" data-name="Слой 1" xmlns="http://www.w3.org/2000/svg" viewBox="0 0 138 138"><defs><style>.cls-1{fill:none;}.cls-2{fill:#fff;}</style></defs><path class="cls-1" d="M41.86,103.79c-.77-1.31-1.45-2.43-1.81-3-1.43-2.23-3.91-4.72-5.1-4.72a.36.36,0,0,0-.19,0,6.39,6.39,0,0,0-1.68,2.51c-.71,1.47-1.51,3.13-3,4a15.4,15.4,0,0,1-4.4,1.38c-1.16.25-3.86.84-4,1.39a5.7,5.7,0,0,0,.19,2.47,11.31,11.31,0,0,1,.29,4.31,22.23,22.23,0,0,1-.83,3.14c-.45,1.41-1,3-.52,3.49s3.79,1,6.17,1.39A40.08,40.08,0,0,1,35,122l.5.21c3.38,1.42,9.68,4.07,12.87,4.07a3.68,3.68,0,0,0,.73-.07c.55-.37,2.88-2,3.31-4.1.6-2.64-1.83-5.73-3.32-7.34C47.37,113,44.19,107.68,41.86,103.79Z"/><path class="cls-1" d="M57.65,41.85c.16.6,1.53,2.15,3.67,3.55l.86.57c1.18.8,1.71,1.13,2.56,1,1.26-.16,5.88-3,7.85-4.17l.5-.29c.73-.45,1.32-.76,1.79-1,.94-.49,1-.57,1.06-.74a5.13,5.13,0,0,0-2.65-1.59c-.54-.19-1.29-.49-2.17-.84a44.7,44.7,0,0,0-5.53-2h-.13c-.9,0-2.7,1.12-4.5,2.79C60.08,40,58.35,41.31,57.65,41.85Z"/><path class="cls-1" d="M92.21,92.4a36.42,36.42,0,0,0,.51-13.09c-1.1-7.7-11.93-31.67-13.8-34.34-1.08.15-4,1.82-6.31,3.17a42,42,0,0,1-7.44,3.75,4.71,4.71,0,0,1-1.25.17c-2.79,0-5.81-2.36-7.76-4.22a21.18,21.18,0,0,1-4.34,10.54c-1.32,1.5-2.49,4.95-3.63,8.27A43,43,0,0,1,44.72,75c-2.69,4.2-4.24,12.35-2.28,17,1,2.25,4.4,4.9,7.43,7.25,3.72,2.86,6.93,5.33,7.28,7.83a4.83,4.83,0,0,1-2.72,5.36l4,4.55a29.24,29.24,0,0,0,4.41.27,62.49,62.49,0,0,0,8.95-.7c7.92-1.18,13.44-7.7,14.53-9.09,0-1.83.06-10,.6-12.55.2-1,1-2.63,4-2.63A9.91,9.91,0,0,1,92.21,92.4Z"/><path class="cls-1" d="M113.82,110.13l-.39-.21c-2.67-1.4-4.07-5.23-3.88-8.11a3.29,3.29,0,0,0-.14-1.26,14.52,14.52,0,0,1-2,2.67,12.87,12.87,0,0,1-8,3,7.76,7.76,0,0,1-3.15-.61c-3.12-1.36-3.54-5.25-3.55-7.21l-.12.05a22.65,22.65,0,0,0,.11,4.47c.07.82.14,1.66.18,2.44.18,3.41-.91,9.21-1.86,13.47s.78,7.1,2.8,7.73a2,2,0,0,0,.61.09c1.87,0,5-1.94,7.7-4.81,1.94-2,6.26-4.25,10.07-6.2a36.09,36.09,0,0,0,5-2.81c.15-.13.17-.2.17-.2C117.29,112,114.76,110.63,113.82,110.13Z"/><path class="cls-2" d="M120.12,107.66c-3.74-1.53-5.34-3.56-5.18-6.6a10.17,10.17,0,0,0-2.81-7.16c.58-2.2,2.26-9.82,0-16.44-2.43-7.09-9.84-17.91-17.5-28.55-3.13-4.37-3.28-9.12-3.45-14.61-.16-5.25-.35-11.19-3.27-17.8A18.4,18.4,0,0,0,70.4,5.18,24,24,0,0,0,57.09,9.23c-7.65,5.28-6.64,16.78-6,24.4.09,1,.18,2,.23,2.86.45,7.46,0,11.39-.49,12.58a50.39,50.39,0,0,1-3.81,5.36c-1.85,2.43-3.95,5.19-5.66,7.76-2,3.09-3.7,7.81-5.3,12.38A59.43,59.43,0,0,1,32.74,83a11.46,11.46,0,0,0-1.11,8.59,8.77,8.77,0,0,0-2.83,3.58c-1.13,2.42-3.44,3.73-8.24,4.65-2.21.45-3.73,1.38-4.52,2.76-1.16,2-.53,4.52.05,6.24.84,2.53.31,4.14-.65,7-.22.67-.47,1.43-.73,2.26a4.12,4.12,0,0,0,.43,3.58c1.82,2.77,7.11,3.75,12.55,4.39A49.05,49.05,0,0,1,37.94,129a47.85,47.85,0,0,0,10,2.9,11.52,11.52,0,0,0,1.42.09A8.36,8.36,0,0,0,57,127.51a84.72,84.72,0,0,1,13.76-1.63,60.11,60.11,0,0,1,13.67,1.41,11,11,0,0,0,4.12,4.49,10.06,10.06,0,0,0,4.64,1,11.15,11.15,0,0,0,8.14-3.36c2.78-2.94,9.71-6.7,14.78-9.44l3.11-1.7c2.84-1.58,4.4-3.83,4.26-6.18A5.24,5.24,0,0,0,120.12,107.66ZM74.07,21.36c2.76,0,5,3.19,5,7.14s-2.24,7.14-5,7.14-5-3.19-5-7.14S71.31,21.36,74.07,21.36Zm-8.48,15a44.7,44.7,0,0,1,5.53,2c.88.35,1.63.65,2.17.84a5.13,5.13,0,0,1,2.65,1.59c0,.17-.12.25-1.06.74-.47.24-1.06.55-1.79,1l-.5.29c-2,1.2-6.59,4-7.85,4.17-.85.11-1.38-.22-2.56-1l-.86-.57c-2.14-1.4-3.51-2.95-3.67-3.55.7-.54,2.43-1.89,3.31-2.69,1.8-1.67,3.6-2.79,4.5-2.79Zm-7-11.58c2,0,3.67,2.35,3.67,5.25s-1.64,5.25-3.67,5.25S55,33,55,30.05,56.59,24.8,58.62,24.8Zm-6.26,97.33c-.43,2.06-2.76,3.73-3.31,4.1a3.68,3.68,0,0,1-.73.07c-3.19,0-9.49-2.65-12.87-4.07L35,122a40.08,40.08,0,0,0-8-1.78c-2.38-.38-5.63-.91-6.17-1.39s.07-2.08.52-3.49a22.23,22.23,0,0,0,.83-3.14,11.31,11.31,0,0,0-.29-4.31,5.7,5.7,0,0,1-.19-2.47c.13-.55,2.83-1.14,4-1.39a15.4,15.4,0,0,0,4.4-1.38c1.49-.9,2.29-2.56,3-4a6.39,6.39,0,0,1,1.68-2.51.36.36,0,0,1,.19,0c1.19,0,3.67,2.49,5.1,4.72.36.56,1,1.68,1.81,3,2.33,3.89,5.51,9.22,7.18,11C50.53,116.4,53,119.49,52.36,122.13ZM86.9,94.94c-.54,2.55-.59,10.72-.6,12.55-1.09,1.39-6.61,7.91-14.53,9.09a62.49,62.49,0,0,1-8.95.7,29.24,29.24,0,0,1-4.41-.27l-4-4.55a4.83,4.83,0,0,0,2.72-5.36c-.35-2.5-3.56-5-7.28-7.83-3-2.35-6.48-5-7.43-7.25-2-4.64-.41-12.79,2.28-17a43,43,0,0,0,3.47-8.38c1.14-3.32,2.31-6.77,3.63-8.27a21.18,21.18,0,0,0,4.34-10.54c2,1.86,5,4.22,7.76,4.22a4.71,4.71,0,0,0,1.25-.17,42,42,0,0,0,7.44-3.75c2.34-1.35,5.23-3,6.31-3.17,1.87,2.67,12.7,26.64,13.8,34.34a36.42,36.42,0,0,1-.51,13.09,9.91,9.91,0,0,0-1.29-.09C87.9,92.31,87.1,94,86.9,94.94Zm30.26,17.84a36.09,36.09,0,0,1-5,2.81c-3.81,2-8.13,4.16-10.07,6.2-2.74,2.87-5.83,4.81-7.7,4.81a2,2,0,0,1-.61-.09c-2-.63-3.69-3.56-2.8-7.73s2-10.06,1.86-13.47c0-.78-.11-1.62-.18-2.44a22.65,22.65,0,0,1-.11-4.47l.12-.05c0,2,.43,5.85,3.55,7.21a7.76,7.76,0,0,0,3.15.61,12.87,12.87,0,0,0,8-3,14.52,14.52,0,0,0,2-2.67,3.29,3.29,0,0,1,.14,1.26c-.19,2.88,1.21,6.71,3.88,8.11l.39.21c.94.5,3.47,1.82,3.51,2.45C117.33,112.58,117.31,112.65,117.16,112.78Z"/></svg>