<svg id="Слой_1" data-name="Слой 1" xmlns="http://www.w3.org/2000/svg" viewBox="0 0 138 138"><defs><style>.cls-1{fill:#fff;}</style></defs><path class="cls-1" d="M130.53,65.68A35.46,35.46,0,0,0,95.07,30.23H42.93A35.46,35.46,0,0,0,7.47,65.68V72a35.47,35.47,0,0,0,35.46,35.46H95.07c14.74,0,23,.1,25.92.3.79,0,3.49,0,4.21,0,2.8,0,4.13,0,4.81-.91a2.44,2.44,0,0,0,.38-1.71Q130.47,85.39,130.53,65.68ZM110.19,87.31a2.13,2.13,0,0,1-2.13,2.13H95.65a2.13,2.13,0,0,1-2.13-2.13V74.07c0-4.64-3.36-8.4-7.5-8.4s-7.5,3.76-7.5,8.4V87.31a2.14,2.14,0,0,1-2.13,2.13H62.18a2.14,2.14,0,0,1-2.13-2.13V70.16a7.41,7.41,0,0,0-6.6-4.49c-4.14,0-7.5,3.76-7.5,8.4V87.31a2.13,2.13,0,0,1-2.13,2.13H29.61a2.13,2.13,0,0,1-2.12-2.13V70.12c0-13.83,10-25.05,22.35-25.05h5.43a20.77,20.77,0,0,1,13.57,5.18A20.73,20.73,0,0,1,82.4,45.07h5.44c12.34,0,22.35,11.22,22.35,25.05Z"/></svg>