<svg id="Слой_1" data-name="Слой 1" xmlns="http://www.w3.org/2000/svg" viewBox="0 0 138 138"><defs><style>.cls-1{fill:#fff;}</style></defs><path class="cls-1" d="M123,29.12A18,18,0,0,0,109.5,13.47,151.85,151.85,0,0,0,69,7.64a156.32,156.32,0,0,0-40.8,5.83A18,18,0,0,0,15,29.12a164.47,164.47,0,0,0-1.23,19.33c0,62.89,55.22,81.91,55.22,81.91s55.22-19,55.22-81.91A160.1,160.1,0,0,0,123,29.12ZM72.07,96.61v9.2H65.93v-9.2C60.72,92,50.59,81.88,50.59,65.93,50.59,41.39,69,26.05,69,26.05S87.41,41.39,87.41,65.93C87.41,81.88,77.28,92,72.07,96.61Z"/></svg>