<svg id="Слой_1" data-name="Слой 1" xmlns="http://www.w3.org/2000/svg" viewBox="0 0 138 138"><defs><style>.cls-1{fill:none;}.cls-2{fill:#fff;}</style></defs><path class="cls-1" d="M98.73,80.07h-.65V81.2h.61a.55.55,0,0,0,.63-.59C99.32,80.06,98.93,80.07,98.73,80.07Z"/><polygon class="cls-1" points="91.41 59.32 91.41 55.69 91.41 52.07 85.3 48.51 79.19 52.07 79.19 59.32 85.3 62.88 91.41 59.32"/><path class="cls-1" d="M98.63,78.45a3,3,0,0,0,0,6.06,3.1,3.1,0,0,0,3.05-3.05A3,3,0,0,0,98.63,78.45Zm.75,5c0-.19-.15-1.24-.15-1.27-.07-.23-.14-.35-.43-.35h-.72v1.61h-.76v-4h1.39c.48,0,1.41,0,1.41,1.06a.94.94,0,0,1-.78,1c.56,0,.59.4.68.91a4.69,4.69,0,0,0,.19,1.08Z"/><path class="cls-2" d="M53.73,71.71l12.21-7.12a2,2,0,0,0,1-1.77V48.57a2,2,0,0,0-1-1.77L53.73,39.68a2,2,0,0,0-1-.28,2,2,0,0,0-1,.28L39.46,46.8a2,2,0,0,0-1,1.77V62.82a2,2,0,0,0,1,1.77l12.2,7.12A2.07,2.07,0,0,0,53.73,71.71ZM46.05,59V52.37a1,1,0,0,1,.48-.83l5.69-3.31a1,1,0,0,1,1,0l5.69,3.31a1,1,0,0,1,.48.83V59a.94.94,0,0,1-.48.82l-5.69,3.32a.92.92,0,0,1-1,0l-5.69-3.32A.94.94,0,0,1,46.05,59Z"/><path class="cls-2" d="M33.33,46.8l-12.2-7.11a2,2,0,0,0-1-.28,2,2,0,0,0-1,.28L6.86,46.8a2.08,2.08,0,0,0-1,1.78V66.77a1.16,1.16,0,0,0,1.73,1L13,64.61a2,2,0,0,0,1-1.76V52.08l6.11-3.57,6.11,3.57V62.85a2,2,0,0,0,1,1.76l5.41,3.15a1.15,1.15,0,0,0,1.73-1V48.58A2.06,2.06,0,0,0,33.33,46.8Z"/><polygon class="cls-2" points="114.41 53.67 114.41 57.74 117.9 59.77 121.4 57.74 121.4 53.67 117.9 51.63 114.41 53.67"/><path class="cls-2" d="M72.06,64.59l12.21,7.12a2,2,0,0,0,1,.28,2,2,0,0,0,1-.28l12.2-7.12a2,2,0,0,0,1-1.77V24a2,2,0,0,0-1-1.76l-5.31-3.09a1.22,1.22,0,0,0-1.83,1.06v22.4l-5.07-3a2,2,0,0,0-1-.28,2,2,0,0,0-1,.28L72.06,46.8a2,2,0,0,0-1,1.77V62.82A2,2,0,0,0,72.06,64.59Zm7.13-12.52,6.11-3.56,6.11,3.56v7.25L85.3,62.88l-6.11-3.56Z"/><path class="cls-2" d="M75.25,100.79c-5,0-6-1.23-6.4-3.69a.55.55,0,0,0-.56-.46H65.86a.55.55,0,0,0-.55.56c0,3.14,1.71,6.9,9.9,6.9,6,0,9.4-2.34,9.4-6.42s-2.72-5.12-8.48-5.9-6.4-1.16-6.4-2.53c0-1.13.48-2.61,4.78-2.61,3.85,0,5.29.84,5.87,3.43a.51.51,0,0,0,.51.42h2.43a.58.58,0,0,0,.39-.16.51.51,0,0,0,.13-.42c-.39-4.46-3.34-6.54-9.33-6.54-5.34,0-8.51,2.27-8.51,6,0,4.11,3.18,5.21,8.29,5.73,6.12.61,6.6,1.49,6.6,2.69C80.89,99.91,79.2,100.79,75.25,100.79Z"/><path class="cls-2" d="M90.15,79.22,71.44,68.42a3.85,3.85,0,0,0-1.94-.51,4,4,0,0,0-2,.51l-18.7,10.8a3.92,3.92,0,0,0-2,3.41v21.58a4,4,0,0,0,2,3.41l4.92,2.8a8,8,0,0,0,4.3,1.17c3.53,0,5.53-2.11,5.53-5.83V84.43a.55.55,0,0,0-.54-.56H60.66a.56.56,0,0,0-.55.56v21.33c0,1.62-1.71,3.27-4.5,1.88l-5.12-3a.6.6,0,0,1-.28-.49V82.61a.57.57,0,0,1,.28-.51L69.2,71.31a.6.6,0,0,1,.58,0L88.5,82.1a.54.54,0,0,1,.28.51V104.2a.61.61,0,0,1-.28.52L69.78,115.54a.6.6,0,0,1-.58,0l-4.78-2.84a.54.54,0,0,0-.46,0,11.32,11.32,0,0,1-2.82,1.3c-.32.1-.76.3.17.81l6.21,3.69a4.24,4.24,0,0,0,2,.52,3.6,3.6,0,0,0,1.94-.54l18.71-10.82a3.91,3.91,0,0,0,2-3.41V82.63A4,4,0,0,0,90.15,79.22Z"/><path class="cls-2" d="M131.14,46.8l-12.2-7.12a2.06,2.06,0,0,0-1-.28,2,2,0,0,0-1,.28l-12.2,7.12a2,2,0,0,0-1,1.77V62.82a2,2,0,0,0,1,1.77l11.83,7.16a2,2,0,0,0,2.08,0l5.82-3.38a.91.91,0,0,0,0-1.57l-12.61-7.43V52.06l6.11-3.55L124,52.06v5.1a.61.61,0,0,0,1,.56c1.54-.91,6.18-3.6,6.18-3.6a2,2,0,0,0,1-1.76V48.57A2.05,2.05,0,0,0,131.14,46.8Z"/><path class="cls-2" d="M99.34,81.48a.94.94,0,0,0,.78-1c0-1.07-.93-1.06-1.41-1.06H97.32v4h.76V81.85h.72c.29,0,.36.12.43.35,0,0,.12,1.08.15,1.27h.83a4.69,4.69,0,0,1-.19-1.08C99.93,81.88,99.9,81.52,99.34,81.48Zm-.65-.28h-.61V80.07h.65c.2,0,.59,0,.59.54A.55.55,0,0,1,98.69,81.2Z"/><path class="cls-2" d="M98.67,77.87a3.6,3.6,0,1,0,3.58,3.59A3.55,3.55,0,0,0,98.67,77.87Zm0,6.64a3,3,0,1,1,3.05-3.05A3.1,3.1,0,0,1,98.63,84.51Z"/></svg>