<svg id="Слой_1" data-name="Слой 1" xmlns="http://www.w3.org/2000/svg" viewBox="0 0 138 138"><defs><style>.cls-1{fill:#fff;}</style></defs><path class="cls-1" d="M10.62,108.7V95.9h3.86c16.64,0,33.28.09,49.92,0,13.86-.11,24-10.92,23.41-24.72C87.29,58.71,76.24,49,63.31,49.55,51,50.12,41.06,60.76,41.68,73H47L38.37,89.7c-4.73-4.29-9.42-8.53-14.9-13.51,5.88.47,5.15-3.1,5.28-6.17.08-1.81.3-3.61.47-5.55-1.33-.42-2.55-.77-3.76-1.2a20.17,20.17,0,1,1,15.41-37.2c1.37.65,3,.73,5.41,1.27L48.38,36H38.08l.72-2.58c-3.92-3-9.25-3.13-13.79-.21s-7.09,8.65-5.84,13.72a13.46,13.46,0,0,0,8.32,9.67c2.64,1.1,4.33.91,6-2A36,36,0,1,1,95.22,91.76c-.73,1.16-1.48,2.31-2.65,4.13,6,0,11.33,0,16.65-.08.53,0,1.3-1,1.5-1.63a19.32,19.32,0,0,0,.3-3.81l16.36,12L111.72,113.9c-.39-.34-.65-.45-.67-.6-.63-4.59-.63-4.6-5.39-4.6h-95Z"/></svg>