<svg id="Слой_1" data-name="Слой 1" xmlns="http://www.w3.org/2000/svg" viewBox="0 0 138 138"><defs><style>.cls-1{fill:#fff;}</style></defs><path class="cls-1" d="M113.42,23.93C102.1,7.63,79.57,2.85,63.37,13.13L34.81,31.41A32.47,32.47,0,0,0,20.06,53.32a34,34,0,0,0,3.43,22.12,31.43,31.43,0,0,0-4.88,12.25,35,35,0,0,0,5.92,26.38c11.42,16.3,33.85,21.08,50.05,10.8l28.56-18.17a32.44,32.44,0,0,0,14.74-21.92,34,34,0,0,0-3.42-22.11,31.48,31.48,0,0,0,4.88-12.26A34.26,34.26,0,0,0,113.42,23.93Zm-8.1,23.37a27.78,27.78,0,0,1-.73,2.7l-.52,1.66-1.45-1A38.1,38.1,0,0,0,91.4,45l-1-.31.11-1a7,7,0,0,0-1.14-4.26A6.85,6.85,0,0,0,82,36.7a9.28,9.28,0,0,0-1.76.73L51.73,55.6A6,6,0,0,0,49,59.55a6.48,6.48,0,0,0,1,4.78A6.83,6.83,0,0,0,57.45,67a9.28,9.28,0,0,0,1.76-.73l10.91-7a22.4,22.4,0,0,1,5.81-2.59,22.63,22.63,0,0,1,24.3,9,21,21,0,0,1,3.63,15.89,19.63,19.63,0,0,1-8.93,13.19L66.38,113a23,23,0,0,1-5.82,2.6,22.65,22.65,0,0,1-24.3-9A21,21,0,0,1,32.63,90.7c.21-.93.41-1.76.62-2.7l.52-1.66,1.45,1A38.1,38.1,0,0,0,46.44,93l1,.31-.11,1a6.94,6.94,0,0,0,1.15,4.26,6.87,6.87,0,0,0,7.37,2.8,9.28,9.28,0,0,0,1.76-.73L86.11,82.5a5.87,5.87,0,0,0,2.7-4,6.46,6.46,0,0,0-1-4.77,6.81,6.81,0,0,0-7.37-2.7,8.51,8.51,0,0,0-1.77.72l-10.9,7a19.43,19.43,0,0,1-5.82,2.49,22.63,22.63,0,0,1-24.3-9,21,21,0,0,1-3.53-15.89A19.7,19.7,0,0,1,43,43.14L71.57,25a22.92,22.92,0,0,1,5.81-2.6,22.64,22.64,0,0,1,24.3,9A21,21,0,0,1,105.32,47.3Z"/></svg>