<?xml version="1.0" encoding="utf-8"?>
<!-- Generator: Adobe Illustrator 26.0.3, SVG Export Plug-In . SVG Version: 6.00 Build 0)  -->
<svg version="1.1" id="Слой_1" xmlns="http://www.w3.org/2000/svg" xmlns:xlink="http://www.w3.org/1999/xlink" x="0px" y="0px"
	 viewBox="0 0 1000 1000" style="enable-background:new 0 0 1000 1000;" xml:space="preserve">
<style type="text/css">
	.st0{fill:#FFFFFF;}
</style>
<path class="st0" d="M489.5,226.5C328,231.6,280,347,269,409.5c14.3-23.2,59.5-74,126-74c77.5,0,136.5,86.5,172.5,113.5
	c43.7,32.8,131.6,76.1,247,41c92-28,134.7-125.7,144-172c-44.5,60.5-112,96.8-195.5,54C705.5,342.5,662.5,221,489.5,226.5z"/>
<path class="st0" d="M261,501C99.5,506.1,51.5,621.5,40.5,684c14.3-23.2,59.5-74,126-74C244,610,303,696.5,339,723.5
	c43.7,32.8,131.6,76.1,247,41c92-28,134.7-125.7,144-172c-44.5,60.5-112,96.8-195.5,54C477,617,434,495.5,261,501z"/>
</svg>
