<svg id="Слой_1" data-name="Слой 1" xmlns="http://www.w3.org/2000/svg" viewBox="0 0 138 138"><defs><style>.cls-1{fill:#fff;}</style></defs><path class="cls-1" d="M69,8.33,17.43,38.66V99.34L69,129.67l51.57-30.33V38.66Zm1.52,9.1L113,41.7,97.82,50.8,70.52,35.63Zm-3,0v18.2L40.18,50.8,25,41.7Zm-44,27.3,15.17,9.1V84.17l-15.17,9.1Zm44,75.84L25,96.3l15.17-9.1,27.3,15.17Zm0-22.75L41.7,84.17V55.35L67.48,70.52ZM43.21,52.31,69,38.66,94.79,52.31,69,67.48Zm53.09,3V84.17L70.52,97.82V70.52ZM70.52,120.57v-18.2L97.82,87.2,113,96.3Zm44-27.3-15.17-9.1V53.83l15.17-9.1Z"/></svg>