<svg id="Слой_1" data-name="Слой 1" xmlns="http://www.w3.org/2000/svg" viewBox="0 0 138 138"><defs><style>.cls-1{fill:#fff;}</style></defs><polygon class="cls-1" points="30.96 112.85 42.47 83.4 54.04 112.85 73.77 112.85 53.52 70.38 73.31 28.61 53.81 28.61 42.47 57.54 31.14 28.61 11.64 28.61 31.48 70.38 11.23 112.85 30.96 112.85"/><path class="cls-1" d="M98.18,114q7.92,0,13-7.52l.75,6.36h14.88V24H110.28V55.34q-4.8-6.24-12-6.25c-6.65,0-11.69,2.53-15.16,7.58s-5.21,12.71-5.21,23h0v4.75Q78,99,83.17,106.49T98.18,114ZM94.31,79.42q0-9.32,2.09-13A7,7,0,0,1,103,62.81a7.8,7.8,0,0,1,7.29,4.63V96a8,8,0,0,1-7.35,4.33q-4.68,0-6.65-3.67t-2-12.93Z"/></svg>