<svg id="Слой_1" data-name="Слой 1" xmlns="http://www.w3.org/2000/svg" viewBox="0 0 138 138"><defs><style>.cls-1{fill:#fff;}</style></defs><path class="cls-1" d="M126.69,76.77c3.4,3.58,2.52,8.24-2.45,10.66a5.68,5.68,0,0,1,.14,5.68,5.8,5.8,0,0,1-4.9,2.93c-.15,3.8-2.64,6.1-6.47,5.24a4.63,4.63,0,0,1-2.69,3.1c-.24.09-.35.78-.35,1.2a8.22,8.22,0,0,1-6.12,8.26,21.37,21.37,0,0,1-2.42.36c1.07,6.48-4.51,9.87-9.4,7.94a6.36,6.36,0,0,1-4,4.79A6.1,6.1,0,0,1,82,125.75c-2.85,4.54-7.67,4.07-10.1.56-4.74,1.44-6.05.94-7.81-3.06-2.59.63-4.49-.2-5.4-2.88-3.56,4.53-10.59,4.58-13.9-1.27-2.09,1.65-4.41,2.44-7,1.45a6.73,6.73,0,0,1-4.4-5.8,6.18,6.18,0,0,1-6.17-1.29,5.88,5.88,0,0,1-1.73-5.92c-2.17-.15-4.13-.74-5.32-2.74a5.51,5.51,0,0,1,0-5.91c-1.37-1-2.6-2-2.83-3.86a5,5,0,0,1,1.79-4.46A4.19,4.19,0,0,1,18,85.73a8.2,8.2,0,0,1-4.44-12.37c-2.51-1-4.3-2.63-4.82-5.38s.64-4.9,2.72-6.73a6.12,6.12,0,0,1-2-6,6,6,0,0,1,4.3-4.45c-2.16-4.77.42-8.49,4.82-8.9.11-3.89,2.91-6,6.58-5a4,4,0,0,1,3.16-3.28A8.21,8.21,0,0,1,30,26.71c1.64-2.07,3.87-2.85,6.59-3-.46-2.62,0-5,2.13-6.81s4.54-2,7.19-1.06c.56-2.27,1.71-4,4-4.83a5.86,5.86,0,0,1,6.2,1.33A5.82,5.82,0,0,1,61,9a5.54,5.54,0,0,1,5.21,2.83c3.43-1.83,6.4-.59,7.7,3.05,3.13-.42,4,0,5.55,2.74,4-4.94,10.79-4.08,13.73,1.3a6.77,6.77,0,0,1,7.12-1.52c2.65,1,4,3.07,4.42,6a6.21,6.21,0,0,1,6.17,1.24,5.87,5.87,0,0,1,1.73,6c2.45.16,4.49,1.07,5.56,3.39a5.61,5.61,0,0,1-.36,5.27c1.45.84,2.68,1.9,2.87,3.72a5.19,5.19,0,0,1-1.77,4.5,4.19,4.19,0,0,1,1.21,4.84c5.59,2.24,7.23,7.55,4.54,12.41C130,66.88,131.05,72.93,126.69,76.77Zm-46.46,42.8c1.62-3.58,4.33-4.68,8-3.86.55-3.67,2.77-5.62,6.26-6.28a8.49,8.49,0,0,1-.16-6A8.83,8.83,0,0,1,98.12,99a7.08,7.08,0,0,1-.44-8.54c-2.73-1.81-3.49-4.34-2.76-7.41-3.36-.82-4.9-3-4.9-6.39-2.3-.14-4.13-.9-4.82-3.24-3.24,1-4.54.44-6.21-2.38H77l-1.92,3.32c1.29,1.41,1.29,1.43,1,3.56,2.33,1.14,3.72,3.32,1.91,6.62,3,2.53,3.07,4.81.31,8,2.53,4.35,1.75,7.11-2.76,9.61a6.27,6.27,0,0,1-.55,5.95,6.93,6.93,0,0,1-5.45,2.87,7,7,0,0,1-3.81,6.37l.51.94.08-.38a13.37,13.37,0,0,1,3.63,0,14.1,14.1,0,0,1,3.2,1.87A5.6,5.6,0,0,1,80.23,119.57ZM50.15,22.35c-.87,1.52-1.41,3.07-2.46,4.11s-2.59,1.59-4,2.37c1.07,4,.55,7.1-3.75,10.28a6.88,6.88,0,0,1,.41,8.33c2.89,2.7,3.24,3.63,2.84,7.53,3.23.88,4.77,3.07,4.62,6.42,2.44-.08,4.09.88,4.89,3.06C56.14,63.61,57,64,59,67l1.91-.15c.55-1.07,1.07-2,1.52-3a1.58,1.58,0,0,0,0-.94c-.22-.88-.48-1.75-.81-2.94-2.68-1.65-3.16-3.25-1.63-6.46-3.12-2.78-3.16-4.95-.13-8.12A5.58,5.58,0,0,1,58.55,40a5.77,5.77,0,0,1,3.78-3.93c-1.58-4.24.59-8.72,6-9,.84-3.46.85-3.44,3.57-6.17.21-.21.08-.74.13-1.35-3.06,1.84-5.24.9-6.83-1.18a16.43,16.43,0,0,1-3.85,1.16,14.87,14.87,0,0,1-3.77-.82C56.1,22,53.43,23.18,50.15,22.35ZM72,79l-1.21-2.28H67.23c-.06,1.51-1.58,2-2,2.94s0,2.63-1.05,3.46a27,27,0,0,1-4,2.17c-.52,2.94-2.88,4.88-6.66,3.6-1.66,3.82-5.46,5.66-9.54,2.65C39.84,95.23,37,95,33.33,90.94c-1.64.27-3.14.82-4.58.67s-2.79-1-4.18-1.53c2.13,1.8,2.92,4,1.89,6.34a16,16,0,0,1,2.75,2.88,16.8,16.8,0,0,1,1.12,3.82c3.59-.23,5.22.94,6.92,5.12a7,7,0,0,1,8.34,2.53c3.2-3.56,6.86-4.28,11-1.9a6.94,6.94,0,0,1,7.2-4.39,6.47,6.47,0,0,1,5.14-6c-.84-3.38.34-5.77,3.13-7.21a12,12,0,0,1-.51-3.17,12.65,12.65,0,0,1,1.11-3C70.61,83.22,70.4,81.57,72,79ZM84.69,49.28a5.92,5.92,0,0,1,3.94-4c2.05-.64,3.81.07,5.47,1.28A6.15,6.15,0,0,1,99.7,44a6.43,6.43,0,0,1,5.06,3.39c3.14-1.81,6-1.34,8.76.75-2.2-1.92-3-4.09-1.76-6.85-2.9-1.14-3.94-3.4-3.76-6.4-3.87.36-6.25-1.33-7.26-5-3.39.95-6.25.24-8.41-2.61-3.21,3.44-6.85,4.14-10.94,1.9a7.24,7.24,0,0,1-7.22,4.47,6.66,6.66,0,0,1-5.11,5.91c.86,3.4-.37,5.77-3.43,7.32a4.59,4.59,0,0,1-.51,6c2.28,2.21,2.44,3.52.88,6.43l.89,1.27h3.84l-.45-.35,2.09-2.36.61.61c-.13-3.43,1-4.69,4.81-5.19C78.29,49.42,81.61,47.71,84.69,49.28ZM35.6,82.14A18.35,18.35,0,0,1,40,82a16.09,16.09,0,0,1,3.69,1.8c2.46-2.21,4.26-2.41,7.69-.74,1.73-2.37,2.35-2.67,5.44-2.66,1.16-3.29,2.22-4.08,5.11-3.92l1.37-2.1L61.44,71.7a2.88,2.88,0,0,1-3.57-.81c-2.75,1.81-4.32,1.49-6.78-1.3-4,1.22-5.38.54-7.14-3.6-4.52.51-7.39-2.23-7.06-6.76-5.54-1.57-6.95-4.21-5.14-9.72-3-1.85-4-4.59-3.42-8.09a5.4,5.4,0,0,1-4.84,4.77,5.8,5.8,0,0,1-3.7,6.4c1.18,1.4,1.92,3,1.51,4.63a27.14,27.14,0,0,1-2,4.54c2.43,2.07,3,4.89,1.78,8.19,4.56.94,7,3.72,7.2,8.42C31.69,78.08,34.21,79.35,35.6,82.14Zm83.33-5.65A7,7,0,0,1,116.86,68c-4.75-.83-7-3.76-7.31-8.34a6.89,6.89,0,0,1-7.39-4.12A6.48,6.48,0,0,1,94.6,54c-2.49,2.51-5.19,2.69-8,.9-1.46,2.18-2.23,2.56-5.36,2.66-.65,2.73-2.3,4.19-5.14,3.93-1.86,2.09.72,3.11.8,4.33l3.53,1C83,65.14,84.87,65.51,87,68.45a4.77,4.77,0,0,1,4.48-.18A5,5,0,0,1,94,72.13a5.73,5.73,0,0,1,5.8,1.31c1.64,1.55,1.82,3.55,1.51,5.62,4.1.84,7,4.44,4.82,9.42,3.11,1.85,4,4.69,3.51,8.22a5.33,5.33,0,0,1,4.79-4.83,5.72,5.72,0,0,1,3.62-6.43C115.81,82.08,116,79.71,118.93,76.49Z"/></svg>