<svg id="Слой_1" data-name="Слой 1" xmlns="http://www.w3.org/2000/svg" viewBox="0 0 138 138"><defs><style>.cls-1,.cls-2{fill:#fff;}.cls-1{isolation:isolate;opacity:0.05;}</style></defs><ellipse class="cls-1" cx="86.93" cy="74.49" rx="12.41" ry="13.79"/><ellipse class="cls-1" cx="86.93" cy="74.49" rx="11.03" ry="12.41"/><ellipse class="cls-1" cx="51.07" cy="74.49" rx="12.41" ry="13.79"/><ellipse class="cls-1" cx="51.07" cy="74.49" rx="11.03" ry="12.41"/><path class="cls-2" d="M113.44,36.28a2.59,2.59,0,0,0-.66-.7C110.66,34,99.9,26.37,86.12,24.89H86a.68.68,0,0,0-.61.39l-.75,1.48h0a.64.64,0,0,0-.07.31.68.68,0,0,0,.46.65l.18,0c11.77,2.84,18.93,8,25.24,13.64-11.17-5.7-22.19-11-41.41-11s-30.24,5.34-41.4,11c6.3-5.67,13.46-10.8,25.24-13.64l.17,0a.68.68,0,0,0,.46-.65.64.64,0,0,0-.07-.31h0l-.74-1.48a.7.7,0,0,0-.62-.39h-.16C38.1,26.37,27.34,34,25.22,35.58a2.55,2.55,0,0,0-.65.7C22.61,39.34,10.64,59.42,8.31,96a1.51,1.51,0,0,0,.38,1.09c12.66,14.19,30.84,15.87,34.72,16.06a1.36,1.36,0,0,0,1.18-.54l3.54-4.72a.67.67,0,0,0-.31-1,55.18,55.18,0,0,1-23-15.75c9,6.76,22.43,13.78,44.17,13.78s35.23-7,44.17-13.78a55.27,55.27,0,0,1-23,15.75.67.67,0,0,0-.31,1l3.54,4.72a1.36,1.36,0,0,0,1.18.54c3.88-.19,22.06-1.87,34.72-16.06a1.51,1.51,0,0,0,.38-1.09C127.36,59.42,115.39,39.34,113.44,36.28ZM51.07,85.53c-5.33,0-9.66-4.94-9.66-11s4.33-11,9.66-11,9.66,4.94,9.66,11S56.4,85.53,51.07,85.53Zm35.86,0c-5.33,0-9.65-4.94-9.65-11s4.32-11,9.65-11,9.66,4.94,9.66,11S92.27,85.53,86.93,85.53Z"/></svg>