<svg id="Слой_1" data-name="Слой 1" xmlns="http://www.w3.org/2000/svg" viewBox="0 0 138 138"><defs><style>.cls-1{fill:#fff;}</style></defs><path class="cls-1" d="M23.09,28.64,60.58,71.17a11.22,11.22,0,0,0,16.85,0l36.84-41.8a3.88,3.88,0,0,1,1-.82,12.56,12.56,0,0,0-5.1-1.07H27.79a12.68,12.68,0,0,0-4.9,1A1.71,1.71,0,0,1,23.09,28.64Z"/><path class="cls-1" d="M121,33.45a4,4,0,0,1-.72,1.21L83.43,76.46a19.22,19.22,0,0,1-28.85,0L17.09,33.92a2.69,2.69,0,0,1-.2-.27,12.64,12.64,0,0,0-1.84,6.56V97.79a12.74,12.74,0,0,0,12.74,12.73h82.42A12.73,12.73,0,0,0,123,97.79V40.21A12.67,12.67,0,0,0,121,33.45Z"/></svg>