<svg id="Слой_1" data-name="Слой 1" xmlns="http://www.w3.org/2000/svg" viewBox="0 0 138 138"><defs><style>.cls-1{fill:#fff;}</style></defs><path class="cls-1" d="M69,8.06A61.79,61.79,0,0,0,54.62,129.94c-1.41-.33-2.8-.71-4.17-1.13V114.65a19,19,0,0,1-5.41.77c-8.64,0-12.24-7.71-13.13-11.59a12.12,12.12,0,0,0-3.49-6c-1.83-1.62-2.68-1.63-2.69-2.18,0-1.17,1.56-1.12,2.32-1.12,3.86,0,6.79,4.11,8.15,6.23,3.36,5.25,7,6.12,8.84,6.12a13.57,13.57,0,0,0,5.7-1,18.22,18.22,0,0,1,5.89-11.34c-14.5-2.9-24.72-11.21-24.72-24.72a27.57,27.57,0,0,1,7.44-18.52,25.28,25.28,0,0,1-1.26-8.52,28,28,0,0,1,1.54-10s8.81.06,17.13,7.94a43.34,43.34,0,0,1,24.45,0c8.31-7.88,17.13-7.94,17.13-7.94a28,28,0,0,1,1.54,10,29.72,29.72,0,0,1-1,8.79,27.5,27.5,0,0,1,7.21,18.25c0,13.51-10.23,21.82-24.72,24.72a18.28,18.28,0,0,1,6.18,13.9v20.34c-1.37.43-2.76.8-4.17,1.13A61.79,61.79,0,0,0,69,8.06Z"/></svg>