<svg id="Слой_1" data-name="Слой 1" xmlns="http://www.w3.org/2000/svg" viewBox="0 0 138 138"><defs><style>.cls-1{fill:#fff;}</style></defs><path class="cls-1" d="M99.1,119.3c0-11.78,0-23.36,0-34.95A45.79,45.79,0,0,0,98.69,78c-1-6.81-5-10.47-11.24-10.41a12.37,12.37,0,0,0-12,11,31.87,31.87,0,0,0-.23,3.79q0,17.3,0,34.59v2.31H52.85V51.68H75.19v9.38c.7-.86,1.07-1.28,1.39-1.72C81.84,52,89.19,49.33,97.89,50c16,1.2,22,12.72,23.28,23.79a72.91,72.91,0,0,1,.41,8.49c0,11.59,0,23.18,0,34.77v2.26Z"/><path class="cls-1" d="M17.8,51.63H40v67.68H17.8Z"/><path class="cls-1" d="M16.39,30.44c0-6.88,5.22-11.72,12.65-11.75s12.6,4.93,12.6,11.82S36.29,42.17,28.86,42.15,16.4,37.29,16.39,30.44Z"/></svg>