<svg id="Слой_1" data-name="Слой 1" xmlns="http://www.w3.org/2000/svg" viewBox="0 0 138 138"><defs><style>.cls-1{fill:#fff;}</style></defs><path class="cls-1" d="M114.66,29.5c3.66,0,5.71,2.5,5,5.58q-7.4,32.82-14.82,65.64c-.26,1.13-.63,2.25-.78,3.39-.59,4.54-5.51,5.37-8.37,3.37-7.29-5.08-14.71-10-22-15-1.23-.85-1.91-.87-3,.22-3.34,3.33-6.81,6.52-10.26,9.74-3,2.82-6.27,2-7.59-1.85C50.16,92.77,47.48,85,44.89,77.17a2.83,2.83,0,0,0-2.23-2.09C35.52,73.2,28.4,71.24,21.28,69.3c-2.55-.69-3.77-2.49-2.7-4.33A5,5,0,0,1,21.09,63c14.53-5.29,29.09-10.5,43.63-15.74q23.91-8.61,47.81-17.23A18.23,18.23,0,0,1,114.66,29.5ZM55.46,96.2l.48-.11a7.22,7.22,0,0,0,.32-1.19c.47-3.93.84-7.88,1.41-11.8a4.72,4.72,0,0,1,1.42-2.82q17.63-14.55,35.38-29c2.29-1.88,4.62-3.72,6.85-5.66.4-.35.41-1.13.6-1.71-.62,0-1.24-.11-1.86-.11-.18,0-.37.19-.55.3Q74.73,58.33,50,72.52c-1.81,1-2,1.64-1.39,3.62q3.12,9.39,6.27,18.77A13.73,13.73,0,0,0,55.46,96.2Z"/></svg>