<svg id="Слой_1" data-name="Слой 1" xmlns="http://www.w3.org/2000/svg" viewBox="0 0 270.96 270.96"><defs><style>.cls-1{fill:#fff;}.cls-2{fill:#1f2937;}</style></defs><path class="cls-1" d="M40.53,206.14s21.48,12.59,50.13,0c0,0-2.55-39.43-2.22-42.56s33.58-40.42,32.84-42.15S112.52,98.46,111,93s-6-4.57-6-4.57-.37-12.22-16.42-9c0,0-3.21-10.25-18.52-3.34,0,0-13-9.42-22.93,4.16,0,0-15.23-1.81-18.27,4.94s-2.47,37,0,45.28S42.13,158.72,42,162.18,40.53,206.14,40.53,206.14Z"/><path class="cls-1" d="M66.09,89.43c.7,5.26.56,10.89,1.1,16.21,2.33-.24,4.69-.45,7.06-.65L74,92.69c-.12-1.67-.82-4.74-.69-6.41L74.82,75c-1.29.38-3.26.42-4.78,1.11a19.3,19.3,0,0,0-7.6-3,36.35,36.35,0,0,1,1.17,6.16C63.85,82.81,65.63,86,66.09,89.43Z"/><path class="cls-1" d="M83.1,93.88h7.25a3.52,3.52,0,0,0,.06-.72,22.2,22.2,0,0,1,4.45-12.83l0-.06a31.19,31.19,0,0,0-4.48.48A19.25,19.25,0,0,0,83.82,76c0,2.1,1.29,7.3.91,9.35C84.08,88.74,83.16,93.46,83.1,93.88Z"/><path class="cls-1" d="M105.4,89.92a7.17,7.17,0,0,1-1-1.46,38.53,38.53,0,0,1-2.29-5.08c-.79,2.11-1.66,4.55-2.5,5.56l-2.81,3.34C99.7,91.56,102.56,90.78,105.4,89.92Z"/><path class="cls-1" d="M45.9,94.89c1,3.59,1.52,10.47,2.78,14.19,3-.69,6-1.36,9-2-.49-6.21-3-10.44-3.85-16.43-.6-4.37-.47-11.21-1.19-15.65a19.48,19.48,0,0,0-5.5,5.23,44.43,44.43,0,0,1-6.8.94C41.07,82.82,44.72,90.61,45.9,94.89Z"/><path class="cls-1" d="M30.93,92.4A29.07,29.07,0,0,0,32.31,95a16.32,16.32,0,0,1,2.09,4.45c1,4.09,1.78,8.28,2.53,12.45l5.59-1.37c-1.28-3.67-5.57-9-6.53-12.4-1-3.68-1.93-13.58-3-15.81-1.89.62-2.44.44-3.49,1.84C30,86.88,30.54,89.64,30.93,92.4Z"/><path class="cls-1" d="M37.89,133.89c3.43,5.84,11,9.16,16.82,12.13,6.74,3.41,13.69,3.77,21,1.79C82.28,146,89,143.47,92.82,137.3c2.52-4.11,3.15-8.76,7.12-11.87a27.14,27.14,0,0,1,6.33-3.64c-1.85-4.92-1.63-17.48-2.09-19.45-3.59,1.86-8.37,2.23-12.4,2.55-6.72.54-12.56-2.55-14.57-5-1-1.16-1.48,2.7-3.49,2.06v5.33l-37.14,1.12L32,96.6,28.4,104C30.13,114.36,32.59,124.86,37.89,133.89Z"/><path class="cls-2" d="M91.38,81c4.3-.86,7.47-.61,9.81.21-2.15-1.66-5.51-2.74-10.77-2A7.25,7.25,0,0,1,91.38,81Z"/><path class="cls-2" d="M109.45,90a4.92,4.92,0,0,0-1.8-1.22A7.73,7.73,0,0,1,107.8,90,5.07,5.07,0,0,1,109.45,90Z"/><path class="cls-2" d="M72.86,77.62c6-2.72,10.18-2.78,13-1.85-2.56-2-7.31-3.49-15.77.32A17,17,0,0,1,72.86,77.62Z"/><path class="cls-2" d="M29.65,112.41c-.28-10.6.54-18.6,2.25-22.4,3.05-6.75,16.4-5,16.4-5,7-9.56,17.12-11,21.55-9-1.62-1.08-13.48-8.34-22.74,4.29,0,0-15.23-1.81-18.27,4.94-1.8,4-2.34,16.19-2,27.2Z"/><path class="cls-2" d="M88,181.84c-.65,11.73-2.6,25.67-17.67,25.43-5.77-.1-14.43,1-19-3.45-4.42-4.29-4.92-10.28-4.9-16.17,0-9.5.39-20,5.51-27.76H41.48a7.85,7.85,0,0,1,.53,2.29c-.13,3.46-1.48,44-1.48,44s21.48,12.59,50.13,0c0,0-1.18-18.16-1.83-30.81A53.08,53.08,0,0,0,88,181.84Z"/><path class="cls-1" d="M82.32,159.88c-5.44,3-10.63,3.08-16.76,3.05a29.69,29.69,0,0,1-14.07-3.61l-.17-.07A17.34,17.34,0,0,1,44.41,154c-.43-.44-.86-.89-1.27-1.36a19,19,0,0,0,3,7.2,48.91,48.91,0,0,1,5.81,9.6c3.49,8,3.31,16.87,1.58,25.31-.85,4.13-3.32,9.48-4.74,14.65a58.74,58.74,0,0,0,29.55.76c-3.43-7.44-1.34-18.15.94-26.78a50.33,50.33,0,0,1,2.63-18.24,31.6,31.6,0,0,1,3.19-6.4c.2-.42.42-.82.62-1.24A22.43,22.43,0,0,1,82.32,159.88Z"/><path class="cls-1" d="M97.26,109.06C89.51,111,83,107.14,78.7,101c1.45,2.07.32.66-.25.13a16.46,16.46,0,0,1-3-3.5,14.19,14.19,0,0,1-1-1.94,11.5,11.5,0,0,1-3.72-2.42c-.18-.18-.35-.38-.51-.57A10.94,10.94,0,0,1,59.05,102a11.14,11.14,0,0,1-7.64-2.73,10.81,10.81,0,0,1-10.76,7.55,11.6,11.6,0,0,1-6-1.57A43.27,43.27,0,0,1,36.48,110c1.47,4.49,2.91,8,6.6,11.12a12.36,12.36,0,0,1,2.75,3.16c3-.59,5.87-1,8.31-1.56,6.15-1.29,11.89-1.23,17.35-4.59,2.35-1.43,5.91-1.55,8.89-1.48a10.47,10.47,0,0,1,9.56-1.41c-.1,0,.82.08,1.88.16a11.45,11.45,0,0,1,1.73-2.22,22.27,22.27,0,0,1,3.75-3.16l1-.68.35-.78C98.18,108.76,97.71,108.94,97.26,109.06Z"/><path class="cls-1" d="M80.84,209.6c-.19-.89-.43-10.14-.8-17s1.23-11,1.23-11c-3.93,1.6-9,29.53-9,29.7A62.42,62.42,0,0,0,80.84,209.6Z"/><path class="cls-1" d="M70.16,211.5c0-.06-2.35-9.45-3.46-14.62s-2.47-18.65-2.47-18.65c-2.14.91-2.64,28.72-2.7,33.4A58.55,58.55,0,0,0,70.16,211.5Z"/><path class="cls-1" d="M58.85,166.51c-3.78,3.25-6.87,9.39-8,13a127.27,127.27,0,0,0-3.09,14.61,66,66,0,0,1-3.74,13.65,55,55,0,0,0,16.14,3.75c-.3-8.06-3-34.49-3-36.53A54.59,54.59,0,0,1,58.85,166.51Z"/><path class="cls-2" d="M42.86,177.18c.62-5.31,3.94-14.19,7.22-14.57C71.23,160.16,72.29,157,72.29,157c-15,2.92-19.53-.24-19.53-.24l5.85-3.5S44,155.2,34.47,134c-.38-.83,6.06,2.35,6.06,2.35-6.87-5.44-8.75-10.84-9.26-13.1-.29-1.27-.52-2.5-.71-3.69-.09-.58,1.95.35,3.65.77,2.13.53,4.23.58,3.38.31-6.26-2-7.66-7.41-7.67-8.61a50.55,50.55,0,0,1,2.83-17.11c.63-2-3.35-9.14-.26-13.06a7.12,7.12,0,0,0-3.65,3.38c-3,6.66-2.49,36.26-.1,44.94,3.36,10.8,10.88,23,12,27.75A14.39,14.39,0,0,1,42,162.18c-.06,1.59-.38,11-.71,20.77A24.4,24.4,0,0,0,42.86,177.18Z"/><path class="cls-2" d="M72.29,199.1s-2.7-32.34-6.16-36.16c0,0,13.11-1.63,19.84-6.19a34,34,0,0,1,6.66-3.34s-4.81,6.14-8,8.49c-4.24,3.16-8.2,11.64-8.7,17.44A138.71,138.71,0,0,1,72.29,199.1Z"/><path class="cls-2" d="M45.22,129.42s8.64-5.89,10.25-12.31,4.44.25,2.47,4.07S48.06,133,45.22,129.42Z"/><path class="cls-2" d="M104.18,120.07s-7.24,1.61-10.45.13c0,0,.2,3,5.37,8.2,0,0-10.52-3.77-12.15-11.25,0,0,1.86-5.85,5.68-6.83s8.53-2.1,9.14-6.3c0,0,.06,2.47.37,2.53a15.88,15.88,0,0,0,2-.18s-3.52,6-8.33,9.5C95.85,115.87,101,119.21,104.18,120.07Z"/><path class="cls-2" d="M97.77,151.15c1.52-1.79,3.13-3.77,4.74-5.86,9.1-11,19.18-22.9,18.77-23.86-.74-1.73-8.76-23-10.25-28.4-1.11-4.07-4-4.61-5.3-4.62-10.62,3.9-29.52.42-33,3s-1.19,13.46,11,18.9,18.07-5.44,18.07-5.44c-14.53,11-23.17-5.59-24.49-7.49s1.24-2.14,1.24-2.14c11.11,2.84,27.78-3.08,28.52-3.08s8.28,28.77,8.28,29.14-4.33,4-7.54,5.82c-2.62,1.54-21.69,32.79-22.12,33.43-1,1.42,1.09,15.63,1.21,24.91a43.3,43.3,0,0,1-7.19,24.42,68,68,0,0,0,10.94-3.75s-2.55-39.43-2.22-42.56C88.51,162.85,93.31,156.7,97.77,151.15Z"/><path class="cls-2" d="M30.1,83.43s1.41,13.8,4.5,24.42,6.17,16.3,10.62,16.54,9-.71,9.3-8.81c0,0,1.69,9.55,8.85,8.07s7.86-6.42,7.86-6.42a8.82,8.82,0,0,0,8,1.93c5.12-1.06,4.5-3.58,4.5-3.58a13,13,0,0,0,3.2.66l1.64-2.5s-3.35.85-5.17-4.82c0,0-2,6.42-6,7.08s-4.2-1-4.7-3.63l-1.48-2.88s-1.65,9.88-7.16,10.79-7.66-6.92-9.55-10.29c0,0-1.4,10.53-6.09,11.36S39,115.41,36,104.47,30.1,83.43,30.1,83.43Z"/><path class="cls-2" d="M67.77,80.43,71,110.59s.89-30,1-31,10.59-6.16,14.89,2.6L85.8,92.45l1.81-.24s3.13-10,4.86-10.54,10.13,1.81,11.2,8.4a9.91,9.91,0,0,0,2-1.66,4.12,4.12,0,0,0-.68,0s-.37-12.22-16.42-9c0,0-3.21-10.25-18.52-3.34,0,0-13-9.42-22.93,4.16a43.36,43.36,0,0,0-7.34-.11,12.36,12.36,0,0,1,7.67,8.25c2.1,7.83,5.49,20.67,5.92,26.55s1.73-3.85,1.73-3.85-4.19-28.61-4-28.9S59.79,73.68,67.77,80.43Z"/><path class="cls-2" d="M94.69,92.37c-.52.13-1.06.24-1.62.35.3,1.33,1.16,6.25-1.95,8-3.55,2-9.9-.76-10.78-7.24-1.15,0-1.86-.07-1.86-.07.9,8.56,9.22,12.27,13.83,9.63S94.69,92.37,94.69,92.37Z"/><path class="cls-2" d="M37.84,114.45a16.5,16.5,0,0,1-.67-1.69c-.13-.45-.22-.9-.32-1.35-3.37-3-7.44-6.79-7.44-6.79l6.84,3.73c-.11-.72-.2-1.45-.24-2.17L29.41,99s-.64-1.46-1.27,2.36,1.79,11.8,1.79,11.8,4.6.74,7.93,1.35C37.86,114.48,37.85,114.47,37.84,114.45Z"/><path class="cls-2" d="M84.12,120.81c-5.79-.22-13.17,4.29-13.91,4.54s-5-.65-8,.49c-3.65,1.42-5.21,5.69-5.21,5.69,5.35-2.8,9.09-1.81,9.09-1.81s-.1.21-.16.31a26.94,26.94,0,0,0-3.74,7.7c-1,3.06-.48,7.47-1.17,10.61a9,9,0,0,0,.62-.94c1.65-2.59,5-12,11.79-16.65,3.32-2.27,5.62-4.2,9.4-5.26,3-.84,6.84-1.47,9.76-2C90.44,120.81,88,121,84.12,120.81Z"/><path class="cls-2" d="M75.36,126.45c-1.13.49-1.8,2.44-2,3.52a8.41,8.41,0,0,0,.4,4.21c.45,1.59.76,3.3,2.09,4.36a11.33,11.33,0,0,0,5.53,2.61c-1.12,0-2.11-1.87-2.76-2.64a22.28,22.28,0,0,1-2.67-3.3c-.72-1.29,5.18-9.81,6.63-11.57C80.83,123.52,76.86,125.8,75.36,126.45Z"/><path class="cls-2" d="M80.9,124.13c-1.77,1.15-1.5,4.86-.61,6.45a7.87,7.87,0,0,0,5.92,3.63c-1.6-.38-3-2.94-3.57-4.31-.94-2.09.06-4.61,1.45-6.28C82.91,123.65,81.88,123.49,80.9,124.13Z"/><path class="cls-1" d="M163.43,206.14s21.49,12.59,50.13,0c0,0-2.55-39.43-2.22-42.56s33.59-40.42,32.85-42.15-8.77-23-10.25-28.4-6.05-4.57-6.05-4.57-.37-12.22-16.42-9c0,0-3.22-10.25-18.53-3.34,0,0-13-9.42-22.92,4.16,0,0-15.23-1.81-18.28,4.94s-2.47,37,0,45.28,13.3,28.23,13.17,31.69S163.43,206.14,163.43,206.14Z"/><path class="cls-1" d="M189,89.43c.7,5.26.56,10.89,1.1,16.21,2.32-.24,4.69-.45,7.06-.65l-.23-12.3c-.11-1.67-.81-4.74-.68-6.41L197.73,75c-1.29.38-3.26.42-4.79,1.11a19.29,19.29,0,0,0-7.59-3,36.35,36.35,0,0,1,1.17,6.16C186.75,82.81,188.54,86,189,89.43Z"/><path class="cls-1" d="M206,93.88h7.25a4.45,4.45,0,0,0,.06-.72,22.2,22.2,0,0,1,4.45-12.83l0-.06a31.06,31.06,0,0,0-4.47.48,19.38,19.38,0,0,0-6.61-4.8c0,2.1,1.29,7.3.9,9.35C207,88.74,206.07,93.46,206,93.88Z"/><path class="cls-1" d="M228.31,89.92a7.22,7.22,0,0,1-1-1.46A38.47,38.47,0,0,1,225,83.38c-.79,2.11-1.66,4.55-2.51,5.56s-1.88,2.25-2.81,3.34C222.6,91.56,225.47,90.78,228.31,89.92Z"/><path class="cls-1" d="M168.8,94.89c1,3.59,1.52,10.47,2.79,14.19,3-.69,6-1.36,9-2-.48-6.21-3-10.44-3.84-16.43-.61-4.37-.48-11.21-1.19-15.65a19.35,19.35,0,0,0-5.5,5.23,44.44,44.44,0,0,1-6.81.94C164,82.82,167.62,90.61,168.8,94.89Z"/><path class="cls-1" d="M153.83,92.4c.4.84.85,1.7,1.39,2.61a16.93,16.93,0,0,1,2.09,4.45c1,4.09,1.77,8.28,2.52,12.45l5.59-1.37c-1.28-3.67-5.57-9-6.52-12.4-1-3.68-1.93-13.58-3.05-15.81-1.89.62-2.44.44-3.48,1.84C152.91,86.88,153.45,89.64,153.83,92.4Z"/><path class="cls-1" d="M160.79,133.89c3.43,5.84,11,9.16,16.83,12.13,6.73,3.41,13.68,3.77,20.95,1.79,6.61-1.8,13.36-4.34,17.15-10.51,2.53-4.11,3.15-8.76,7.13-11.87a26.93,26.93,0,0,1,6.33-3.64c-1.86-4.92-1.64-17.48-2.09-19.45-3.6,1.86-8.38,2.23-12.41,2.55-6.71.54-12.55-2.55-14.57-5-1-1.16-1.47,2.7-3.49,2.06v5.33l-37.13,1.12L154.93,96.6,151.31,104C153,114.36,155.49,124.86,160.79,133.89Z"/><path class="cls-2" d="M214.29,81c4.3-.86,7.46-.61,9.8.21-2.14-1.66-5.5-2.74-10.76-2A7.7,7.7,0,0,1,214.29,81Z"/><path class="cls-2" d="M232.35,90a4.92,4.92,0,0,0-1.8-1.22,8.87,8.87,0,0,1,.16,1.18A5,5,0,0,1,232.35,90Z"/><path class="cls-2" d="M195.76,77.62c6-2.72,10.19-2.78,13-1.85-2.56-2-7.31-3.49-15.77.32A16.61,16.61,0,0,1,195.76,77.62Z"/><path class="cls-2" d="M152.56,112.41c-.28-10.6.53-18.6,2.25-22.4,3.05-6.75,16.4-5,16.4-5,7-9.56,17.12-11,21.54-9-1.61-1.08-13.47-8.34-22.73,4.29,0,0-15.23-1.81-18.28,4.94-1.8,4-2.33,16.19-2,27.2Z"/><path class="cls-2" d="M210.94,181.84c-.65,11.73-2.6,25.67-17.68,25.43-5.76-.1-14.43,1-19-3.45-4.43-4.29-4.92-10.28-4.91-16.17,0-9.5.4-20,5.52-27.76H164.39a7.75,7.75,0,0,1,.52,2.29c-.12,3.46-1.48,44-1.48,44s21.49,12.59,50.13,0c0,0-1.17-18.16-1.82-30.81A53.08,53.08,0,0,0,210.94,181.84Z"/><path class="cls-1" d="M205.22,159.88c-5.44,3-10.63,3.08-16.75,3.05a29.7,29.7,0,0,1-14.08-3.61l-.17-.07a17.38,17.38,0,0,1-6.9-5.22c-.44-.44-.86-.89-1.27-1.36a19,19,0,0,0,3,7.2,49,49,0,0,1,5.82,9.6c3.48,8,3.3,16.87,1.57,25.31-.84,4.13-3.31,9.48-4.73,14.65a58.73,58.73,0,0,0,29.55.76c-3.44-7.44-1.34-18.15.94-26.78a50.33,50.33,0,0,1,2.63-18.24,31.09,31.09,0,0,1,3.19-6.4c.19-.42.42-.82.62-1.24A23,23,0,0,1,205.22,159.88Z"/><path class="cls-1" d="M220.16,109.06c-7.74,2-14.24-1.92-18.55-8.07,1.45,2.07.32.66-.26.13a16.76,16.76,0,0,1-2.95-3.5,14.12,14.12,0,0,1-1-1.94,11.5,11.5,0,0,1-3.72-2.42c-.19-.18-.35-.38-.52-.57A10.94,10.94,0,0,1,182,102a11.1,11.1,0,0,1-7.63-2.73,10.81,10.81,0,0,1-10.77,7.55,11.57,11.57,0,0,1-6-1.57,45.38,45.38,0,0,1,1.83,4.74c1.47,4.49,2.91,8,6.61,11.12a12.36,12.36,0,0,1,2.75,3.16c3-.59,5.86-1,8.3-1.56,6.15-1.29,11.9-1.23,17.36-4.59,2.34-1.43,5.9-1.55,8.89-1.48a10.47,10.47,0,0,1,9.56-1.41c-.1,0,.81.08,1.87.16a11.13,11.13,0,0,1,1.74-2.22,22.27,22.27,0,0,1,3.75-3.16l1-.68.35-.78C221.09,108.76,220.62,108.94,220.16,109.06Z"/><path class="cls-1" d="M203.75,209.6c-.19-.89-.44-10.14-.81-17s1.24-11,1.24-11c-3.94,1.6-9,29.53-9,29.7A62.55,62.55,0,0,0,203.75,209.6Z"/><path class="cls-1" d="M193.07,211.5c0-.06-2.35-9.45-3.46-14.62s-2.47-18.65-2.47-18.65c-2.15.91-2.64,28.72-2.71,33.4A58.7,58.7,0,0,0,193.07,211.5Z"/><path class="cls-1" d="M181.75,166.51c-3.77,3.25-6.86,9.39-8,13a127.24,127.24,0,0,0-3.08,14.61A66,66,0,0,1,167,207.8a55.2,55.2,0,0,0,16.15,3.75c-.3-8.06-3-34.49-3-36.53A54.59,54.59,0,0,1,181.75,166.51Z"/><path class="cls-2" d="M165.77,177.18c.62-5.31,3.93-14.19,7.21-14.57,21.16-2.45,22.21-5.64,22.21-5.64-14.95,2.92-19.52-.24-19.52-.24l5.85-3.5s-14.6,2-24.15-19.26c-.37-.83,6.06,2.35,6.06,2.35-6.87-5.44-8.75-10.84-9.26-13.1-.28-1.27-.52-2.5-.7-3.69-.1-.58,1.94.35,3.65.77,2.12.53,4.23.58,3.37.31a10.67,10.67,0,0,1-7.67-8.61,50.23,50.23,0,0,1,2.84-17.11c.63-2-3.36-9.14-.27-13.06a7.15,7.15,0,0,0-3.65,3.38c-3,6.66-2.48,36.26-.09,44.94,3.35,10.8,10.88,23,12,27.75a14.27,14.27,0,0,1,1.26,4.28c0,1.59-.37,11-.7,20.77A24.89,24.89,0,0,0,165.77,177.18Z"/><path class="cls-2" d="M195.19,199.1s-2.7-32.34-6.16-36.16c0,0,13.11-1.63,19.84-6.19a34.08,34.08,0,0,1,6.67-3.34s-4.82,6.14-8,8.49c-4.24,3.16-8.21,11.64-8.7,17.44S196,197.06,195.19,199.1Z"/><path class="cls-2" d="M168.12,129.42s8.65-5.89,10.25-12.31,4.45.25,2.47,4.07S171,133,168.12,129.42Z"/><path class="cls-2" d="M227.09,120.07s-7.25,1.61-10.46.13c0,0,.2,3,5.37,8.2,0,0-10.51-3.77-12.14-11.25,0,0,1.85-5.85,5.68-6.83s8.52-2.1,9.14-6.3c0,0,.06,2.47.37,2.53a15.88,15.88,0,0,0,2-.18s-3.52,6-8.34,9.5C218.75,115.87,223.94,119.21,227.09,120.07Z"/><path class="cls-2" d="M220.68,151.15c1.51-1.79,3.12-3.77,4.73-5.86,9.1-11,19.19-22.9,18.78-23.86-.74-1.73-8.77-23-10.25-28.4-1.11-4.07-3.95-4.61-5.31-4.62-10.62,3.9-29.51.42-33,3s-1.2,13.46,11,18.9,18.07-5.44,18.07-5.44c-14.53,11-23.17-5.59-24.49-7.49s1.23-2.14,1.23-2.14c11.12,2.84,27.79-3.08,28.53-3.08s8.27,28.77,8.27,29.14-4.32,4-7.53,5.82c-2.63,1.54-21.69,32.79-22.12,33.43-1,1.42,1.08,15.63,1.2,24.91a43.3,43.3,0,0,1-7.18,24.42,67.86,67.86,0,0,0,10.93-3.75s-2.55-39.43-2.22-42.56C211.42,162.85,216.22,156.7,220.68,151.15Z"/><path class="cls-2" d="M153,83.43s1.41,13.8,4.49,24.42,6.18,16.3,10.62,16.54,9-.71,9.31-8.81c0,0,1.68,9.55,8.84,8.07s7.87-6.42,7.87-6.42a8.81,8.81,0,0,0,8,1.93c5.13-1.06,4.51-3.58,4.51-3.58a12.91,12.91,0,0,0,3.19.66l1.65-2.5s-3.35.85-5.17-4.82c0,0-2.06,6.42-6,7.08s-4.19-1-4.69-3.63l-1.48-2.88s-1.65,9.88-7.17,10.79-7.65-6.92-9.54-10.29c0,0-1.4,10.53-6.1,11.36s-9.38-5.94-12.43-16.88S153,83.43,153,83.43Z"/><path class="cls-2" d="M190.68,80.43l3.23,30.16s.88-30,1.05-31,10.59-6.16,14.88,2.6l-1.13,10.24,1.81-.24s3.13-10,4.86-10.54,10.12,1.81,11.19,8.4a10.11,10.11,0,0,0,2-1.66,4,4,0,0,0-.68,0s-.37-12.22-16.42-9c0,0-3.22-10.25-18.53-3.34,0,0-13-9.42-22.92,4.16a43.36,43.36,0,0,0-7.34-.11,12.4,12.4,0,0,1,7.67,8.25c2.09,7.83,5.49,20.67,5.92,26.55s1.73-3.85,1.73-3.85-4.2-28.61-3.95-28.9S182.69,73.68,190.68,80.43Z"/><path class="cls-2" d="M217.6,92.37c-.52.13-1.07.24-1.62.35.3,1.33,1.16,6.25-1.95,8-3.56,2-9.91-.76-10.78-7.24-1.15,0-1.87-.07-1.87-.07.91,8.56,9.22,12.27,13.83,9.63S217.6,92.37,217.6,92.37Z"/><path class="cls-2" d="M161.66,112.27a7.11,7.11,0,0,0,7.37,4.58c5.6-.52,6.91-6.12,6.91-7.52s-2.47-13.83-2.47-13.83.91,14.82-3.37,17.2S162.25,113.42,161.66,112.27Z"/><path class="cls-2" d="M176.77,110.81s3.95,6,9.63,5.43,7.39-6.75,7.39-6.75l-.68-6.31s-1.17,9.68-7.12,10.35-10.05-9.14-10.05-9.14Z"/><path class="cls-2" d="M193.72,108.89s.39,4.13,5.52,4.06,6.67-2.14,7.08-4l-2-2.06s-2.3,4.44-5.18,4-6-6.9-6-6.9Z"/><path class="cls-2" d="M160.75,114.45a14.54,14.54,0,0,1-.68-1.69c-.12-.45-.21-.9-.31-1.35-3.37-3-7.45-6.79-7.45-6.79l6.85,3.73c-.11-.72-.2-1.45-.24-2.17L152.31,99s-.63-1.46-1.27,2.36,1.79,11.8,1.79,11.8,4.6.74,7.94,1.35Z"/><path class="cls-2" d="M207,120.81c-5.8-.22-13.17,4.29-13.92,4.54s-5-.65-8,.49c-3.64,1.42-5.21,5.69-5.21,5.69,5.35-2.8,9.1-1.81,9.1-1.81s-.11.21-.16.31a26.68,26.68,0,0,0-3.74,7.7c-1,3.06-.48,7.47-1.17,10.61a9,9,0,0,0,.62-.94c1.64-2.59,5-12,11.78-16.65,3.32-2.27,5.63-4.2,9.4-5.26,3-.84,6.85-1.47,9.77-2C213.34,120.81,210.94,121,207,120.81Z"/><path class="cls-2" d="M198.27,126.45c-1.13.49-1.8,2.44-2,3.52a8.52,8.52,0,0,0,.4,4.21c.46,1.59.76,3.3,2.09,4.36a11.37,11.37,0,0,0,5.54,2.61c-1.12,0-2.11-1.87-2.76-2.64a22.35,22.35,0,0,1-2.68-3.3c-.72-1.29,5.18-9.81,6.63-11.57C203.74,123.52,199.76,125.8,198.27,126.45Z"/><path class="cls-2" d="M203.81,124.13c-1.77,1.15-1.5,4.86-.61,6.45a7.85,7.85,0,0,0,5.91,3.63c-1.59-.38-3-2.94-3.57-4.31-.94-2.09.07-4.61,1.45-6.28C205.82,123.65,204.79,123.49,203.81,124.13Z"/><path class="cls-1" d="M91.68,217.31s27.55,16.15,64.29,0c0,0-3.27-50.57-2.85-54.58s43.08-51.84,42.13-54S184,79.22,182.1,72.25s-7.76-5.86-7.76-5.86-.47-15.67-21.06-11.56c0,0-4.12-13.14-23.75-4.27,0,0-16.63-12.09-29.41,5.33,0,0-19.53-2.32-23.43,6.33s-3.17,47.51,0,58.07,17,36.21,16.89,40.64S91.68,217.31,91.68,217.31Z"/><path class="cls-1" d="M124.47,67.64c.9,6.74.72,14,1.41,20.79,3-.32,6-.58,9.05-.84l-.29-15.77c-.14-2.14-1-6.08-.88-8.22l1.9-14.42c-1.65.48-4.18.54-6.13,1.42a24.73,24.73,0,0,0-9.74-3.84,46.63,46.63,0,0,1,1.5,7.9C121.59,59.14,123.88,63.19,124.47,67.64Z"/><path class="cls-1" d="M146.28,73.34h9.3a5,5,0,0,0,.08-.92A28.51,28.51,0,0,1,161.36,56l.06-.08a41.36,41.36,0,0,0-5.74.61,24.78,24.78,0,0,0-8.47-6.15c0,2.69,1.65,9.36,1.16,12C147.54,66.75,146.36,72.81,146.28,73.34Z"/><path class="cls-1" d="M174.88,68.26a8.7,8.7,0,0,1-1.26-1.86,49.59,49.59,0,0,1-2.94-6.53c-1,2.72-2.12,5.84-3.21,7.14s-2.42,2.88-3.6,4.28C167.56,70.37,171.24,69.37,174.88,68.26Z"/><path class="cls-1" d="M98.57,74.64c1.27,4.6,2,13.43,3.57,18.19,3.82-.88,7.65-1.74,11.5-2.51-.62-8-3.86-13.39-4.93-21.07-.78-5.6-.61-14.37-1.53-20.07a25.11,25.11,0,0,0-7.06,6.71,55.61,55.61,0,0,1-8.72,1.2C92.38,59.16,97.05,69.16,98.57,74.64Z"/><path class="cls-1" d="M79.37,71.45c.51,1.07,1.08,2.17,1.78,3.34a21,21,0,0,1,2.67,5.72c1.29,5.24,2.28,10.61,3.25,16l7.16-1.76C92.59,90,87.09,83.2,85.86,78.81c-1.32-4.72-2.47-17.42-3.9-20.28-2.42.8-3.13.56-4.47,2.36C78.18,64.37,78.88,67.9,79.37,71.45Z"/><path class="cls-1" d="M88.3,124.65c4.39,7.49,14,11.75,21.57,15.56,8.64,4.37,17.56,4.84,26.87,2.3,8.48-2.31,17.13-5.57,22-13.49,3.24-5.26,4-11.22,9.14-15.22a35.07,35.07,0,0,1,8.11-4.66c-2.37-6.31-2.09-22.41-2.68-25-4.6,2.39-10.73,2.86-15.9,3.28-8.61.69-16.1-3.28-18.69-6.38-1.24-1.49-1.89,3.47-4.48,2.65v6.83L86.62,92,80.78,76.83,76.13,86.3C78.34,99.61,81.5,113.07,88.3,124.65Z"/><path class="cls-2" d="M156.9,56.77c5.51-1.1,9.57-.78,12.58.28-2.75-2.13-7.06-3.52-13.81-2.61A9.64,9.64,0,0,1,156.9,56.77Z"/><path class="cls-2" d="M180.07,68.38a6.38,6.38,0,0,0-2.31-1.57,10.79,10.79,0,0,1,.2,1.52A6.71,6.71,0,0,1,180.07,68.38Z"/><path class="cls-2" d="M133.15,52.5c7.73-3.5,13-3.57,16.67-2.38-3.28-2.62-9.37-4.47-20.22.41A21.36,21.36,0,0,1,133.15,52.5Z"/><path class="cls-2" d="M77.73,97.11c-.35-13.59.69-23.85,2.89-28.73,3.91-8.66,21-6.41,21-6.41,9-12.25,22-14,27.63-11.58-2.07-1.39-17.28-10.7-29.16,5.5,0,0-19.53-2.32-23.43,6.33-2.31,5.12-3,20.76-2.52,34.89Z"/><path class="cls-2" d="M152.6,186.15c-.83,15-3.33,32.92-22.66,32.61-7.4-.12-18.51,1.27-24.38-4.42-5.67-5.5-6.3-13.19-6.29-20.74,0-12.19.51-25.58,7.07-35.6H92.91a10,10,0,0,1,.67,2.93c-.16,4.44-1.9,56.38-1.9,56.38s27.55,16.15,64.29,0c0,0-1.5-23.28-2.34-39.51A69.48,69.48,0,0,0,152.6,186.15Z"/><path class="cls-1" d="M145.28,158c-7,3.89-13.64,3.94-21.49,3.91a38.11,38.11,0,0,1-18.05-4.64l-.22-.08a22.38,22.38,0,0,1-8.86-6.69c-.56-.57-1.1-1.15-1.62-1.75A24.33,24.33,0,0,0,98.85,158a63,63,0,0,1,7.46,12.31c4.46,10.3,4.24,21.64,2,32.46-1.09,5.3-4.25,12.16-6.07,18.79a75.32,75.32,0,0,0,37.89,1c-4.41-9.55-1.72-23.28,1.21-34.35a64.41,64.41,0,0,1,3.37-23.39,39.75,39.75,0,0,1,4.09-8.2c.25-.55.54-1.06.8-1.6A29.07,29.07,0,0,1,145.28,158Z"/><path class="cls-1" d="M164.43,92.81c-9.93,2.54-18.26-2.47-23.79-10.35,1.86,2.65.41.84-.33.17a21.36,21.36,0,0,1-3.78-4.49,17.53,17.53,0,0,1-1.26-2.48,14.64,14.64,0,0,1-4.77-3.11c-.24-.24-.45-.49-.67-.73-1.19,6.39-6,12-14.4,12a14.27,14.27,0,0,1-9.79-3.5C103.82,85.68,99.22,90,91.84,90a14.83,14.83,0,0,1-7.71-2,56.69,56.69,0,0,1,2.36,6.09c1.88,5.76,3.73,10.28,8.47,14.26a15.91,15.91,0,0,1,3.52,4.05c3.81-.76,7.53-1.34,10.66-2,7.88-1.65,15.25-1.58,22.25-5.88,3-1.85,7.58-2,11.4-1.91a13.45,13.45,0,0,1,12.26-1.81c-.13,0,1,.11,2.41.22a13.48,13.48,0,0,1,2.23-2.85,28.14,28.14,0,0,1,4.8-4l1.29-.88c.13-.29.28-.63.44-1C165.62,92.42,165,92.66,164.43,92.81Z"/><path class="cls-1" d="M143.38,221.75c-.24-1.14-.55-13-1-21.86s1.59-14.09,1.59-14.09c-5.05,2-11.49,37.88-11.53,38.09A79.86,79.86,0,0,0,143.38,221.75Z"/><path class="cls-1" d="M129.69,224.18c0-.08-3-12.12-4.44-18.75s-3.17-23.91-3.17-23.91c-2.75,1.16-3.38,36.83-3.47,42.83A75.48,75.48,0,0,0,129.69,224.18Z"/><path class="cls-1" d="M115.18,166.49c-4.84,4.16-8.81,12-10.21,16.7a161.67,161.67,0,0,0-4,18.74,84.45,84.45,0,0,1-4.8,17.5,69.68,69.68,0,0,0,20.7,4.81c-.38-10.33-3.85-44.22-3.85-46.84C113.06,175.16,114.46,169.33,115.18,166.49Z"/><path class="cls-2" d="M94.68,180.18c.79-6.81,5-18.21,9.25-18.69,27.13-3.14,28.48-7.24,28.48-7.24-19.18,3.75-25-.3-25-.3l7.5-4.49s-18.72,2.52-31-24.7c-.48-1.06,7.77,3,7.77,3-8.81-7-11.22-13.91-11.87-16.8-.37-1.62-.67-3.2-.91-4.74-.12-.74,2.5.46,4.68,1,2.73.67,5.43.74,4.33.39-8-2.6-9.82-9.5-9.84-11a64.6,64.6,0,0,1,3.64-21.94c.81-2.53-4.31-11.72-.34-16.75a9.15,9.15,0,0,0-4.68,4.33c-3.86,8.55-3.19,46.51-.12,57.63,4.3,13.86,14,29.56,15.39,35.59a18.61,18.61,0,0,1,1.62,5.49c-.07,2-.48,14.16-.9,26.64A32,32,0,0,0,94.68,180.18Z"/><path class="cls-2" d="M132.41,208.28s-3.46-41.47-7.9-46.38c0,0,16.82-2.09,25.45-7.93a43.24,43.24,0,0,1,8.55-4.28s-6.18,7.88-10.23,10.89c-5.44,4-10.52,14.92-11.15,22.37S133.39,205.67,132.41,208.28Z"/><path class="cls-2" d="M97.7,118.92s11.08-7.55,13.14-15.79,5.7.32,3.17,5.23S101.34,123.51,97.7,118.92Z"/><path class="cls-2" d="M173.31,106.93s-9.29,2.07-13.4.17c0,0,.26,3.88,6.89,10.51,0,0-13.49-4.82-15.58-14.42,0,0,2.38-7.5,7.29-8.77s10.92-2.69,11.72-8.07c0,0,.07,3.16.47,3.24a19.7,19.7,0,0,0,2.61-.23s-4.51,7.76-10.69,12.19C162.62,101.55,169.28,105.83,173.31,106.93Z"/><path class="cls-2" d="M165.09,146.79c1.95-2.3,4-4.83,6.08-7.51,11.67-14.06,24.6-29.37,24.08-30.6-.95-2.22-11.25-29.46-13.15-36.43-1.42-5.22-5.06-5.9-6.8-5.92-13.62,5-37.86.54-42.34,3.86s-1.53,17.27,14.14,24.23,23.18-7,23.18-7c-18.63,14.09-29.72-7.17-31.41-9.6s1.58-2.75,1.58-2.75c14.26,3.65,35.63-4,36.58-4s10.61,36.9,10.61,37.38S182.1,113.58,178,116c-3.36,2-27.81,42.05-28.36,42.87-1.22,1.82,1.39,20,1.54,31.94a55.52,55.52,0,0,1-9.22,31.32,87.49,87.49,0,0,0,14-4.81s-3.27-50.57-2.85-54.58C153.22,161.79,159.38,153.91,165.09,146.79Z"/><path class="cls-2" d="M78.31,59.94s1.81,17.7,5.77,31.32S92,112.16,97.7,112.48s11.5-.92,11.93-11.31c0,0,2.16,12.26,11.35,10.36s10.08-8.24,10.08-8.24,3.7,3.84,10.27,2.48,5.77-4.6,5.77-4.6a16.65,16.65,0,0,0,4.1.85l2.11-3.2s-4.3,1.08-6.63-6.19c0,0-2.64,8.23-7.7,9.08s-5.38-1.27-6-4.65l-1.9-3.69S129,106,121.87,107.2s-9.82-8.87-12.24-13.2c0,0-1.8,13.51-7.82,14.57s-12-7.61-15.94-21.65S78.31,59.94,78.31,59.94Z"/><path class="cls-2" d="M126.62,56.1l4.14,38.67S131.9,56.31,132.11,55s13.58-7.9,19.09,3.34l-1.46,13.13,2.33-.31s4-12.88,6.23-13.52,13,2.33,14.35,10.77a12.91,12.91,0,0,0,2.57-2.12,5.59,5.59,0,0,0-.88.06s-.47-15.67-21.06-11.56c0,0-4.12-13.14-23.75-4.27,0,0-16.63-12.09-29.41,5.33a55.76,55.76,0,0,0-9.4-.14,15.89,15.89,0,0,1,9.83,10.58c2.69,10,7,26.51,7.59,34.05s2.22-4.94,2.22-4.94S105,58.75,105.3,58.38,116.38,47.44,126.62,56.1Z"/><path class="cls-2" d="M161.15,71.41c-.67.17-1.37.31-2.08.44.38,1.71,1.48,8-2.5,10.31-4.56,2.6-12.71-1-13.83-9.29-1.47,0-2.39-.09-2.39-.09,1.16,11,11.82,15.73,17.73,12.35S161.15,71.41,161.15,71.41Z"/><path class="cls-2" d="M88.24,99.72a20.29,20.29,0,0,1-.87-2.16c-.16-.58-.27-1.16-.4-1.74-4.32-3.91-9.55-8.71-9.55-8.71L86.2,91.9C86.06,91,86,90,85.89,89.11l-8.47-9.22s-.81-1.86-1.63,3,2.3,15.14,2.3,15.14,5.9,1,10.18,1.73Z"/><path class="cls-2" d="M147.59,107.88c-7.43-.29-16.89,5.51-17.84,5.82s-6.44-.84-10.21.64c-4.68,1.82-6.68,7.29-6.68,7.29,6.86-3.59,11.66-2.33,11.66-2.33s-.13.27-.2.41c-1.82,2.21-3.73,6.48-4.8,9.87-1.25,3.93-.62,9.58-1.51,13.61a11,11,0,0,0,.8-1.21c2.11-3.33,6.37-15.39,15.12-21.36,4.25-2.9,7.21-5.38,12-6.74,3.84-1.07,8.78-1.88,12.53-2.56C155.69,107.88,152.61,108.07,147.59,107.88Z"/><path class="cls-2" d="M136.35,115.11c-1.44.63-2.3,3.14-2.58,4.52a10.72,10.72,0,0,0,.52,5.4c.58,2,1,4.22,2.68,5.58,1.95,1.55,4.62,3.15,7.1,3.36-1.44.05-2.71-2.4-3.55-3.39a29,29,0,0,1-3.43-4.23c-.92-1.66,6.64-12.59,8.5-14.84C143.37,111.35,138.27,114.27,136.35,115.11Z"/><path class="cls-2" d="M143.46,112.14c-2.27,1.47-1.92,6.23-.78,8.27,1.31,2.34,4.84,4.67,7.59,4.65-2.05-.49-3.8-3.77-4.59-5.52-1.2-2.68.09-5.92,1.87-8.06C146,111.53,144.72,111.32,143.46,112.14Z"/></svg>