<svg id="Слой_1" data-name="Слой 1" xmlns="http://www.w3.org/2000/svg" viewBox="0 0 270.96 270.96"><defs><style>.cls-1{fill:#fff;}</style></defs><path class="cls-1" d="M143.32,168.58a9,9,0,0,0-9-9h-2.9a174.14,174.14,0,0,1-7.69-45.69H90.51A174.78,174.78,0,0,1,83,159.56H80.19a9,9,0,0,0,0,18H134.3A9,9,0,0,0,143.32,168.58Z"/><path class="cls-1" d="M83.2,95.83a4.51,4.51,0,0,0,0,9h48.09a4.51,4.51,0,1,0,0-9h-1.5V91.32c0-2.58.67-4.34,1.7-4.51a4.51,4.51,0,0,0-.2-9,10,10,0,0,0-5.71,2,11.77,11.77,0,0,0-4.32,7h-9.51V81.53a13.53,13.53,0,1,0-9,0v5.28H93.23a11.82,11.82,0,0,0-4.32-7,10,10,0,0,0-5.71-2,4.51,4.51,0,0,0-.2,9c1,.17,1.7,1.93,1.7,4.51v4.51Z"/><path class="cls-1" d="M202.54,186.61H150.83a13.55,13.55,0,0,0-13.53,13.53v4.51a4.51,4.51,0,0,0,4.51,4.51h69.74a4.51,4.51,0,0,0,4.51-4.51v-4.51A13.54,13.54,0,0,0,202.54,186.61Z"/><path class="cls-1" d="M132.81,186.61H75.68c-7.46,0-13.53,4.57-13.53,12v6a4.51,4.51,0,0,0,4.51,4.51h62.4a13.48,13.48,0,0,1-.77-4.51v-4.51A22.44,22.44,0,0,1,132.81,186.61Z"/><path class="cls-1" d="M194.68,125.45a29.26,29.26,0,0,0,1.74-10.5,32.48,32.48,0,0,0-5.25-18.26,21.79,21.79,0,0,0-4-4.45,13.53,13.53,0,1,0-21,0,22.13,22.13,0,0,0-4,4.45A32.56,32.56,0,0,0,156.94,115a29.32,29.32,0,0,0,1.75,10.5Z"/><path class="cls-1" d="M151.13,151.64h51.1a4.51,4.51,0,1,0,0-9H199a14.1,14.1,0,0,1-5.81-8.16H160.09a13.38,13.38,0,0,1-5.65,8.16h-3.31a4.51,4.51,0,1,0,0,9Z"/><path class="cls-1" d="M156.6,177.6h40.18c-2.09-3.34-4.39-8.67-5.64-16.94H162.23c-1.25,8.28-3.54,13.6-5.63,16.94Z"/></svg>