<svg id="Слой_1" data-name="Слой 1" xmlns="http://www.w3.org/2000/svg" viewBox="0 0 270.96 270.96"><defs><style>.cls-1{fill:#1f2937;}.cls-2{fill:#fff;}</style></defs><path class="cls-1" d="M106.63,137.48l-5.93,10.27h11.84A17,17,0,0,0,106.63,137.48Z"/><path class="cls-1" d="M95.78,119.38a30.92,30.92,0,0,1,13.07,2.91l5-8.66L111.06,108H110a2.84,2.84,0,0,1,0-5.67h14.18a2.84,2.84,0,1,1,0,5.67H117.4l1.42,2.85H159l-9.14-27.47a2.32,2.32,0,0,1-.06-.45,3.43,3.43,0,0,1-.09-.44s0-.07,0-.11a3,3,0,0,1,.12-.6,2.64,2.64,0,0,1,.14-.48,2.14,2.14,0,0,1,.3-.44,2.29,2.29,0,0,1,.32-.43,2.57,2.57,0,0,1,.44-.29,2.25,2.25,0,0,1,.5-.29l.1-.06a3.93,3.93,0,0,1,.48-.06,2.84,2.84,0,0,1,.42-.08h11.34a2.84,2.84,0,0,1,0,5.67h-7.4l11.61,34.88a31,31,0,0,1,37.12,21.9L206.3,141A48.66,48.66,0,0,0,137.49,72.2a2.83,2.83,0,0,1-4,0A48.66,48.66,0,1,0,64.67,141l1.08,1.09A31,31,0,0,1,95.78,119.38Z"/><polygon class="cls-1" points="135.48 211.84 165.5 181.81 105.46 181.81 135.48 211.84"/><path class="cls-1" d="M95.78,127.89a22.69,22.69,0,0,1,8.81,1.78l1.42-2.46A25.48,25.48,0,0,0,70.55,146.9l2.6,2.6A22.7,22.7,0,0,1,95.78,127.89Z"/><path class="cls-1" d="M154.66,116.56l-16.55,35.11s0,0,0,.05l0,.07a2.51,2.51,0,0,1-.3.47c-.05.06-.08.14-.13.2l-.08.07a1.63,1.63,0,0,1-.2.17,3,3,0,0,1-.49.36s0,.05-.09.07,0,0-.08,0l-.22.08a2.78,2.78,0,0,1-1,.19h-8.66a31,31,0,0,1-13.16,22.72h43.68A31.15,31.15,0,0,1,162.67,122l-1.82-5.46Z"/><path class="cls-1" d="M112.54,153.42H95.79a2.74,2.74,0,0,1-1-.19l-.25-.11a1.67,1.67,0,0,1-.2-.08,2.62,2.62,0,0,1-.25-.22,2.43,2.43,0,0,1-.45-.4,2.28,2.28,0,0,1-.3-.44,2.56,2.56,0,0,1-.23-.47,3.09,3.09,0,0,1-.12-.59,3.2,3.2,0,0,1-.07-.33.75.75,0,0,1,0-.16,2.74,2.74,0,0,1,.11-.57,3.31,3.31,0,0,1,.18-.53c0-.05,0-.11,0-.16l8.38-14.52a16.95,16.95,0,0,0-22,21.42l10.58,10.57a16.77,16.77,0,0,0,5.49,1A17,17,0,0,0,112.54,153.42Z"/><polygon class="cls-1" points="148.39 116.56 121.65 116.56 135.42 144.09 148.39 116.56"/><path class="cls-1" d="M121.13,153.42h-2.86a22.69,22.69,0,0,1-21.41,19.79l2.6,2.6A25.33,25.33,0,0,0,121.13,153.42Z"/><path class="cls-1" d="M126.83,147.75h4.07l-14-28-3.13,5.42A31.15,31.15,0,0,1,126.83,147.75Z"/><path class="cls-1" d="M175.18,127.89a22.78,22.78,0,1,1-9.8,2.26l-.9-2.71a25.47,25.47,0,1,0,10.7-2.38,25.88,25.88,0,0,0-5.32.56l.9,2.71A23,23,0,0,1,175.18,127.89Z"/><path class="cls-1" d="M110.91,130.07l-1.43,2.47a22.64,22.64,0,0,1,8.79,15.21h2.87A25.54,25.54,0,0,0,110.91,130.07Z"/><path class="cls-1" d="M176.08,153.28a2.86,2.86,0,0,1-3.59-1.8l-5.3-15.91a17,17,0,1,0,8-2,15.91,15.91,0,0,0-2.6.22l5.3,15.9A2.85,2.85,0,0,1,176.08,153.28Z"/><path class="cls-2" d="M95.63,179.08A2.84,2.84,0,0,1,98.19,176c.43,0,.84-.12,1.27-.18l-2.6-2.6c-.36,0-.71,0-1.08,0a22.65,22.65,0,0,1-8-1.45,2.77,2.77,0,0,1-.94-.59L96.61,181s0,0,0,0A2.78,2.78,0,0,1,95.63,179.08Z"/><path class="cls-2" d="M135.48,211.84l-30-30H98.62a2.82,2.82,0,0,1-2-.82l36.86,36.86a2.79,2.79,0,0,0,2,.83,2.84,2.84,0,0,0,2-.83l36-36h-8Z"/><path class="cls-2" d="M171.9,52.28a54,54,0,0,0-36.42,14A54.33,54.33,0,0,0,60.66,145L86.83,171.2a2.84,2.84,0,0,1,3-4.7,4.67,4.67,0,0,0,.5.14L79.71,156.07c.06.16.08.33.14.49a2.84,2.84,0,0,1-5.31,2,22.58,22.58,0,0,1-1.44-8c0-.36,0-.72.05-1.08l-2.6-2.6c-.06.43-.14.84-.18,1.27a2.84,2.84,0,0,1-5.65-.53,32.46,32.46,0,0,1,1-5.54L64.67,141A48.66,48.66,0,0,1,133.48,72.2a2.83,2.83,0,0,0,4,0A48.66,48.66,0,0,1,206.3,141l-1.12,1.13a30.78,30.78,0,0,1,1.11,6.9l4-4A54.33,54.33,0,0,0,171.9,52.28Z"/><path class="cls-1" d="M113.68,176.14a31,31,0,0,0,13.16-22.72h-5.71a25.33,25.33,0,0,1-21.67,22.39l.33.33Z"/><path class="cls-2" d="M113.76,125.13l-2.85,4.94a25.54,25.54,0,0,1,10.23,17.68h5.69A31.15,31.15,0,0,0,113.76,125.13Z"/><path class="cls-2" d="M95.78,125.06A25.5,25.5,0,0,1,106,127.21l2.84-4.92a31.12,31.12,0,0,0-43.1,19.81l4.8,4.8A25.37,25.37,0,0,1,95.78,125.06Z"/><path class="cls-2" d="M64.72,147.64a2.84,2.84,0,0,0,5.65.53c0-.43.12-.84.18-1.27l-4.8-4.8A32.46,32.46,0,0,0,64.72,147.64Z"/><path class="cls-2" d="M98.62,176.14h1.17l-.33-.33c-.43.06-.84.14-1.27.18a2.84,2.84,0,0,0-2.56,3.09,2.78,2.78,0,0,0,1,1.85,2.8,2.8,0,0,1-.8-2A2.84,2.84,0,0,1,98.62,176.14Z"/><path class="cls-2" d="M118.27,153.42h-5.73a17,17,0,0,1-16.76,14.17,16.77,16.77,0,0,1-5.49-1l6.57,6.57A22.69,22.69,0,0,0,118.27,153.42Z"/><path class="cls-2" d="M109.48,132.54l-2.85,4.94a17,17,0,0,1,5.91,10.27h5.73A22.64,22.64,0,0,0,109.48,132.54Z"/><path class="cls-2" d="M95.78,133.57a16.91,16.91,0,0,1,5.93,1.08l2.88-5A22.66,22.66,0,0,0,73.15,149.5l6.56,6.57a16.94,16.94,0,0,1,16.07-22.5Z"/><path class="cls-2" d="M86.85,171.22l0,0Z"/><path class="cls-2" d="M95.78,173.26c.37,0,.72,0,1.08,0l-6.57-6.57a4.67,4.67,0,0,1-.5-.14,2.84,2.84,0,0,0-3,4.7l0,0a2.77,2.77,0,0,0,.94.59A22.65,22.65,0,0,0,95.78,173.26Z"/><path class="cls-2" d="M73.1,150.58a22.58,22.58,0,0,0,1.44,8,2.84,2.84,0,0,0,5.31-2c-.06-.16-.08-.33-.14-.49l-6.56-6.57C73.14,149.86,73.1,150.22,73.1,150.58Z"/><path class="cls-2" d="M201.4,149.92a2.85,2.85,0,0,1,0-4l3.78-3.77a31,31,0,0,0-37.12-21.9l1.8,5.38a25.88,25.88,0,0,1,5.32-.56,25.6,25.6,0,1,1-10.7,2.38L162.67,122a31.15,31.15,0,0,0-5.31,54.12H193a31.16,31.16,0,0,0,13.37-25.56c0-.52-.05-1-.08-1.54l-.88.88A2.83,2.83,0,0,1,201.4,149.92Z"/><path class="cls-2" d="M172.34,176.14h0Z"/><path class="cls-2" d="M201.4,145.91a2.84,2.84,0,0,0,4,4l.88-.88a30.78,30.78,0,0,0-1.11-6.9Z"/><path class="cls-2" d="M152.49,150.58a22.69,22.69,0,1,0,22.69-22.69,23,23,0,0,0-4.42.44l1.82,5.46a15.91,15.91,0,0,1,2.6-.22,17,17,0,1,1-8,2l-1.81-5.42A22.69,22.69,0,0,0,152.49,150.58Z"/><path class="cls-2" d="M151.61,79.83l-.1.06a2.71,2.71,0,0,1,.58-.12A3.93,3.93,0,0,0,151.61,79.83Z"/><path class="cls-2" d="M150,81.34a2.14,2.14,0,0,1,.3-.44A2.14,2.14,0,0,0,150,81.34Z"/><path class="cls-2" d="M152.51,85.36A2.79,2.79,0,0,1,149.76,83a2.32,2.32,0,0,0,.06.45L159,110.89h3.94a2.84,2.84,0,0,1,0,5.67h-2.05l1.82,5.46a31.23,31.23,0,0,1,5.39-1.78L156.45,85.36Z"/><path class="cls-2" d="M149.69,82.42a3,3,0,0,1,.12-.6A3,3,0,0,0,149.69,82.42Z"/><path class="cls-2" d="M172.49,151.48a2.84,2.84,0,1,0,5.39-1.79l-5.3-15.9a16.53,16.53,0,0,0-5.39,1.78Z"/><path class="cls-2" d="M150.57,80.47a2.57,2.57,0,0,1,.44-.29A2.57,2.57,0,0,0,150.57,80.47Z"/><path class="cls-2" d="M165.38,130.15a22.45,22.45,0,0,1,5.38-1.82l-.9-2.71a25.25,25.25,0,0,0-5.38,1.82Z"/><path class="cls-2" d="M164.48,127.44a25.25,25.25,0,0,1,5.38-1.82l-1.8-5.38a31.23,31.23,0,0,0-5.39,1.78Z"/><path class="cls-2" d="M172.58,133.79l-1.82-5.46a22.45,22.45,0,0,0-5.38,1.82l1.81,5.42A16.53,16.53,0,0,1,172.58,133.79Z"/><path class="cls-2" d="M155.2,81.63l1.25,3.73h7.4a2.84,2.84,0,0,0,0-5.67H152.51a2.84,2.84,0,0,0-.42.08A2.81,2.81,0,0,1,155.2,81.63Z"/><path class="cls-2" d="M149.67,82.53a3.43,3.43,0,0,0,.09.44,3.6,3.6,0,0,1-.07-.55S149.67,82.49,149.67,82.53Z"/><path class="cls-2" d="M151,80.18a2.25,2.25,0,0,1,.5-.29A2.25,2.25,0,0,0,151,80.18Z"/><path class="cls-2" d="M150.25,80.9a2.29,2.29,0,0,1,.32-.43A2.29,2.29,0,0,0,150.25,80.9Z"/><path class="cls-2" d="M149.81,81.82a2.64,2.64,0,0,1,.14-.48A2.64,2.64,0,0,0,149.81,81.82Z"/><path class="cls-2" d="M152.51,85.36h3.94l-1.25-3.73a2.81,2.81,0,0,0-3.11-1.86,2.71,2.71,0,0,0-.58.12,2.25,2.25,0,0,0-.5.29,2.57,2.57,0,0,0-.44.29,2.29,2.29,0,0,0-.32.43,2.14,2.14,0,0,0-.3.44,2.64,2.64,0,0,0-.14.48,3,3,0,0,0-.12.6,3.6,3.6,0,0,0,.07.55A2.79,2.79,0,0,0,152.51,85.36Z"/><path class="cls-2" d="M112.54,147.75H100.7L98.25,152a2.86,2.86,0,0,1-2.46,1.41h16.75a15.59,15.59,0,0,0,0-5.67Z"/><path class="cls-2" d="M94.82,153.23l-.25-.11Z"/><path class="cls-2" d="M93.37,152a2.92,2.92,0,0,1-.23-.47A2.56,2.56,0,0,0,93.37,152Z"/><polygon class="cls-2" points="135.49 153.42 135.49 153.42 135.49 153.42 135.49 153.42 135.49 153.42"/><path class="cls-2" d="M93,150.59a3.2,3.2,0,0,0,.07.33,2.69,2.69,0,0,1,0-.49A.75.75,0,0,0,93,150.59Z"/><path class="cls-2" d="M134.4,153.18s-.08,0-.12,0,0,0-.08-.06a2.75,2.75,0,0,1-.81-.6l0-.07a3.28,3.28,0,0,1-.39-.56l-2-4.11h-4.07c.08.93.14,1.87.14,2.82s0,1.91-.13,2.85h8.64A2.92,2.92,0,0,1,134.4,153.18Z"/><path class="cls-2" d="M136.46,153.23l.22-.08h-.06Z"/><path class="cls-2" d="M94.12,152.82a2.86,2.86,0,0,1-.45-.4A2.43,2.43,0,0,0,94.12,152.82Z"/><path class="cls-2" d="M138.11,151.67l0,.05S138.1,151.69,138.11,151.67Z"/><path class="cls-2" d="M93.1,149.86a2.55,2.55,0,0,1,.18-.53A3.31,3.31,0,0,0,93.1,149.86Z"/><path class="cls-2" d="M121.3,150.58a26.39,26.39,0,0,0-.16-2.83h-2.87a20.19,20.19,0,0,1,0,5.67h2.86A26.57,26.57,0,0,0,121.3,150.58Z"/><path class="cls-2" d="M137.54,152.53a1.63,1.63,0,0,1-.2.17A1.63,1.63,0,0,0,137.54,152.53Z"/><path class="cls-2" d="M126.83,147.75h-5.69a24.44,24.44,0,0,1,0,5.67h5.71c.08-.94.13-1.88.13-2.85S126.91,148.68,126.83,147.75Z"/><path class="cls-2" d="M118.27,147.75h-5.73a15.59,15.59,0,0,1,0,5.67h5.73a20.19,20.19,0,0,0,0-5.67Z"/><polygon class="cls-2" points="133.69 147.75 135.42 144.09 121.65 116.56 118.7 116.56 116.89 119.71 130.9 147.75 133.69 147.75"/><path class="cls-2" d="M137.75,152.26c-.05.06-.08.14-.13.2S137.7,152.32,137.75,152.26Z"/><polygon class="cls-2" points="135.49 153.42 135.5 153.42 135.5 153.42 135.5 153.42 135.49 153.42"/><path class="cls-2" d="M114.84,112a2.2,2.2,0,0,1,.84-.74,2.82,2.82,0,0,1,.46-.23,3.19,3.19,0,0,1,.6-.12,3.23,3.23,0,0,1,.33-.06h1.75L117.4,108h-6.34l2.79,5.59.76-1.33C114.67,112.2,114.77,112.14,114.84,112Z"/><path class="cls-2" d="M136.68,153.15s.06,0,.08,0,.06-.06.09-.07l-.11.05Z"/><path class="cls-2" d="M132.93,149.38l.76-1.63H130.9l2,4.11a3.28,3.28,0,0,0,.39.56A2.82,2.82,0,0,1,132.93,149.38Z"/><path class="cls-2" d="M134.2,153.09a2.9,2.9,0,0,1-.81-.6A2.75,2.75,0,0,0,134.2,153.09Z"/><path class="cls-2" d="M136.62,153.16h.06l.06,0Z"/><path class="cls-2" d="M135.48,153.42a2.81,2.81,0,0,1-1.08-.24A2.92,2.92,0,0,0,135.48,153.42Z"/><polygon class="cls-2" points="135.49 153.42 135.49 153.42 135.5 153.42 135.49 153.42"/><path class="cls-2" d="M148.39,116.56l1.9-4a2.82,2.82,0,0,1,2.67-1.62H118.82l2.83,5.67Z"/><path class="cls-2" d="M155.42,114.93l-.76,1.63h6.19L159,110.89h-6a2.73,2.73,0,0,1,1.09.27A2.83,2.83,0,0,1,155.42,114.93Z"/><path class="cls-2" d="M162.9,116.56a2.84,2.84,0,0,0,0-5.67H159l1.89,5.67Z"/><path class="cls-2" d="M116.74,111a2.74,2.74,0,0,1,1.74.32,2.82,2.82,0,0,1,1,3.87l-.82,1.42h3l-2.83-5.67h-1.75A3.23,3.23,0,0,0,116.74,111Z"/><path class="cls-2" d="M115.68,111.3a2.82,2.82,0,0,1,.46-.23A2.82,2.82,0,0,0,115.68,111.3Z"/><path class="cls-2" d="M114.84,112a2.73,2.73,0,0,1,.39-.44A2.73,2.73,0,0,0,114.84,112Z"/><path class="cls-2" d="M93,150.43a2.74,2.74,0,0,1,.11-.57A2.74,2.74,0,0,0,93,150.43Z"/><path class="cls-2" d="M93.14,151.51a3.86,3.86,0,0,1-.12-.59A3.09,3.09,0,0,0,93.14,151.51Z"/><path class="cls-2" d="M95.79,147.75h4.91l5.93-10.27a16.83,16.83,0,0,0-4.92-2.83l-8.38,14.52c0,.05,0,.11,0,.16A2.81,2.81,0,0,1,95.79,147.75Z"/><path class="cls-2" d="M116.89,119.71l-3-6.08-5,8.66a31,31,0,0,1,4.91,2.84Z"/><path class="cls-2" d="M93.67,152.42a2.28,2.28,0,0,1-.3-.44A2.28,2.28,0,0,0,93.67,152.42Z"/><path class="cls-2" d="M110.91,130.07a26,26,0,0,0-4.9-2.86l-1.42,2.46a23,23,0,0,1,4.89,2.87Z"/><path class="cls-2" d="M95.79,153.42h0a2.89,2.89,0,0,1-1-.19A2.74,2.74,0,0,0,95.79,153.42Z"/><path class="cls-2" d="M94.37,153a1.67,1.67,0,0,0,.2.08,3.2,3.2,0,0,1-.45-.3A2.62,2.62,0,0,0,94.37,153Z"/><path class="cls-2" d="M113.76,125.13a31,31,0,0,0-4.91-2.84L106,127.21a26,26,0,0,1,4.9,2.86Z"/><path class="cls-2" d="M109.48,132.54a23,23,0,0,0-4.89-2.87l-2.88,5a16.83,16.83,0,0,1,4.92,2.83Z"/><path class="cls-2" d="M98.25,152l2.45-4.26H95.79a2.81,2.81,0,0,0-2.51,1.58,2.55,2.55,0,0,0-.18.53,2.74,2.74,0,0,0-.11.57,2.69,2.69,0,0,0,0,.49,3.86,3.86,0,0,0,.12.59,2.92,2.92,0,0,0,.23.47,2.28,2.28,0,0,0,.3.44,2.86,2.86,0,0,0,.45.4,3.2,3.2,0,0,0,.45.3l.25.11a2.89,2.89,0,0,0,1,.19A2.86,2.86,0,0,0,98.25,152Z"/><path class="cls-2" d="M118.7,116.56h-1.63a2.84,2.84,0,0,1-2.84-2.84,2.78,2.78,0,0,1,.61-1.68c-.07.1-.17.16-.23.26l-.76,1.33,3,6.08Z"/><path class="cls-2" d="M115.23,111.6a2.35,2.35,0,0,1,.45-.3A2.71,2.71,0,0,0,115.23,111.6Z"/><path class="cls-2" d="M116.14,111.07a4,4,0,0,1,.6-.12A3.19,3.19,0,0,0,116.14,111.07Z"/><path class="cls-2" d="M118.48,111.27a2.74,2.74,0,0,0-1.74-.32,4,4,0,0,0-.6.12,2.82,2.82,0,0,0-.46.23,2.35,2.35,0,0,0-.45.3,2.73,2.73,0,0,0-.39.44,2.78,2.78,0,0,0-.61,1.68,2.84,2.84,0,0,0,2.84,2.84h1.63l.82-1.42A2.82,2.82,0,0,0,118.48,111.27Z"/><path class="cls-2" d="M153,110.89h0Z"/><path class="cls-2" d="M136.85,153.06a3,3,0,0,0,.49-.36,2.07,2.07,0,0,1-.24.17C137,152.93,137,153,136.85,153.06Z"/><path class="cls-2" d="M135.5,153.42a2.78,2.78,0,0,0,1-.19,2.73,2.73,0,0,1-1,.19Z"/><path class="cls-2" d="M137.75,152.26a2.51,2.51,0,0,0,.3-.47l0-.07a3.88,3.88,0,0,1-.23.33Z"/><path class="cls-2" d="M137.54,152.53l.08-.07-.06,0Z"/><path class="cls-2" d="M135.42,144.09l2.61,5.23s0,.06,0,.09a6.22,6.22,0,0,1,.26,1.09s0,.06,0,.09a2.83,2.83,0,0,1-.08.4,2.94,2.94,0,0,1-.12.59s0,.07,0,.09l16.55-35.11h-6.27Z"/><path class="cls-2" d="M133.39,152.49l0-.07Z"/><polygon class="cls-2" points="135.48 153.42 135.49 153.42 135.49 153.42 135.48 153.42"/><path class="cls-2" d="M137.1,152.87a2.07,2.07,0,0,0,.24-.17,1.63,1.63,0,0,0,.2-.17l0,0A3.38,3.38,0,0,1,137.1,152.87Z"/><path class="cls-2" d="M134.28,153.15s.09,0,.12,0l-.2-.09S134.25,153.14,134.28,153.15Z"/><path class="cls-2" d="M138.05,149.41a3.39,3.39,0,0,1,.15.52A2.85,2.85,0,0,0,138.05,149.41Z"/><path class="cls-2" d="M138.33,150.59s0-.06,0-.09a2.73,2.73,0,0,1-.06.49A2.83,2.83,0,0,0,138.33,150.59Z"/><path class="cls-2" d="M137.86,152.05a3.88,3.88,0,0,0,.23-.33l0-.05s0-.06,0-.09A2.73,2.73,0,0,1,137.86,152.05Z"/><path class="cls-2" d="M135.51,153.42a2.73,2.73,0,0,0,1-.19l.16-.07A3,3,0,0,1,135.51,153.42Z"/><path class="cls-2" d="M138.25,151a2.81,2.81,0,0,1-.12.59A2.94,2.94,0,0,0,138.25,151Z"/><path class="cls-2" d="M136.74,153.11l.11-.05c.1-.06.16-.13.25-.19C137,153,136.87,153,136.74,153.11Z"/><path class="cls-2" d="M135.5,153.42Z"/><path class="cls-2" d="M135.49,147.75a2.81,2.81,0,0,1,2.56,1.66s0-.06,0-.09l-2.61-5.23-1.73,3.66Z"/><path class="cls-2" d="M138.2,149.93a3.59,3.59,0,0,1,.11.57A2.87,2.87,0,0,0,138.2,149.93Z"/><path class="cls-2" d="M137.56,152.5l.06,0c0-.06.08-.14.13-.2l.11-.21A2.35,2.35,0,0,1,137.56,152.5Z"/><path class="cls-2" d="M135.49,147.75h-1.8l-.76,1.63a2.82,2.82,0,0,0,.41,3l0,.07a2.9,2.9,0,0,0,.81.6l.2.09a2.81,2.81,0,0,0,1.08.24h0a3,3,0,0,0,1.11-.26l.12,0c.13-.07.24-.16.36-.24a3.38,3.38,0,0,0,.46-.37,2.35,2.35,0,0,0,.3-.45,2.73,2.73,0,0,0,.27-.47,2.81,2.81,0,0,0,.12-.59,2.73,2.73,0,0,0,.06-.49,3.59,3.59,0,0,0-.11-.57,3.39,3.39,0,0,0-.15-.52A2.81,2.81,0,0,0,135.49,147.75Z"/><path class="cls-2" d="M150.29,112.51l-1.9,4h6.27l.76-1.63a2.83,2.83,0,0,0-1.35-3.77,2.73,2.73,0,0,0-1.09-.27h0A2.82,2.82,0,0,0,150.29,112.51Z"/><path class="cls-2" d="M111.54,102.67a2.82,2.82,0,0,1,3.8,1.27l2.06,4.1h6.75a2.84,2.84,0,1,0,0-5.67H110a2.84,2.84,0,0,0,0,5.67h1.09l-.79-1.57A2.83,2.83,0,0,1,111.54,102.67Z"/><path class="cls-2" d="M115.34,103.94a2.83,2.83,0,1,0-5.07,2.53l.79,1.57h6.34Z"/><path class="cls-2" d="M173.64,181.69l-.12.12h30a2.84,2.84,0,1,0,0-5.67H193a31,31,0,0,1-17.82,5.63C174.66,181.77,174.15,181.72,173.64,181.69Z"/><path class="cls-2" d="M104.25,180.6l1.21,1.21h60l1.24-1.23a30.9,30.9,0,0,1-9.38-4.44H113.68A30.65,30.65,0,0,1,104.25,180.6Z"/><path class="cls-2" d="M96.62,181h0Z"/><path class="cls-2" d="M166.74,180.58l-1.24,1.23h8l.12-.12A30.78,30.78,0,0,1,166.74,180.58Z"/><path class="cls-2" d="M105.46,181.81l-1.21-1.21a31.34,31.34,0,0,1-5.54,1,1.1,1.1,0,0,1-.26,0,2.79,2.79,0,0,1-1.87-.72s0,0,0,0h0a2.82,2.82,0,0,0,2,.82Z"/><path class="cls-2" d="M99.79,176.14l4.46,4.46a30.65,30.65,0,0,0,9.43-4.46Z"/><path class="cls-2" d="M98.62,176.14A2.84,2.84,0,0,0,95.78,179a2.6,2.6,0,0,0,2.67,2.67,1.1,1.1,0,0,0,.26,0,31.34,31.34,0,0,0,5.54-1l-4.46-4.46Z"/><path class="cls-2" d="M174.35,177a2.83,2.83,0,0,1,0,4l-.71.71c.51,0,1,.08,1.54.08A31,31,0,0,0,193,176.14H172.35A2.83,2.83,0,0,1,174.35,177Z"/><path class="cls-2" d="M170.34,177a2.83,2.83,0,0,1,2-.83h-15a30.9,30.9,0,0,0,9.38,4.44Z"/><path class="cls-2" d="M166.74,180.58a30.78,30.78,0,0,0,6.9,1.11l.71-.71a2.84,2.84,0,0,0-2-4.84h0a2.83,2.83,0,0,0-2,.83Z"/></svg>