<svg id="Слой_1" data-name="Слой 1" xmlns="http://www.w3.org/2000/svg" viewBox="0 0 270.96 270.96"><defs><style>.cls-1{fill:#fff;}</style></defs><path class="cls-1" d="M155.12,76.61A14.91,14.91,0,1,1,170,61.69,14.94,14.94,0,0,1,155.12,76.61Zm0-24a9.14,9.14,0,1,0,9.14,9.13A9.14,9.14,0,0,0,155.12,52.56Z"/><path class="cls-1" d="M60.58,171.77a14.91,14.91,0,1,1,14.9-14.93A14.93,14.93,0,0,1,60.58,171.77Zm0-24.05a9.14,9.14,0,1,0,9.14,9.12A9.13,9.13,0,0,0,60.58,147.72Z"/><polygon class="cls-1" points="70.59 152.1 66.51 148.01 147.33 67.94 151.38 72.03 70.59 152.1"/><path class="cls-1" d="M119.45,209A14.92,14.92,0,1,1,134.33,194,14.93,14.93,0,0,1,119.45,209Z"/><path class="cls-1" d="M195.17,132.49a14.9,14.9,0,1,1,14.91-14.9A14.91,14.91,0,0,1,195.17,132.49Z"/><path class="cls-1" d="M108.29,190.36a57.7,57.7,0,0,1,81.63-81.58l-4.08,4.07a51.94,51.94,0,0,0-73.46,73.44Z"/><path class="cls-1" d="M200,156.61,140.6,136.3a2.44,2.44,0,0,0-2.57.61,2.47,2.47,0,0,0-.61,2.57l20.31,59.4a2.51,2.51,0,0,0,2.07,1.65l25.09,3.05-3.24,3.22a6.55,6.55,0,0,0,0,9.24l7.1,7.08a3.45,3.45,0,0,0,5,0l30.55-30.53a3.51,3.51,0,0,0,0-5l-7.11-7.08a6.53,6.53,0,0,0-9.22,0l-3.27,3.25-3-25.08A2.56,2.56,0,0,0,200,156.61Zm11.49,27.47a1.47,1.47,0,0,1,2.13,0l6,6-28.42,28.43-6-6a1.57,1.57,0,0,1,0-2.14Z"/></svg>