<svg id="Слой_1" data-name="Слой 1" xmlns="http://www.w3.org/2000/svg" viewBox="0 0 270.96 270.96"><defs><style>.cls-1{fill:#fff;}</style></defs><path class="cls-1" d="M245.6,186.64a1.11,1.11,0,0,0-.84-.38H26.2a1.13,1.13,0,0,0-.85.38,1.07,1.07,0,0,0-.25.91c0,.19,3.32,20.45,28.91,20.45H217c25.59,0,28.88-20.26,28.92-20.45A1.16,1.16,0,0,0,245.6,186.64Zm-93.69,14.27H119v-7.56h32.87Z"/><path class="cls-1" d="M48.91,178.4H222.05a4.53,4.53,0,0,0,4.53-4.54V67.5A4.53,4.53,0,0,0,222.05,63H48.91a4.54,4.54,0,0,0-4.54,4.54V173.86A4.54,4.54,0,0,0,48.91,178.4ZM60.23,78.85H210.72v83.66H60.23Z"/></svg>