<svg id="Слой_1" data-name="Слой 1" xmlns="http://www.w3.org/2000/svg" viewBox="0 0 270.96 270.96"><defs><style>.cls-1{fill:#fff;}</style></defs><path class="cls-1" d="M121.55,137.16h27.86v35.59H121.55Z"/><path class="cls-1" d="M140.12,182v9.28h-9.28V182h-9.29v32.24h27.86V182Z"/><path class="cls-1" d="M95.91,101.56A25.25,25.25,0,0,0,90.6,117v10.84h40.24V114.72h9.28v13.15h40.24V117a25.25,25.25,0,0,0-5.31-15.47,23.9,23.9,0,0,0-18.82-9.28h-41.5a23.9,23.9,0,0,0-18.82,9.28Z"/><path class="cls-1" d="M112.27,137.16H90.6v60.49a16.7,16.7,0,0,0,1.81,7.6,16.31,16.31,0,0,0,14.44,9h5.42Z"/><path class="cls-1" d="M184.89,99.54a15.5,15.5,0,0,0,7.85-13.47V72.18a15.51,15.51,0,0,0-15.49-15.5H163.08v27a33.57,33.57,0,0,1,21.81,15.83Z"/><path class="cls-1" d="M115.62,56.68h38.17V83H115.62Z"/><path class="cls-1" d="M193.18,119l-3.53-1.77v10.41a12.27,12.27,0,0,1,6.19,10.69v45.28a12.34,12.34,0,0,1-6.19,10.68v3.33a26.24,26.24,0,0,1-1,7,21.65,21.65,0,0,0,16.42-21V138.36A21.5,21.5,0,0,0,193.18,119Z"/><path class="cls-1" d="M81.32,197.65v-3.33a12.32,12.32,0,0,1-6.19-10.68V138.36a12.25,12.25,0,0,1,6.19-10.69V117.26L77.79,119a21.49,21.49,0,0,0-12,19.33v45.28a21.65,21.65,0,0,0,16.42,21A26.23,26.23,0,0,1,81.32,197.65Z"/><path class="cls-1" d="M85.72,100.15a33.66,33.66,0,0,1,20.61-16.07V56.68H92.17a15.51,15.51,0,0,0-15.5,15.5V86.07A15.52,15.52,0,0,0,85.72,100.15Z"/><path class="cls-1" d="M164.85,214.26a16.17,16.17,0,0,0,11.58-5.78,17.2,17.2,0,0,0,2.13-3.23,16.82,16.82,0,0,0,1.8-7.6V137.16H158.69v77.12Z"/></svg>