<?xml version="1.0" encoding="utf-8"?>
<!-- Generator: Adobe Illustrator 26.0.3, SVG Export Plug-In . SVG Version: 6.00 Build 0)  -->
<svg version="1.1" id="Слой_1" xmlns="http://www.w3.org/2000/svg" xmlns:xlink="http://www.w3.org/1999/xlink" x="0px" y="0px"
	 viewBox="0 0 365 200" style="enable-background:new 0 0 365 200;" xml:space="preserve">
<style type="text/css">
	.st0{fill:#262626;}
	.st1{fill:#47BABB;}
	.st2{fill:#303031;}
</style>
<g>
	<rect x="-7.1" y="-9.6" class="st0" width="379.1" height="219.3"/>
	<g>
		<path class="st1" d="M67.2,53.5h22.2l-6.2,29.7l15.4,10.2l-6.1,28.8l-34.7-24L67.2,53.5z M111.1,52.2h22.3L112,153.1l-18-19.8
			L111.1,52.2z"/>
		<path class="st1" d="M139.2,53.5h22.2l-6.2,29.7l15.4,10.2l-6.2,29l-34.6-24.1L139.2,53.5z M183.1,52.2h22.3L184,153.1l-18-19.8
			L183.1,52.2z"/>
		<path class="st2" d="M200.9,107.2l10.6-50.4c0.6-3.1,3.1-5.5,6.4-6.1l52.6-9.2c5.5-0.9,10.9,1.8,13.5,6.8l20.4,40.1
			c1.6,3.1,2.2,6.5,2.1,9.9l-3,45.2c-0.4,6.7-5.9,12-12.6,12.1l-48.1,1c-5.6,0.1-11.1-2.4-14.6-6.8L203.9,120
			C200.9,116.5,199.8,111.7,200.9,107.2z"/>
		<ellipse transform="matrix(0.3798 -0.9251 0.9251 0.3798 24.0093 286.9402)" class="st1" cx="226" cy="125.6" rx="3.4" ry="7.7"/>
		<path class="st1" d="M303.8,147.1c-0.7,2.2-1.9,4.1-3.5,5.8c-2.5,2.4-5.9,3.8-9.3,3.8l-47.9,1c-6.1,0.1-11.7-2.5-15.5-7.2
			l-24.2-29.9c-3.1-3.8-4.4-8.9-3.4-13.8l10.6-50.4c0.7-3.5,3.5-6.2,7.1-6.8l52.6-9.2c5.9-1,11.8,1.9,14.6,7.4L305,87.9
			c1.6,3.3,2.4,6.8,2.2,10.5l-2.7,45.2C304.4,144.8,304.2,145.8,303.8,147.1z M200.9,107.2l1,0.3c-0.9,4.3,0.1,8.7,3,12.1l24.2,29.9
			c3.4,4.1,8.4,6.5,13.9,6.4l47.9-1c6.2-0.1,11.1-5,11.5-11.1l2.7-45.2c0.1-3.3-0.4-6.5-1.9-9.5l-20.4-40.1
			c-2.4-4.6-7.4-7.1-12.4-6.2l-52.6,9.2c-2.7,0.4-4.9,2.5-5.5,5.2l-10.6,50.4L200.9,107.2z"/>
		<path class="st1" d="M294.6,153.8c-0.1,0.3-0.1,0.4-0.3,0.7c-0.7,1.2-2.1,1.9-3.4,1.9l-47,0.9c-5.6,0-11.4-0.7-15.8-6.5
			l-23.5-30.6c-1.5-1.9-1-4.7,0.9-6.2c0.6-0.4,1.5-0.7,2.2-0.9l54.6-4.4c4-0.3,7.8,1.6,9.9,5l22,36.7l0,0
			C294.8,151.4,294.9,152.6,294.6,153.8z M205.2,116.6c-0.3,0.9-0.1,1.9,0.4,2.7l23.5,30.8c3.8,5,8.6,6.1,14.6,5.9l46.9-1
			c0.9,0,1.8-0.4,2.4-1.2c0.4-0.9,0.3-1.9-0.1-2.7L271,114.6c-1.8-3-5-4.7-8.6-4.4l-54.6,4.4c-1,0.1-2.1,0.7-2.5,1.8
			C205.2,116.5,205.2,116.5,205.2,116.6z"/>
		<path class="st1" d="M303.8,146.2c-0.7,2.1-3,3.3-5,2.5c-0.9-0.3-1.6-0.9-2.1-1.8l-21-36.1c-1.6-2.7-2.2-5.9-1.8-9l6.7-53.2
			c0.1-0.9,1-1.6,1.9-1.8c0.9-0.1,1.8,0.1,2.2,0.9c5.2,9.9,19.5,38.6,20.8,41.1c0.9,2.1,1.5,4.4,1.6,6.7v0.1l-3,49.5
			C303.8,145.6,303.8,145.9,303.8,146.2z M281.6,49l-6.7,53.2c-0.3,2.8,0.3,5.6,1.6,8.1l21,36.1c0.7,1.2,2.4,1.6,3.5,0.9
			c0.7-0.4,1.2-1.2,1.2-2.1l3-49.5c-0.1-2.1-0.6-4.1-1.5-6.1c-1.3-2.7-15.7-31.2-20.8-41.1c-0.1-0.1-0.4-0.3-0.7-0.1
			C281.9,48.5,281.6,48.8,281.6,49L281.6,49z"/>
		<path class="st1" d="M268.9,100.7c-0.7,2.4-3,4.1-5.5,4.3l-57.7,4.1c-2.7,0.1-4.9-1.8-5-4.4c0-0.4,0-0.9,0.1-1.3l10.3-47.2
			c0.7-3.4,3.4-5.9,6.8-6.5l53.2-8.7c2.4-0.4,4.7,1.2,5.2,3.5c0.1,0.4,0.1,0.9,0,1.3l-7.2,53.5C269.1,100.1,269.1,100.4,268.9,100.7
			z M212.8,56c0,0.1-0.1,0.4-0.1,0.6l-10.3,47.2c-0.3,1,0,2.1,0.7,2.8s1.6,1.2,2.7,1.2l57.7-4.1c2.2-0.1,4.1-1.9,4.4-4.1l7.2-53.7
			c0.1-0.9-0.1-1.9-0.9-2.7c-0.7-0.7-1.6-1-2.7-0.9L218.2,51C215.8,51.7,213.6,53.5,212.8,56L212.8,56z"/>
		
			<ellipse transform="matrix(0.5746 -0.8185 0.8185 0.5746 43.6717 210.6883)" class="st1" cx="224.5" cy="63.3" rx="7.1" ry="4.9"/>
		<path class="st1" d="M230.9,57.2c0.4,0.3,0.9,0.7,1.2,1.3c0.3,0.4,0.4,1,0.6,1.6c0.3,1.2,0.3,2.4,0.1,3.5c0,0.3-0.1,0.6-0.1,0.9
			l-0.1,0.4l-0.1,0.4l-0.1,0.4c0,0.1-0.1,0.3-0.1,0.4l-0.1,0.4l-0.1,0.4c-0.1,0.1-0.1,0.3-0.1,0.4l-0.1,0.3
			c-0.1,0.3-0.3,0.4-0.4,0.7c-0.3,0.4-0.7,0.9-1.2,1.3c-0.4,0.4-0.9,0.9-1.3,1.2c-0.4,0.3-1,0.7-1.5,0.9c-0.6,0.3-1,0.6-1.6,0.7
			l-0.4,0.1l-0.4,0.1c-0.3,0-0.6,0.1-0.9,0.1h-0.4h-0.4c-0.3,0-0.6,0-0.9-0.1c-0.6-0.1-1.2-0.4-1.8-0.7c-0.4-0.3-0.9-0.7-1.3-1.3
			c-0.3-0.4-0.4-1-0.6-1.6c0.3,0.4,0.6,0.9,0.9,1.2c0.4,0.3,0.7,0.6,1.3,0.9c0.9,0.3,1.9,0.4,3,0.3c1-0.1,1.9-0.6,2.8-1.2
			c0.9-0.6,1.6-1.2,2.4-1.9c0.3-0.4,0.7-0.7,1-1.2c0.1-0.1,0.3-0.4,0.4-0.6l0.1-0.3c0-0.1,0.1-0.1,0.1-0.3c0.6-0.9,0.9-1.8,1.2-2.8
			c0.1-0.3,0.1-0.4,0.1-0.7s0.1-0.4,0.1-0.7c0-0.4,0-1,0-1.5s-0.1-1-0.1-1.5C231.4,58.4,231.2,57.8,230.9,57.2z"/>
		<ellipse transform="matrix(0.5746 -0.8185 0.8185 0.5746 62.278 236.2066)" class="st1" cx="258.3" cy="58.2" rx="7.1" ry="4.9"/>
		<path class="st1" d="M254.1,52.7c1-1.8,2.7-3.1,4.6-3.8c1-0.4,2.2-0.6,3.3-0.4c1.2,0.1,2.4,0.7,3.3,1.5c0.4,0.4,0.9,0.9,1.2,1.3
			c0.3,0.4,0.6,1,0.9,1.6c0.6,1.6,0.7,3.4,0.3,5.2c-0.1,0.6-0.3,1-0.4,1.6c-0.7,2.1-1.9,4-3.5,5.5c-0.9,0.7-1.8,1.3-2.8,1.8
			c-1,0.6-2.2,0.9-3.3,1c-0.6,0-1.2,0-1.8,0c-0.6,0-1.2-0.3-1.8-0.4c-1.2-0.4-2.1-1.2-2.8-2.2c-0.1-0.1-0.1-0.3-0.3-0.3l-0.1-0.4
			l-0.1-0.1l-0.1-0.1l-0.1-0.4c0-0.1-0.1-0.3-0.1-0.4s0-0.3-0.1-0.4c0-0.3-0.1-0.6-0.1-0.7v-0.4v-0.4c0-0.3,0-0.6,0-0.7
			c0-0.4,0.1-1,0.3-1.5c0-0.3,0.1-0.4,0.3-0.7s0.1-0.4,0.3-0.7l0.3-0.7l0.4-0.6c-0.4,0.9-0.6,1.8-0.7,2.8c-0.1,0.9-0.1,1.9,0.1,2.8
			c0,0.3,0.1,0.4,0.1,0.7c0,0.1,0.1,0.3,0.1,0.3c0,0.1,0.1,0.3,0.1,0.3l0.1,0.3l0.1,0.1l0.1,0.1l0.1,0.3l0.1,0.3
			c0.6,0.7,1.5,1.3,2.4,1.6s1.9,0.3,2.8,0.1c0.9-0.1,1.9-0.4,2.7-0.9c1.6-0.9,3.1-2.2,4.1-3.8c1-1.6,1.8-3.4,1.9-5.3
			c0-1,0-1.9-0.3-2.8c-0.3-0.9-0.7-1.8-1.5-2.4c-0.7-0.6-1.6-1.2-2.5-1.3s-1.9-0.1-2.8,0C256.9,50.4,255.4,51.4,254.1,52.7z"/>
		
			<ellipse transform="matrix(0.5746 -0.8185 0.8185 0.5746 33.8326 245.5673)" class="st1" cx="253.1" cy="90.2" rx="7.1" ry="4.9"/>
		<path class="st1" d="M259.6,84.2c0.4,0.3,0.9,0.7,1.2,1.3c0.3,0.4,0.4,1,0.6,1.6s0.1,1.2,0.3,1.8c0,0.6,0,1.2-0.1,1.8
			c0,0.3-0.1,0.6-0.1,0.9s-0.1,0.3-0.1,0.4l-0.1,0.4l-0.1,0.4c0,0.1-0.1,0.3-0.1,0.4l-0.1,0.4l-0.1,0.4c-0.1,0.1-0.1,0.3-0.1,0.4
			l-0.1,0.4c-0.1,0.3-0.3,0.4-0.4,0.7c-0.3,0.4-0.7,0.9-1.2,1.3c-0.4,0.4-0.9,0.9-1.3,1.2c-0.4,0.3-1,0.7-1.5,1
			c-0.6,0.3-1,0.6-1.6,0.7l-0.4,0.1c-0.1,0-0.3,0-0.4,0.1c-0.3,0-0.6,0.1-0.9,0.1h-0.9c-0.3,0-0.6,0-0.9-0.1
			c-0.6-0.1-1.2-0.4-1.8-0.7c-0.4-0.3-0.9-0.7-1.3-1.3c-0.3-0.4-0.4-1-0.6-1.6c0.4,0.9,1.2,1.6,2.2,2.1c0.9,0.3,1.9,0.4,3,0.3
			s1.9-0.6,2.8-1.2c0.9-0.6,1.6-1.2,2.4-1.9c0.3-0.4,0.7-0.7,1-1.2c0.1-0.1,0.3-0.4,0.4-0.6l0.1-0.3c0-0.1,0.1-0.1,0.1-0.3
			c0.6-0.9,0.9-1.8,1.2-2.8c0.1-0.3,0.1-0.4,0.1-0.7s0.1-0.4,0.1-0.7c0-0.4,0-1,0-1.5c0-0.4-0.1-1-0.1-1.5
			C260,85.3,259.9,84.8,259.6,84.2z"/>
		
			<ellipse transform="matrix(0.5746 -0.8185 0.8185 0.5746 16.1348 219.4505)" class="st1" cx="219.2" cy="94.2" rx="7.1" ry="4.9"/>
		<path class="st1" d="M225.7,88.2c0.4,0.3,0.9,0.7,1.2,1.3c0.3,0.4,0.4,1,0.6,1.6c0.1,0.6,0.3,1.2,0.3,1.8c0,0.6,0,1.2-0.1,1.8
			c0,0.3-0.1,0.6-0.1,0.9s-0.1,0.3-0.1,0.4l-0.1,0.4l-0.1,0.4l-0.1,0.4c0,0.1-0.1,0.3-0.1,0.4l-0.1,0.4c0,0.1-0.1,0.3-0.1,0.4
			l-0.3,0.4c-0.1,0.3-0.3,0.4-0.4,0.7c-0.3,0.4-0.7,0.9-1.2,1.3s-0.9,0.9-1.3,1.2c-0.4,0.3-1,0.7-1.5,1c-0.6,0.3-1,0.6-1.6,0.7
			l-0.4,0.1l-0.4,0.1c-0.3,0-0.6,0.1-0.9,0.1h-0.9c-0.3,0-0.6,0-0.9-0.1c-0.6-0.1-1.2-0.4-1.8-0.7c-0.4-0.3-0.9-0.7-1.3-1.3
			c-0.3-0.4-0.4-1-0.6-1.6c0.3,0.4,0.6,0.9,0.9,1.2c0.4,0.3,0.7,0.6,1.3,0.9c0.9,0.3,1.9,0.4,3,0.3c1-0.1,1.9-0.6,2.8-1.2
			c0.9-0.6,1.6-1.2,2.4-1.9c0.3-0.3,0.7-0.7,1-1.2l0.4-0.6l0.1-0.3c0-0.1,0.1-0.1,0.1-0.3c0.4-0.9,0.9-1.8,1.2-2.8
			c0.1-0.3,0.1-0.4,0.1-0.7c0-0.3,0.1-0.4,0.1-0.7c0-0.4,0.1-1,0.1-1.5s-0.1-1-0.3-1.5C226.1,89.3,225.9,88.8,225.7,88.2z"/>
		
			<ellipse transform="matrix(0.5746 -0.8185 0.8185 0.5746 38.0149 227.7897)" class="st1" cx="238.1" cy="77.3" rx="7.1" ry="4.9"/>
		<path class="st1" d="M240.8,68.6c0.3-0.1,0.6-0.1,0.9-0.1c0.3,0,0.6,0,0.9,0c0.6,0.1,1.3,0.3,1.9,0.6c0.6,0.3,1.2,0.7,1.6,1.3
			c0.1,0.1,0.1,0.3,0.3,0.4c0.1,0.1,0.1,0.3,0.3,0.4c0.1,0.1,0.1,0.3,0.3,0.4c0.1,0.1,0.1,0.3,0.1,0.4c0.1,0.3,0.3,0.6,0.3,1
			c0,0.1,0.1,0.3,0.1,0.4l0.1,0.6c0.1,0.7,0.1,1.3,0.1,2.1s-0.1,1.3-0.3,1.9c-0.1,0.6-0.4,1.3-0.6,1.9c-0.3,0.6-0.6,1.2-0.9,1.8
			l-0.3,0.4l-0.3,0.4l-0.3,0.4l-0.1,0.1l-0.1,0.1c-0.1,0.3-0.4,0.4-0.7,0.7l-0.3,0.3l-0.4,0.3l-0.6,0.1l-0.4,0.3l-0.4,0.3l-0.4,0.3
			c-0.6,0.3-1.2,0.6-1.8,0.7s-1.3,0.3-1.9,0.3c-0.3,0-0.6,0-0.9,0h-0.4c-0.1,0-0.3,0-0.4-0.1l-0.4-0.1l-0.4-0.1l-0.1-0.1l-0.1-0.1
			l-0.4-0.3c1.2,0.3,2.2,0.3,3.4,0c0.6-0.1,1-0.3,1.6-0.6l0.7-0.4c0.3-0.1,0.4-0.3,0.7-0.4c0.9-0.6,1.8-1.5,2.5-2.2
			c0.7-0.9,1.3-1.9,1.8-3c0.4-1,0.7-2.2,0.9-3.3c0.1-1.2,0-2.4-0.3-3.4c-0.1-0.6-0.4-1-0.7-1.5c-0.3-0.4-0.7-0.9-1.2-1.3
			c-0.4-0.3-0.9-0.6-1.5-0.9C241.9,68.7,241.4,68.7,240.8,68.6z"/>
		<path class="st1" d="M214.2,104.9l-8.4,0.6c-0.3,0-0.6-0.1-0.9-0.3c-0.1-0.3-0.3-0.6-0.3-0.9l2.4-10.9c-0.1,0.7-1.5,9.3-0.7,10.5
			S213.7,104.9,214.2,104.9z"/>
		<path class="st1" d="M231.6,51.2c-0.4,0.1-13.3,3.4-14.8,6.1c-1.5,2.7-5.8,16.9-5.8,16.9l3.7-17.2c0-0.1,0-0.3,0.1-0.4
			c0.6-1.6,1.9-3,3.7-3.3L231.6,51.2z"/>
		<polygon class="st1" points="239.1,54.4 232.2,60 232.4,62 		"/>
		<path class="st1" d="M220.9,72c0,0-3.3,2.8-4.4,3.8c-0.4,0.3-0.6,0.9-0.3,1.3s0.7,0.6,1,0.4l-5.6,5.3l-1.9,8.9
			c0,0,14.8-14,16.1-15.2c0.6-0.4,0.7-1.5,0.3-2.1c-0.1-0.1-0.3-0.3-0.6-0.4l3.5-3.7l-5,1.9L220.9,72z"/>
		<path class="st1" d="M247.2,74.6l7.7-7.5c0,0-3.4-1.2-4-3.4l-6.1,6.1C246.1,71.1,246.9,72.9,247.2,74.6z"/>
		<path class="st1" d="M268.5,77.1l-3,22c0,0.1,0,0.3-0.1,0.4c-0.3,1-1.2,1.6-2.2,1.8l-24.5,1.8l12.4-2.2l-6.7-0.4l7.1-1.3
			c0,0,4.7-0.6,6.7-3.3c1.3-2.4,2.4-4.7,3-7.4c0,0,0.6,0.6,0.1,3c-0.4,1.9-1,3.7-1.8,5.6c0,0,3.8-2.7,3.4-9.6l2.4-4.3L268.5,77.1z"
			/>
		<path class="st1" d="M272.5,44.9c0.1,0.1,0.3,0.4,0.1,0.7l-3.1,23.5l-0.1-5.2l-8.6,9.9l-0.6-2.2l-11.2,10.6l13.9-16l0.6,1.6
			c2.5-3,3.8-6.7,3.7-10.5c0,0,0.4-5.5-3.1-7.4s-12.4,0.7-12.6,0.9l4.3-2.1l-12,0.6l28.4-4.7C272.2,44.5,272.3,44.8,272.5,44.9z"/>
		<polygon class="st1" points="224.8,104.2 230.1,102.4 244.2,88.4 232.2,102.7 235.6,103.3 		"/>
		<path class="st1" d="M289.8,74.8c0.7,0.4,1.3,1,1.9,1.8c0.6,0.7,1,1.5,1.3,2.2c0.7,1.6,1.2,3.3,1.3,5s0.1,3.5-0.3,5.2
			c-0.1,0.9-0.4,1.8-0.9,2.5c-0.1,0.4-0.4,0.7-0.7,1.2c-0.1,0.1-0.3,0.3-0.4,0.4s-0.3,0.3-0.6,0.4c0.6-0.6,1-1.3,1.3-2.2
			c0.3-0.7,0.4-1.6,0.6-2.5c0.1-1.6,0.1-3.4,0-5s-0.6-3.3-1-4.9C291.8,77.4,290.8,76,289.8,74.8z"/>
		<path class="st1" d="M294.2,103.6c0.3,0.1,0.4,0.3,0.7,0.4c0.1,0.1,0.3,0.1,0.3,0.3l0.3,0.3l0.3,0.3l0.3,0.3
			c0.1,0.1,0.3,0.4,0.6,0.6c0.6,0.9,1.2,1.8,1.6,2.8c0.9,2.1,1.3,4.1,1.5,6.4c0,0.6,0,1.2,0,1.6c0,0.6,0,1-0.1,1.6
			c-0.1,1.2-0.4,2.2-0.9,3.3c-0.3,0.6-0.4,1-0.9,1.5c-0.1,0.3-0.4,0.4-0.6,0.7c-0.3,0.1-0.4,0.4-0.7,0.6c-0.6,0.3-1.2,0.4-1.8,0.3
			c-0.6-0.1-1-0.4-1.5-0.9c0.4,0.3,0.9,0.4,1.5,0.6h0.4l0.4-0.1c0.3-0.1,0.4-0.1,0.7-0.3c0.4-0.3,0.7-0.7,1-1.2
			c0.3-0.4,0.4-1,0.6-1.5c0.3-1,0.6-2.1,0.6-3.1c0.1-1,0.1-2.1,0-3.1c-0.1-2.1-0.6-4.1-1.2-6.2c-0.3-1-0.7-1.9-1.3-2.8
			C295.5,105.1,294.9,104.3,294.2,103.6z"/>
		<path class="st1" d="M300.4,123l-1.2,18.2v0.1l-0.3,0.1c-0.1,0-0.3,0-0.3-0.1l0,0l-9.5-16.3l8.7,12.1L300.4,123z"/>
		<path class="st1" d="M279,96.5c0.4,2.7,1,6.8,1.2,8.4c0.3,2.4,6.1,14.9,6.2,15.1l-6.7-11.4c-1.2-2.1-1.6-4.4-1.3-6.7L279,96.5z"/>
		<path class="st1" d="M285,59.8c1.8,3.4,3.8,7.5,5.9,11.7l-5.6-7.5l-3.8,14.8l2.4-18.9c0-0.3,0.3-0.6,0.6-0.6
			C284.8,59.4,285,59.5,285,59.8z"/>
		<path class="st1" d="M293.9,148.9c-1.5-1.9-3-3.8-4.3-5.9s-2.5-4-3.8-6.1s-2.4-4.1-3.5-6.2c-1.2-2.1-2.2-4.3-3.1-6.5
			c1.5,1.9,3,3.8,4.3,5.9s2.7,4,3.8,6.1c1.2,2.1,2.4,4.1,3.5,6.4C292,144.8,293,146.8,293.9,148.9z"/>
		<path class="st1" d="M295.1,148.3c-1.5-1.9-3-3.8-4.3-5.9c-1.3-2.1-2.7-4-3.8-6.1c-1.2-2.1-2.4-4.1-3.5-6.4
			c-1.2-2.2-2.2-4.3-3.1-6.5c1.5,1.9,3,3.8,4.3,5.9c1.3,2.1,2.7,4,3.8,6.1s2.4,4.1,3.5,6.4C293.2,144.1,294.2,146.1,295.1,148.3z"/>
		<path class="st1" d="M296.1,147.8c-1.5-1.9-3-3.8-4.3-5.9c-1.3-2.1-2.7-4-3.8-6.1s-2.4-4.1-3.5-6.4c-1.2-2.1-2.2-4.3-3.1-6.5
			c1.5,1.9,3,3.8,4.3,5.9c1.3,2.1,2.7,4,3.8,6.1c1.2,2.1,2.4,4.1,3.5,6.2C294.2,143.1,295.2,145.6,296.1,147.8z"/>
		<path class="st1" d="M234.1,114.7l-23.5,3.4c-0.3,0-0.4,0.3-0.4,0.6v0.1l7.8,12.6l0.3,0.4l-10.5-13.5c-0.3-0.3-0.3-0.7-0.1-1.2
			c0.1-0.4,0.6-0.9,1-0.9L234.1,114.7z"/>
		<path class="st1" d="M269.1,115.7l21.6,35.8c0.1,0.3,0.1,0.6,0.1,0.9c-0.1,0.3-0.6,0.3-0.9,0.3l-27.9,0.6l10.9-1.8l-6.7-1.2
			l10.3-0.6c0,0,8.6-0.4,8-4c-0.6-2.5-1.8-5-3.3-7.1l-4.1-3.1l0.4-2.7c-2.7-5.2-5.8-10.2-9-14.9c-0.9-1.5-2.2-2.8-3.8-3.5
			c-1.2-0.4-2.2-0.6-3.4-0.7c-2.1-0.3-3.3-0.3-8.1-0.6l-1.8-0.1L262,112C265.1,112,267.8,113.4,269.1,115.7z"/>
		<path class="st1" d="M250.7,153.6l-6.7,0.1c-3.3,0.3-6.5-0.4-9.5-1.9c-1.3-0.9-2.5-2.1-3.5-3.3c-2.7-3-5-6.1-7.1-9.3
			c2.5,2.7,5.3,5,8.3,7.1c3.8,2.8,7.7,5.8,13.5,6.7C247.1,153.3,248.8,153.6,250.7,153.6z"/>
		<polygon class="st1" points="256.2,113.4 254.2,121.8 254.9,113.1 		"/>
		<path class="st1" d="M233.7,128.6c-0.3,0.7-0.7,1.2-1.5,1.5c-1.8,0.9-4.6,0.6-7.7-0.6c-4.4-1.8-7.1-4.7-6.5-6.9l0,0
			c0.3-0.7,0.7-1.2,1.5-1.5c1.8-0.9,4.6-0.6,7.7,0.6l0,0C231.8,123.4,234.4,126.4,233.7,128.6L233.7,128.6z M219.4,123L219.4,123
			c-0.4,1.3,1.8,3.7,5.6,5.2c2.1,1,4.3,1.2,6.5,0.6c0.3-0.1,0.6-0.4,0.7-0.7l0,0c0.4-1.3-1.8-3.7-5.6-5.2l0,0
			c-2.1-1-4.3-1.2-6.5-0.6C219.9,122.4,219.6,122.7,219.4,123L219.4,123z"/>
		<path class="st1" d="M220.4,119c0.4-0.1,0.7-0.3,1.2-0.4c0.4-0.1,0.9-0.1,1.3-0.1c0.4,0,0.9,0,1.3,0s0.9,0,1.3,0.1
			c1.8,0.3,3.4,0.7,5,1.5c0.9,0.4,1.6,0.9,2.4,1.3c0.7,0.6,1.5,1.2,2.1,1.8c0.1,0.1,0.3,0.3,0.4,0.6l0.1,0.3l0.1,0.3
			c0.3,0.4,0.6,0.9,0.7,1.3c0.4,1,0.6,2.2,0.3,3.3c-0.3,1.2-0.7,2.2-1.6,3c-0.4,0.4-0.9,0.7-1.3,1c-0.3,0.1-0.4,0.3-0.7,0.3
			c-0.3,0.1-0.4,0.1-0.7,0.3c-1,0.3-1.9,0.3-3,0.3c-0.4,0-0.9,0-1.3-0.1l-0.6-0.1l-0.6-0.1l-0.6-0.1l-0.6-0.1
			c-0.4-0.1-0.9-0.3-1.2-0.4c-0.1-0.1-0.4-0.1-0.6-0.3l-0.6-0.3c-0.4-0.3-0.7-0.4-1.2-0.6c-0.4-0.1-0.7-0.4-1-0.7s-0.7-0.6-1-0.9
			c-0.3-0.3-0.6-0.6-0.9-0.9s-0.6-0.6-0.7-1c1.2,1.2,2.7,2.1,4.1,2.8c0.7,0.3,1.5,0.7,2.4,0.9c0.7,0.3,1.6,0.4,2.4,0.6
			c0.9,0.1,1.6,0.3,2.5,0.3s1.6-0.1,2.5-0.3c0.1,0,0.4-0.1,0.6-0.1s0.4-0.1,0.6-0.3c0.3-0.1,0.7-0.4,1-0.7c0.6-0.6,1-1.3,1.2-2.2
			c0.1-0.9,0-1.6-0.3-2.5c-0.3-0.7-0.7-1.5-1.3-2.1s-1.2-1.2-1.8-1.8c-0.7-0.4-1.3-0.9-2.1-1.3c-1.5-0.7-3.1-1.3-4.6-1.8
			C223.8,118.8,222.1,118.7,220.4,119z"/>
		
			<ellipse transform="matrix(0.3798 -0.9251 0.9251 0.3798 32.1145 314.7849)" class="st1" cx="250.8" cy="133.4" rx="3.4" ry="7.7"/>
		<path class="st1" d="M258.4,136.3c-0.3,0.7-0.7,1.2-1.5,1.5c-1.6,0.9-4.6,0.6-7.7-0.6c-4.4-1.8-7.2-4.7-6.5-6.9l0,0
			c0.3-0.7,0.7-1.2,1.5-1.5c1.8-0.9,4.6-0.6,7.7,0.6l0,0C256.5,131.2,259.2,134.1,258.4,136.3z M244.2,130.9L244.2,130.9
			c-0.4,1.3,1.8,3.7,5.6,5.2c2.1,1,4.3,1.2,6.5,0.6c0.3-0.1,0.6-0.4,0.7-0.7l0,0c0.4-1.3-1.8-3.7-5.6-5.2l0,0
			c-2.1-1-4.3-1.2-6.5-0.6C244.8,130.3,244.4,130.6,244.2,130.9z"/>
		<path class="st1" d="M245.4,126.8c0.4-0.1,0.7-0.3,1.2-0.4c0.4,0,0.9-0.1,1.3-0.1c0.4,0,0.9,0,1.3,0c0.4,0,0.9,0,1.3,0.1
			c1.8,0.3,3.5,0.7,5,1.5c0.9,0.4,1.6,0.9,2.4,1.3c0.7,0.6,1.5,1.2,2.1,1.8c0.1,0.1,0.3,0.3,0.4,0.6l0.1,0.3l0.1,0.3
			c0.3,0.4,0.6,0.9,0.7,1.3c0.4,1,0.6,2.2,0.3,3.3c-0.3,1.6-1.5,3.1-3,4c-0.3,0.1-0.4,0.3-0.7,0.3c-0.3,0.1-0.4,0.1-0.7,0.3
			c-1,0.3-1.9,0.3-3,0.3c-0.4,0-0.9,0-1.3-0.1l-0.7-0.1l-0.6-0.1l-0.5-0.4l-0.6-0.1c-0.4-0.1-0.9-0.3-1.2-0.4
			c-0.1,0-0.4-0.1-0.6-0.3l-0.6-0.3c-0.4-0.3-0.7-0.4-1.2-0.6s-0.7-0.4-1-0.7s-0.7-0.6-1-0.9c-0.3-0.3-0.6-0.6-0.9-0.9
			c-0.3-0.3-0.6-0.6-0.7-1c1.2,1.2,2.5,2.1,4.1,2.8c0.7,0.3,1.5,0.7,2.4,0.9c0.7,0.3,1.6,0.4,2.4,0.6c0.9,0.1,1.6,0.3,2.5,0.3
			s1.6-0.1,2.5-0.3c0.1-0.1,0.4-0.1,0.6-0.3c0.1-0.1,0.4-0.1,0.6-0.3c0.3-0.1,0.7-0.4,1-0.7c0.6-0.6,1-1.3,1.2-2.2
			c0.1-0.9,0-1.6-0.3-2.5c-0.3-0.7-0.7-1.5-1.3-2.1c-0.6-0.6-1.2-1.2-1.8-1.8c-0.7-0.4-1.3-0.9-2.1-1.3c-1.5-0.7-3-1.3-4.6-1.8
			C248.6,126.7,246.9,126.5,245.4,126.8z"/>
		<ellipse transform="matrix(0.3798 -0.9251 0.9251 0.3798 38.0184 341.9679)" class="st1" cx="274" cy="142.6" rx="3.4" ry="7.7"/>
		<path class="st1" d="M281.8,145.6c-0.3,0.7-0.7,1.2-1.5,1.5c-1.8,0.9-4.6,0.6-7.7-0.6c-4.4-1.8-7.2-4.7-6.5-6.9l0,0
			c0.3-0.7,0.7-1.2,1.5-1.5c1.8-0.9,4.6-0.6,7.7,0.6l0,0C279.8,140.3,282.5,143.3,281.8,145.6L281.8,145.6z M267.6,139.9
			L267.6,139.9c-0.4,1.3,1.8,3.7,5.6,5.2c2.1,1,4.3,1.2,6.5,0.6c0.3-0.1,0.6-0.4,0.7-0.7l0,0c0.4-1.3-1.8-3.7-5.6-5.2l0,0
			c-2.1-1-4.3-1.2-6.5-0.6C267.9,139.4,267.8,139.6,267.6,139.9L267.6,139.9z"/>
		<path class="st1" d="M268.5,135.9c0.4-0.1,0.7-0.3,1.2-0.3c0.4-0.1,0.9-0.1,1.3-0.1s0.9,0,1.3,0s0.9,0,1.3,0.1
			c1.8,0.3,3.4,0.7,5,1.5c0.9,0.4,1.6,0.9,2.4,1.3c0.7,0.6,1.5,1.2,2.1,1.8c0.1,0.1,0.3,0.3,0.4,0.6l0.1,0.3l0.1,0.3
			c0.3,0.4,0.6,0.9,0.7,1.3c0.4,1,0.6,2.2,0.3,3.3c-0.3,1.2-0.7,2.2-1.6,3c-0.4,0.4-0.9,0.7-1.3,1c-0.3,0.1-0.4,0.3-0.7,0.3
			c-0.3,0.1-0.4,0.1-0.7,0.3c-1,0.3-1.9,0.3-3,0.3c-0.4,0-0.9,0-1.3-0.1l-0.6-0.1l-0.6-0.1l-0.6-0.1l-0.6-0.3
			c-0.4-0.1-0.9-0.3-1.2-0.4l-0.6-0.3c-0.1-0.1-0.4-0.1-0.6-0.3c-0.1-0.1-0.7-0.4-1.2-0.6c-0.4-0.1-0.7-0.4-1-0.7s-0.7-0.6-1-0.9
			c-0.3-0.3-0.6-0.6-0.9-0.9c-0.3-0.3-0.6-0.6-0.7-1c1.2,1.2,2.5,2.1,4.1,2.8c0.7,0.3,1.5,0.7,2.4,1c0.7,0.3,1.6,0.4,2.4,0.6
			c0.9,0.1,1.6,0.3,2.5,0.3s1.6-0.1,2.5-0.3c0.1,0,0.4-0.1,0.6-0.1c0.1,0,0.4-0.1,0.6-0.3c0.3-0.1,0.7-0.4,1-0.7
			c0.6-0.6,1-1.3,1.2-2.2c0.1-0.9,0-1.6-0.3-2.5c-0.3-0.7-0.7-1.5-1.3-2.1c-0.6-0.6-1.2-1.2-1.8-1.8c-0.7-0.4-1.3-1-2.1-1.3
			c-1.5-0.7-3.1-1.3-4.6-1.8C271.9,135.8,270.1,135.8,268.5,135.9z"/>
		<polygon class="st1" points="239.2,152.4 241.2,136.2 241.4,152.6 		"/>
		<path class="st1" d="M237.8,151.8l2.5-22.2c0.1-0.7-0.4-1.5-1.2-1.5c-0.3,0-0.6,0-0.7,0.1l-1.9,0.4c0,0-0.4,3.5-2.8,4
			c-2.4,0.4-1.9,4.4-1.3,4.6c1.2,0.1,3.3-2.7,3.3-2.7c-0.3,1-0.9,2.1-1.5,3.1l-1.3,10.9L237.8,151.8z"/>
		<path class="st1" d="M233.4,121.6l0.9-4.9l4.4-0.4l-1.9,13C236.2,126.5,234.9,123.9,233.4,121.6z"/>
		<path class="st1" d="M257.8,113.4l-3.3,14.5c2.2,0.7,4.3,2.2,5.6,4.1c1.8,3,0.9,3,0.9,3s2.4,0.3-1.6-6.4c1,0.7,2.1,1.6,2.8,2.7
			l4-17.4L257.8,113.4z"/>
		<polygon class="st1" points="268,115.9 264.9,130.6 270.4,126.4 271.4,120.3 		"/>
		<polygon class="st1" points="259.2,140.2 256,151.9 252.4,152.1 255.4,141.1 		"/>
		<path class="st1" d="M290.4,108.3c-0.3,2.1-0.1,4.1,0.1,6.1c0.7,4.1,2.5,8.4,4.4,8.1c0.7-0.1,1.2-0.7,1.6-1.8
			c0.6-2.4,0.6-4.9,0.1-7.4c-0.3-2.1-0.9-4-1.8-5.8c-0.9-1.6-1.8-2.5-2.7-2.4C291.4,105.4,290.6,106.4,290.4,108.3z M292.4,106.1
			h-0.1H292.4L292.4,106.1z"/>
		<path class="st1" d="M285.5,75.7c-1,1.3-1.3,4.7-0.6,8.4c0.7,4.3,2.7,8.6,4.7,8.4c0.4,0,0.9-0.3,1.2-0.7c0.3-0.3,0.4-0.7,0.6-1.2
			c0.6-2.4,0.6-4.9,0-7.2c-0.7-4.3-2.7-8.6-4.7-8.4C286.1,75.1,285.8,75.4,285.5,75.7z"/>
	</g>
</g>
</svg>
