<svg id="Слой_1" data-name="Слой 1" xmlns="http://www.w3.org/2000/svg" xmlns:xlink="http://www.w3.org/1999/xlink" viewBox="0 0 365 200"><defs><style>.cls-1,.cls-11,.cls-12,.cls-14{fill:none;}.cls-2{fill:#12100b;}.cls-3{clip-path:url(#clip-path);}.cls-4{clip-path:url(#clip-path-2);}.cls-5{clip-path:url(#clip-path-3);}.cls-6{fill:#343434;}.cls-15,.cls-7{fill:#f3e600;}.cls-8{fill:#fff;}.cls-9{clip-path:url(#clip-path-4);}.cls-10{clip-path:url(#clip-path-5);}.cls-11,.cls-12,.cls-13,.cls-14,.cls-15{stroke:#f1e511;stroke-miterlimit:10;}.cls-11{stroke-width:0.37px;}.cls-12{stroke-width:0.36px;}.cls-13{fill:#9a9999;stroke-width:0.56px;}.cls-14{stroke-width:0.36px;}</style><clipPath id="clip-path"><rect class="cls-1" x="-387.2" y="-5.9" width="382.53" height="220.95"/></clipPath><clipPath id="clip-path-2"><rect class="cls-1" x="-443.89" y="-37.89" width="519.33" height="275.78"/></clipPath><clipPath id="clip-path-3"><rect id="SVGID" class="cls-1" x="-185.8" y="-43.98" width="281.42" height="283.26" transform="translate(-90.18 195.3) rotate(-180)"/></clipPath><clipPath id="clip-path-4"><rect id="SVGID-2" data-name="SVGID" class="cls-1" x="-185.65" y="-46.76" width="426.98" height="284.65" transform="translate(55.68 191.13) rotate(-180)"/></clipPath><clipPath id="clip-path-5"><rect id="SVGID-3" data-name="SVGID" class="cls-1" x="-496.59" y="-109.81" width="622.39" height="414.93"/></clipPath></defs><rect class="cls-2" x="-2.75" y="-4.76" width="376.22" height="208.51"/><g class="cls-3"><g class="cls-4"><g class="cls-5"><rect class="cls-6" x="-190.59" y="177.25" width="309.58" height="72.28" transform="translate(-71.6 426.78) rotate(-180)"/><rect class="cls-6" x="-190.59" y="-49.17" width="309.58" height="72.28" transform="translate(-71.6 -26.06) rotate(-180)"/><polygon class="cls-7" points="75.78 19.36 -151.05 19.36 -170.74 5.75 -201.36 5.75 -201.36 112.68 98.63 112.68 98.63 27.12 87 27.12 75.78 19.36"/><polygon class="cls-7" points="75.78 197.77 -151.05 197.77 -170.74 211.38 -201.36 211.38 -201.36 104.45 98.63 104.45 98.63 190.01 87 190.01 75.78 197.77"/><polygon class="cls-8" points="-175.17 33.97 52.05 33.97 71.76 19.79 102.44 19.79 102.44 131.19 -198.06 131.19 -198.06 42.05 -186.41 42.05 -175.17 33.97"/><polygon class="cls-8" points="-180.22 149.66 51.13 149.66 71.2 163.84 102.44 163.84 102.44 52.44 -203.52 52.44 -203.52 141.58 -191.66 141.58 -180.22 149.66"/><rect class="cls-7" x="-207.74" y="72.63" width="311.98" height="35.51" transform="translate(-103.49 180.77) rotate(-180)"/><rect class="cls-7" x="-185.7" y="19.36" width="304.64" height="170.61" transform="translate(-66.76 209.33) rotate(-180)"/><g class="cls-9"><path class="cls-7" d="M4.09.67H51.53A47.43,47.43,0,0,0,4.09-46.76h0Z"/><path class="cls-7" d="M4.13,5.75h0v-48.3l-31.68,1.08-4.1,1.64c-.49,1-7.63,16.88,1.63,31.43C-23,2.67-9.37,8.35,4.13,5.75Z"/><rect class="cls-8" x="-43.35" y="-46.76" width="47.44" height="47.44" rx="20.9" transform="translate(-39.26 -46.09) rotate(-180)"/><path class="cls-8" d="M4.09,48.11h0A47.44,47.44,0,0,0,51.53.67H4.09Z"/><path class="cls-7" d="M4.09,27.64h0a27,27,0,0,0,27-27h-27Z"/><rect class="cls-8" x="-43.35" y="0.67" width="47.44" height="47.44" transform="translate(-39.26 48.78) rotate(-180)"/><path class="cls-8" d="M4.09,190.42h0a47.43,47.43,0,0,1,47.44,47.43H4.09Z"/><path class="cls-7" d="M4.09,190.42h0v47.43H-43.35A47.43,47.43,0,0,1,4.09,190.42Z"/><path class="cls-8" d="M6.87,130.24h0a55.65,55.65,0,0,1-50.59,60.29h0A55.65,55.65,0,0,1,6.87,130.24Z"/></g><path class="cls-6" d="M-30.29,66.71H124.57a77.44,77.44,0,0,1-77.43,77.44H-107.73A77.44,77.44,0,0,1-30.29,66.71Z"/></g><g class="cls-10"><path class="cls-7" d="M-33.84,164.16l-17.58-17.57H-86.1c.85.91,1.69,1.84,2.53,2.75h15.29l16.74,16.75H72.38v-1.93Z"/><polygon class="cls-7" points="170.05 69.95 80.22 69.95 73.31 63.04 -60.02 63.04 -74.96 48.1 -85.75 48.1 -87.82 46.02 -63.06 46.02 -49.03 60.06 112.74 60.06 120.74 68.06 173.6 68.06 170.05 69.95"/><polygon class="cls-7" points="146.04 76.94 146.04 73.62 32.35 73.62 29.03 76.94 146.04 76.94"/><polygon class="cls-7" points="-25.16 56.9 75.28 56.9 78.82 53.36 -21.71 53.36 -25.16 56.9"/></g><path class="cls-7" d="M-63.49,125.89l7.71-14,125,.19L58.07,123.26v-8.17H-53.83L-60,125.66Z"/><polygon class="cls-7" points="76.68 171.79 -6.72 171.79 -28.33 150.19 -28.33 157.84 -25.85 155.36 -7.86 173.35 76.68 173.35 76.68 171.79"/><polyline class="cls-11" points="-111.93 117.19 -12.66 117.19 -2.85 107.38 69.49 107.38 102.38 140.26 124.68 140.26"/><polyline class="cls-12" points="-108.66 84.04 -60.82 84.04 -19.5 41.53 78.75 41.53 91.09 28.84 126.75 28.84"/><path class="cls-11" d="M125.8,175.72H-33.09l-5.53-5.53"/><polygon class="cls-13" points="70.19 94.51 67.7 92.44 67.7 94.51 67.7 96.58 70.19 94.51"/><path class="cls-13" d="M45.28,174.76a1.3,1.3,0,1,1,1.29,1.29A1.3,1.3,0,0,1,45.28,174.76Z"/><path class="cls-13" d="M51.79,26.19a1.3,1.3,0,1,1,1.3,1.3A1.3,1.3,0,0,1,51.79,26.19Z"/><circle class="cls-11" cx="53.09" cy="26.19" r="22.35"/><circle class="cls-11" cx="46.57" cy="174.76" r="15.25" transform="translate(-62.67 30.62) rotate(-22.24)"/><path class="cls-13" d="M42.89,52.64a1.3,1.3,0,1,1,1.29,1.29A1.3,1.3,0,0,1,42.89,52.64Z"/><polyline class="cls-11" points="125.09 35.31 101.17 35.31 83.84 52.64 44.18 52.64"/><polyline class="cls-11" points="-111.95 131.3 3.12 131.3 46.57 174.76"/><polyline class="cls-14" points="-98.12 102.53 -30.38 102.53 -22.8 94.51 67.7 94.51"/><polyline class="cls-11" points="62.8 31.96 -28.51 31.96 -40.48 43.93"/></g></g><path class="cls-7" d="M125.37,183.75a46.32,46.32,0,0,0,5.6,2.41,26.69,26.69,0,0,0,3.07.12,28.71,28.71,0,0,0,3.67-.18,28.19,28.19,0,0,0,3.65-.47,24.65,24.65,0,0,0,3.16-.69,20.56,20.56,0,0,0,2.25-.62l.87-.24-.72.55a21.45,21.45,0,0,1-2,1.26,27.6,27.6,0,0,1-3.16,1.27,29.85,29.85,0,0,1-3.83.74,26.45,26.45,0,0,0,3.59.25c10.54,0,17-6.65,20.58-12.18a31.39,31.39,0,0,1-12.26,9.44,28.67,28.67,0,0,1-3.36,1.23c-.82.25-1.3.37-1.3.37s.46-.16,1.26-.48a30.11,30.11,0,0,0,3.22-1.5,31.05,31.05,0,0,0,8.33-6.57,30.53,30.53,0,0,0,5.49-8.89c.24-.62.45-1.19.62-1.71-.34.54-.7,1.09-1.09,1.63a36.31,36.31,0,0,1-4.11,4.83,35.93,35.93,0,0,0,2.92-5.49,34.1,34.1,0,0,0,1.85-5.79,6.68,6.68,0,0,0-5.23-2.27,7.59,7.59,0,0,0-1.8.2C152.23,183.45,125.37,183.75,125.37,183.75ZM150,175.31l.41-.42c.27-.26.63-.66,1.06-1.13s.88-1,1.39-1.64a21.71,21.71,0,0,0,1.41-2,20.12,20.12,0,0,0,1.24-2.12c.34-.7.7-1.35.92-1.94s.46-1.08.58-1.43l.22-.55s0,.21,0,.59a13.11,13.11,0,0,1-.28,1.55,14.78,14.78,0,0,1-.69,2.12,21.56,21.56,0,0,1-1.19,2.27,21.81,21.81,0,0,1-1.57,2,15.61,15.61,0,0,1-1.64,1.51,12.34,12.34,0,0,1-1.3.89Z"/><path class="cls-7" d="M158.42,158.06a9.58,9.58,0,0,1,7.44,3.41l.59-4.39L167,159c0-.59.07-1.17.11-1.74.09-1.35.21-2.63.34-3.81.49-4.72,1.15-7.83,1.15-7.83s.25,3.17.4,7.88c0,1.18.09,2.46.13,3.8s.11,2.77.13,4.24.08,3,.13,4.52.09,3.11.13,4.67c0,1,.05,2.06.08,3.09.51,6.94,1.29,15.15,2.49,23.56,3.17,22.19,9.43,40.39,16.22,49.9,5.79,8.1,12.89,16.51,20.29,20.09a17.64,17.64,0,0,0,5.68,1c8.86,0,14.64-7.36,13.72-10.85-.8-3.06-3.45-5.78-5.89-5.78a3.22,3.22,0,0,0-1.05.18,2.48,2.48,0,0,0-.38.84,3.76,3.76,0,0,0,.07,2.34,4.69,4.69,0,0,0,1.2,2.15,5.42,5.42,0,0,0,1.79,1.44,4.93,4.93,0,0,0,1.59.66,3.39,3.39,0,0,0,.5.13l.18,0-.17,0a2.58,2.58,0,0,1-.52.13,5.88,5.88,0,0,1-1.94,0,6.88,6.88,0,0,1-2.52-1.27,6.77,6.77,0,0,1-1.1-1.26l-.23,1.33-.63-1.06c0,.08,0,.16,0,.24a16.06,16.06,0,0,0-.2,2.26,1.21,1.21,0,0,0,0,.19.37.37,0,0,0,.11.05,2.17,2.17,0,0,0,.9.13,2.67,2.67,0,0,0,1-.25,2.5,2.5,0,0,0,.42-.26,2.75,2.75,0,0,1-.24.46,3.25,3.25,0,0,1-.84.88,3.64,3.64,0,0,1-1.21.53l-.17,0v.24a11.51,11.51,0,0,0,0,1.49v.58l-.34-.48a12.66,12.66,0,0,1-.67-1.4,15.56,15.56,0,0,1-.53-2.14c0-.51-.06-1.06-.05-1.61-.59,1-1.56,1.67-4,1.67a5.29,5.29,0,0,1-1.67-.29,4,4,0,0,0-.64.75l0,0,1.23,1.46-2-.2-.2.37,1.27,1.44-1.84-.11c-.08.22-.15.44-.21.64a9.75,9.75,0,0,0-.38.94l-.18.37-.17-.38c-.08-.24-.19-.59-.29-1a9.31,9.31,0,0,1,0-1.52,6.88,6.88,0,0,1,.52-1.72,6,6,0,0,1,1.2-1.42,4.63,4.63,0,0,1,.43-.24c-1.78-1.1-3.76-3.27-6.21-7a6.67,6.67,0,0,0-.8.6l1.34,2.4-2.52-1.37-.23.19,2.87,4.58-4-3.48a4.55,4.55,0,0,0-.37.44,5.1,5.1,0,0,0-.63.71l-.27.29-.07-.4a6.61,6.61,0,0,1,0-1,7.55,7.55,0,0,1,.5-1.38,8.49,8.49,0,0,1,1-1.34,8.75,8.75,0,0,1,1.44-.89,9,9,0,0,1,1-.26,43.36,43.36,0,0,1-5.38-10.69c-.23.15-.52.35-.86.6s-.79.47-1.23.76l0,1.08-1-.47-.64.41c-.32.17-.64.34-1,.52l3.29,5.83-4.78-5-.53.31c-.44.2-.8.4-1.05.54l-.43.2s.07-.16.18-.44.35-.63.63-1.06a17.13,17.13,0,0,1,1.15-1.29c.48-.4,1-.79,1.58-1.17a17.32,17.32,0,0,1,1.8-.79c.61-.17,1.18-.3,1.67-.39l1.07,0a72.9,72.9,0,0,1-2.72-10.59l-.13,0,.08-.2c-3.44-19.09-1.2-41.64.77-53.92,0-1.51.08-3.05.12-4.59s.09-3.13.13-4.67.09-3,.13-4.52.1-2.89.13-4.24.09-2.62.13-3.8c.15-4.71.4-7.88.4-7.88s.66,3.11,1.15,7.83c.12,1.13.24,2.36.33,3.66l.41-4.91,1.06,7.25.76-3,.86,3.35a10.12,10.12,0,0,1,5.61-1.69h0a11.74,11.74,0,0,1,1.46.09c-.2-1.87-.44-3.48-.71-4.86-.4-.95-.87-2.12-1.37-3.46-.36-.94-.74-2-1.11-3s-.79-2.22-1.16-3.41-.81-2.4-1.17-3.66-.76-2.54-1.11-3.86a39,39,0,0,1-.76-4,21.09,21.09,0,0,1-.17-4,17.07,17.07,0,0,1,1.77-6.93,13.89,13.89,0,0,1,3-4,10.85,10.85,0,0,1,1.07-.87l.4-.27-.29.38c-.2.25-.46.63-.77,1.11a18,18,0,0,0-1.94,4.24c-.1.31-.18.65-.26,1,.09-.13.17-.27.27-.4a11.1,11.1,0,0,1,1.73-1.43l1.61-.87c.5-.21.9-.4,1.18-.55l.47-.2-.23.46c-.18.27-.45.65-.8,1.09l-.54.56a1.92,1.92,0,0,1,1.1.65,1.87,1.87,0,0,1,.3.62,5.77,5.77,0,0,0,.36-1.14,4.87,4.87,0,0,0,.13-.58,4.53,4.53,0,0,1,.22.57,5.37,5.37,0,0,1-.47,3.92,14,14,0,0,1-1.58,2.11,15.76,15.76,0,0,0-1.63,1.68,5,5,0,0,0-1,1.62,3,3,0,0,0-.34,1.36,2.73,2.73,0,0,0,0,.58,2.3,2.3,0,0,1-.36-.5,3.73,3.73,0,0,1-.31-1.66,6.24,6.24,0,0,1,.74-2.29,17.21,17.21,0,0,1,1.61-2l.27-.26a2.1,2.1,0,0,1-2.15-.62,1.32,1.32,0,0,1-.12-.2,6,6,0,0,0-.59,1.28,6.36,6.36,0,0,0-.4,1.19l0,.06c0,.13,0,.24,0,.37a27.27,27.27,0,0,0,.37,3.62,36.26,36.26,0,0,0,.81,3.74c.3,1.27.64,2.54,1,3.8s.62,2.46.92,3.65l1.46-5.38.29,4.26c.18-.54.35-1.12.53-1.72.33-1,.64-2.12.9-3.23s.6-2.21.81-3.26.48-2,.61-2.9.33-1.58.41-2.09l.17-.8s.07.29.18.8.18,1.26.25,2.16,0,1.95-.07,3.07c-.07.55-.15,1.11-.25,1.68a38.32,38.32,0,0,0,1.21-6.14,32,32,0,0,0,0-9.65,22.86,22.86,0,0,0-1-2.18,17.07,17.07,0,0,0-1.83-2.75A26.64,26.64,0,0,0,207.6,112l-2.41-2.41a28.74,28.74,0,0,1-4.06-4.79,13.43,13.43,0,0,1-1.84-4.08,9,9,0,0,1-.22-1.22c0-.28,0-.44,0-.44a14,14,0,0,0,.76,1.46,18.4,18.4,0,0,0,2.57,3.32,43.68,43.68,0,0,0,3.27,3c-.5-.66-1-1.31-1.49-1.92s-.93-1.33-1.33-1.88l-.88-1.4-.3-.57.56.32,1.36,1c.53.44,1.13,1,1.77,1.54l1,1-.46-.71c-.68-1.1-1.44-2.25-2.25-3.37s-1.54-2.28-2.32-3.31-1.47-2-2.13-2.84-1.15-1.55-1.54-2l-.58-.79.82.54c.51.36,1.22.9,2,1.58s1.68,1.58,2.61,2.55,1.75,2.13,2.6,3.28l.08.14a31.52,31.52,0,0,0-7.47-10.49c-1-.57-6.37-3.37-15.05-3.37a34.67,34.67,0,0,0-12.36,2.14,19.42,19.42,0,0,0-5.9,6.84c.57-.51,1.06-.92,1.43-1.21l.74-.53s-.17.28-.49.77-.79,1.15-1.3,2-1.18,1.74-1.8,2.78c-.53.8-1.06,1.68-1.56,2.57-.51,1.25-1,2.43-1.33,3.51.22-.32.43-.64.63-.95.45-.6.85-1.18,1.18-1.68s.68-.9.89-1.2.37-.45.37-.45,0,.21,0,.58-.15.88-.3,1.5-.43,1.28-.72,2c-.13.26-.28.52-.42.79.65-.58,1.26-1.16,1.8-1.72a18.4,18.4,0,0,0,2.57-3.32,12.54,12.54,0,0,0,.75-1.46l0,.44a8.64,8.64,0,0,1-.21,1.22,13.25,13.25,0,0,1-1.85,4.08,28.18,28.18,0,0,1-4,4.79L158.21,112a26.64,26.64,0,0,0-2.26,2.52,16.43,16.43,0,0,0-1.83,2.75,19.1,19.1,0,0,0-1.32,2.93c-.15.42-.28.85-.4,1.27a42.75,42.75,0,0,0,1.46,13.75c-.12-.67-.24-1.33-.32-2-.07-1-.12-2-.12-2.79s.12-1.5.17-2,.13-.75.13-.75l.22.72c.11.46.27,1.12.49,1.89s.39,1.68.65,2.63.47,2,.76,3,.47,2,.74,3a1.6,1.6,0,0,1,0,.21l.8-4.28.8,3.87a35,35,0,0,0,3.35-6.17c.08-.37.16-.75.22-1.13a29,29,0,0,0,.37-3.62v-.17l-.08-.26a6.36,6.36,0,0,0-.4-1.19,6,6,0,0,0-.59-1.28,1.32,1.32,0,0,1-.12.2,2.1,2.1,0,0,1-2.15.62l.27.26a17.21,17.21,0,0,1,1.61,2,6.24,6.24,0,0,1,.74,2.29,3.6,3.6,0,0,1-.31,1.66,2.3,2.3,0,0,1-.36.5,2.73,2.73,0,0,0,0-.58,3,3,0,0,0-.34-1.36,5,5,0,0,0-1-1.62,15.76,15.76,0,0,0-1.63-1.68,14,14,0,0,1-1.58-2.11,6.86,6.86,0,0,1-.64-2.29,6.64,6.64,0,0,1,.17-1.63c.13-.37.22-.57.22-.57a4.87,4.87,0,0,0,.13.58,6.53,6.53,0,0,0,.36,1.14,1.72,1.72,0,0,1,.31-.62,1.87,1.87,0,0,1,1.09-.65l-.54-.56c-.35-.44-.62-.82-.8-1.09s-.23-.46-.23-.46l.47.2c.28.15.68.34,1.18.55l1.62.87a11.53,11.53,0,0,1,1.72,1.43,6.33,6.33,0,0,1,.36.54c-.09-.39-.18-.77-.29-1.13a18,18,0,0,0-1.94-4.24c-.31-.48-.57-.86-.77-1.11l-.29-.38.4.27a12.18,12.18,0,0,1,1.07.87,13.71,13.71,0,0,1,3,4,17.23,17.23,0,0,1,1.78,6.93,21.09,21.09,0,0,1-.17,4,36.54,36.54,0,0,1-.77,4c-.34,1.32-.73,2.61-1.1,3.86s-.79,2.47-1.17,3.66-.78,2.33-1.16,3.41-.75,2.09-1.11,3c-.44,1.19-.87,2.25-1.24,3.14-.05.27-.1.55-.16.84l.56-1a54.1,54.1,0,0,1,3.11-5,56,56,0,0,0-1.86,5.52C159,155.15,158.6,157,158.42,158.06Zm67.84,100.43-.29-.26a7.87,7.87,0,0,0-.66-.68,11.22,11.22,0,0,0-.84-.94,12.31,12.31,0,0,0-.91-1,11.64,11.64,0,0,0-.86-1.08,11.06,11.06,0,0,0-.77-1c-.21-.33-.41-.59-.55-.77l-.21-.33.39,0a7,7,0,0,1,1,.25,11,11,0,0,1,1.24.66,14.45,14.45,0,0,1,1.18,1.07,12.52,12.52,0,0,1,.84,1.36,11.83,11.83,0,0,1,.43,1.33c.05.42.07.76.08,1S226.26,258.49,226.26,258.49Zm-33.13-169-.95-.08c-.6-.07-1.45-.16-2.47-.2l-1.24-.1-1.13,4L186,89.05c-1,0-2,0-3,0a23.48,23.48,0,0,0-.66,2.82A24.56,24.56,0,0,0,182,95a25.9,25.9,0,0,1-1-3.09,26.87,26.87,0,0,1-.57-2.82c-.71,0-1.42.08-2.09.15l-.5,0-1.5,2.93-.93-2.68-.52.08c-1,.1-1.87.23-2.46.34l-.94.13.85-.42c.56-.24,1.37-.57,2.36-.9s2.18-.59,3.47-.85,2.68-.33,4.08-.41,2.79.08,4.09.2,2.49.41,3.51.66,1.83.57,2.4.77Zm2.75,10.39-1.15-.28c-.36-.11-.8-.22-1.31-.33s-1.08-.24-1.71-.34-1.4-.28-2.17-.39a14.71,14.71,0,0,0-.66,1.79,18.33,18.33,0,0,0-.58,2.44,19.29,19.29,0,0,1-.78-2.47,19,19,0,0,1-.38-2,35.49,35.49,0,0,0-4.41-.18l-1.38,4.21-1-4.14c-.92,0-1.83.13-2.7.24l-1.41.19-1.11,6.74-1.5-6.25-.22,0c-.63.11-1.19.25-1.69.38s-1,.24-1.3.36l-1.15.3,1-.63c.33-.19.73-.4,1.21-.63a15.62,15.62,0,0,1,1.62-.75,34,34,0,0,1,4.29-1.31,39.49,39.49,0,0,1,5.12-.57,38.51,38.51,0,0,1,5.14.46A33.58,33.58,0,0,1,192,98c.61.24,1.16.48,1.64.71s.89.42,1.23.61Zm4.78,22.78c-.18.5-.35.92-.44,1.22l-.17.47s0-.19,0-.5a10,10,0,0,1,.13-1.32,11.86,11.86,0,0,1,.43-1.83,21.36,21.36,0,0,1,.81-2c.36-.64.75-1.26,1.15-1.83a11.94,11.94,0,0,1,1.23-1.41,8.85,8.85,0,0,1,1-.87l.41-.29-.28.41c-.19.25-.43.64-.73,1.07s-.62,1-1,1.53a18.15,18.15,0,0,0-1,1.8,18.45,18.45,0,0,0-.89,1.86C201.1,121.61,200.82,122.17,200.66,122.68Zm2.6,24.43c-.61-1.59-1.26-3.29-1.92-5s-1.13-3.47-1.54-5.14a26.23,26.23,0,0,1-.71-4.65,17.16,17.16,0,0,1,.12-3.32c.12-.79.22-1.24.22-1.24s0,.46,0,1.25a21.1,21.1,0,0,0,.2,3.26,33.16,33.16,0,0,0,1,4.5c.44,1.63,1,3.34,1.64,5s1.22,3.42,1.8,5,1.05,3.12,1.49,4.41.75,2.39,1,3.15l.36,1.2-.52-1.14c-.31-.73-.79-1.77-1.31-3S203.87,148.7,203.26,147.11Zm-5.16-9.26.26.46c.15.3.39.71.62,1.23s.52,1.11.77,1.76l.8,2.06c.23.72.47,1.43.69,2.1s.36,1.32.51,1.87.23,1,.3,1.34.1.51.1.51-.1-.16-.26-.46-.39-.71-.61-1.22-.53-1.11-.78-1.77l-.8-2.06c-.23-.72-.47-1.43-.69-2.1s-.36-1.32-.51-1.86-.23-1-.31-1.34Zm-15.35,94.72.36-.43c.24-.24.59-.59,1-1s1-.73,1.67-1.13,1.38-.66,2.11-1,1.53-.4,2.26-.54,1.42-.11,2-.12,1.09.09,1.43.14l.54.12-.5.23c-.32.11-.77.28-1.3.51s-.93.31-1.44.5l.74,4.63-2.3-4.08-.85.32c-.71.2-1.41.43-2.06.68h0l1.92,7.66L184.9,232l-.26.09c-.56.14-1,.29-1.35.39Zm-4.94-14.88.52-.39c.34-.22.84-.52,1.45-.86s1.39-.59,2.21-.9,1.74-.46,2.65-.63,1.86-.15,2.74-.15,1.68.14,2.37.25,1.25.32,1.63.43l.61.24-.64.11c-.4.05-1,.11-1.63.23-.51,0-1.09.12-1.7.22l.1,6.23-2.48-5.9-.73.13q-.65.06-1.26.15l-.52,3.07-1.8-2.72-1.24.21c-.68.07-1.24.15-1.64.22Zm-3.44-17.09.65-.34c.43-.19,1-.45,1.81-.72s1.67-.45,2.66-.66,2.06-.23,3.13-.29,2.14.13,3.14.25,1.9.4,2.67.62,1.38.51,1.81.7l.66.33h-.74c-.46,0-1.11-.05-1.9,0-.42,0-.88-.05-1.37-.05l-1.47,8.49-1.08-8.52c-.57,0-1.13,0-1.71,0s-1.23,0-1.83,0L179.7,204l-1.07-3.57c-.58,0-1.13,0-1.62.08-.79,0-1.44,0-1.9.06Zm-1.8-18,.77-.38c.5-.21,1.22-.49,2.11-.79s2-.49,3.1-.71,2.4-.26,3.65-.32,2.49.13,3.65.27,2.21.43,3.11.67,1.61.56,2.12.76l.77.36-.85,0c-.53,0-1.3-.08-2.21-.09s-1.74-.11-2.74-.12l-1.19,2.56-1.22-2.6c-.47,0-.95,0-1.43,0-1.05,0-2.09,0-3.09,0l-1.49,7.63-1-7.53c-.35,0-.68,0-1,.08-.91,0-1.67.08-2.21.12Zm-.65-18,.87-.4c.55-.22,1.36-.52,2.34-.84s2.18-.53,3.45-.77,2.66-.27,4-.33,2.76.14,4,.28,2.46.46,3.46.72,1.8.59,2.36.81l.87.38-.95,0c-.53,0-1.26-.11-2.14-.14l-1.44,7.3-1.11-7.44-1.18,0c-1.06,0-2.19-.06-3.32,0l-1.73,4.11-.75-4.1c-.68,0-1.35,0-2,.09-1.25,0-2.42.09-3.42.2s-1.86.12-2.45.18Zm20.72-18c-.59-.06-1.44-.12-2.45-.15-.61-.06-1.29-.09-2-.12l-1.53,7.42-1-7.49c-.93,0-1.88,0-2.83,0-1.24,0-2.48,0-3.65.08l-1.52,4.47-.85-4.37-1.3.11c-1,0-1.85.12-2.45.18l-.94.06.86-.4c.56-.22,1.36-.52,2.35-.84s2.17-.53,3.45-.77,2.65-.27,4-.33,2.76.14,4,.28,2.46.46,3.46.72,1.79.59,2.36.81l.86.38Zm-23-15.62,1.11-.43c.72-.24,1.75-.57,3-.91s2.75-.57,4.36-.83,3.36-.31,5.09-.37,3.48.14,5.1.3,3.11.49,4.38.77,2.3.63,3,.86l1.12.41-1.19-.07c-.75-.07-1.82-.15-3.1-.2-.67-.06-1.4-.11-2.17-.14l-1.05,4-1.28-4.1c-1.36-.07-2.81-.08-4.26-.05l-1.13,9-1.27-9-1.38,0-.71,2.93-.83-2.87h-.2l-1.79.08-1.37,4.41-1.1-4.22h-.08c-1.28.06-2.35.17-3.1.25Zm-1.68-16.18,1.21-.6c.39-.19.87-.38,1.43-.6s1.19-.47,1.89-.71a43.36,43.36,0,0,1,4.92-1.2,50.64,50.64,0,0,1,5.79-.52,53.39,53.39,0,0,1,5.79.43,50.57,50.57,0,0,1,4.94,1.12c.7.22,1.34.45,1.9.66s1,.39,1.45.56l1.22.56-1.33-.23c-.41-.09-.92-.18-1.5-.27l-.32-.06-1.42,4.12-.22-4.35h0c-.88-.16-1.87-.28-2.91-.38l-1.89,8.73-.72-8.94c-1.2-.09-2.45-.13-3.71-.13l-.93,8.17L182,113c-1,0-2,.06-3,.14L177.93,116l-1.26-2.63c-1.28.12-2.48.28-3.55.48l-.44,4.57-1.17-4.31-.76.14c-.58.11-1.09.21-1.5.32Zm-2.84,7s-.08-.13-.24-.35-.36-.54-.6-.93-.56-.8-.86-1.27-.66-1-1-1.41-.71-1-1.07-1.38-.68-.85-1-1.18-.53-.64-.72-.84l-.27-.33.38.2a7.22,7.22,0,0,1,1,.6,10.29,10.29,0,0,1,1.22,1c.4.42.82.88,1.21,1.37s.69,1,1,1.54a12.32,12.32,0,0,1,.64,1.46,8.75,8.75,0,0,1,.32,1.08Zm-2.38,23,.25-.79c.17-.49.38-1.21.64-2.06s.5-1.87.78-2.94.5-2.24.67-3.41.36-2.34.45-3.44.19-2.15.2-3,.06-1.64.05-2.16,0-.83,0-.83l.16.81a19.64,19.64,0,0,1,.29,2.17,30.12,30.12,0,0,1,.08,3.1c-.06,1.13-.18,2.34-.34,3.54s-.5,2.37-.81,3.46a27.22,27.22,0,0,1-1.06,2.91,20.18,20.18,0,0,1-1,2Z"/><path class="cls-7" d="M206.76,124.09a2,2,0,0,0,.19-.28l.24-.25c.06-.09.19-.15.25-.22s.18-.12.24-.17l.1-.07.06.12a.92.92,0,0,1,.08.3,1.27,1.27,0,0,1,0,.42,2.92,2.92,0,0,1-.22.43,3.47,3.47,0,0,1-.36.31,1.92,1.92,0,0,1-.4.14.82.82,0,0,1-.32,0l-.13,0,.05-.12c0-.06.06-.18.11-.27S206.69,124.18,206.76,124.09Z"/><path class="cls-7" d="M158.79,124.82a2.21,2.21,0,0,1-.42-.12,4.78,4.78,0,0,1-.42-.26c-.11-.12-.21-.25-.31-.37a2.17,2.17,0,0,1-.17-.4,1.53,1.53,0,0,1,0-.33v-.14l.13,0c.07,0,.2,0,.3.11a3.79,3.79,0,0,1,.34.18,1.89,1.89,0,0,1,.62.55c.09.09.15.23.22.31s.11.22.15.28l.05.13-.13,0A1.8,1.8,0,0,1,158.79,124.82Z"/><path class="cls-7" d="M206.81,174.23c.92,1.14,1.61,1.85,1.61,1.85s-.8-.57-1.92-1.55a32.53,32.53,0,0,1-3.79-4c-.15-.18-.29-.37-.43-.56a36.56,36.56,0,0,0,1.79,3.39,31.36,31.36,0,0,0,7,8,31.2,31.2,0,0,0,3.87,2.67c.59.37,1.16.66,1.66.91s1,.47,1.32.62l1.18.51-1.22-.4c-.39-.11-.85-.29-1.38-.5s-1.12-.45-1.75-.76a32.2,32.2,0,0,1-4.19-2.35,35.28,35.28,0,0,1-4.34-3.47,36,36,0,0,1-3.71-4.17c-.42-.57-.8-1.14-1.17-1.69,2.91,5.71,9.71,15.39,22.42,15.39a30.59,30.59,0,0,0,9.4-1.59c-1.11.13-2.25.23-3.41.28a41.82,41.82,0,0,1-4.44-.35,37.81,37.81,0,0,1-3.77-.89c-1.07-.36-1.95-.72-2.55-1l-.93-.46,1,.12c.64.11,1.56.24,2.66.33s2.37.26,3.73.32,2.81.14,4.26.1a42.35,42.35,0,0,0,4.26-.15c1.36-.08,2.64-.2,3.73-.37l.73-.08c.47-.22.93-.43,1.42-.68,0,0-22.2-.25-29.53-17.2.43,1.9.9,3.43.9,3.43a46.75,46.75,0,0,1-4.34-9.21h-.07a6.6,6.6,0,0,0-5.63,2.8c.11.38.27.87.46,1.44a31.41,31.41,0,0,0,2.13,4.8A31,31,0,0,0,206.81,174.23Zm.51-3.06a9.58,9.58,0,0,1-.78-.57,9.81,9.81,0,0,1-1-.91c-.33-.36-.68-.76-1-1.16s-.58-.88-.84-1.3a11.24,11.24,0,0,1-.6-1.21,5.92,5.92,0,0,1-.32-.9l-.1-.35.25.27c.14.18.38.41.61.72s.54.65.81,1,.59.79.91,1.18.6.83.89,1.21.53.76.77,1.07.39.6.52.78l.19.31Z"/><path class="cls-7" d="M96.39,114.18c0,.78,0,1.57.09,2.37l5.43-3.36-5.14,6.18.06.44,3.07-1.89-2.58,4.61a64.52,64.52,0,0,0,6.51,17.22l2.69-2.11-.51,1.63c.24-.22.48-.44.73-.65a38.3,38.3,0,0,1,4.06-3.12,37.79,37.79,0,0,0-3,4,33,33,0,0,0-2,3.55c5,8.23,11.58,15.62,18.77,20.42l7.1-9.06-4.86,10.14L129.4,162l-.7,3.92a32.59,32.59,0,0,0,4.67,1.92,85.31,85.31,0,0,0,13.92.69c1.15-4.54,2.85-12.89,1.91-19.64-1.2-8.67-3.2-8.47-4.14-16.74a9.23,9.23,0,0,0-2.3.83,9.42,9.42,0,0,0-2.23,1.68,8.64,8.64,0,0,0-.85,1,8.06,8.06,0,0,1,.5-1.25,10.08,10.08,0,0,1,1.75-2.51,10.76,10.76,0,0,1,2.53-1.95l.38-.2c0-.43-.06-.88-.09-1.36a21.79,21.79,0,0,0-3.28-10.2l-1-.56a29.31,29.31,0,0,0-7-2.66,27.94,27.94,0,0,0-8.63-.68,32.55,32.55,0,0,0-4.4.72,33.31,33.31,0,0,0-4.13,1.37,31.29,31.29,0,0,0-6.74,3.9,28.75,28.75,0,0,0-4.05,3.82c-.46.49-.77.93-1,1.21l-.34.43.3-.46c.21-.3.48-.76.9-1.3a28.8,28.8,0,0,1,3.75-4.24A31.2,31.2,0,0,1,120,113.3,30.22,30.22,0,0,1,134.09,112q1.23.18,2.4.45c-.62-.4-1.29-.82-2-1.21a44.42,44.42,0,0,0-5.63-2.69,44.2,44.2,0,0,1,4.54,1,41.4,41.4,0,0,0-7.81-4.82l22.5,6-1.86-1.83,3.27,1.08c-.15-.38-.32-.76-.51-1.15a16.83,16.83,0,0,0-2.05-3.2,15.58,15.58,0,0,0-1.19-1.33,16.49,16.49,0,0,1,1.64.78,18.45,18.45,0,0,1,3.38,2.35l.06.06c.76-2.66,1.68-5.47,2.69-8.28A8.37,8.37,0,0,1,155,96.55a60.6,60.6,0,0,0-20.13-.65c-1.4.18-2.57.39-3.38.55l-1.28.25,1.23-.44c.78-.28,1.91-.66,3.29-1.05a60.13,60.13,0,0,1,7.36-1.66c-.8,0-1.61.08-2.42.14a82,82,0,0,0-10.1,1.43c-2.74.57-4.54,1.07-4.54,1.07s1.75-.66,4.43-1.48a82.76,82.76,0,0,1,10-2.35,89.9,89.9,0,0,0-10.17,1,60.42,60.42,0,0,0-6,1.25c-2,.53-3.89,1.16-5.71,1.85a47.58,47.58,0,0,0-9.42,5,37,37,0,0,0-5.78,4.91c-.66.64-1.1,1.21-1.44,1.58l-.49.57.45-.6c.31-.39.72-1,1.34-1.68a37.62,37.62,0,0,1,5.49-5.35,48.23,48.23,0,0,1,9.29-5.7,60,60,0,0,1,5.73-2.3c2-.66,4.07-1.25,6.17-1.72a87.3,87.3,0,0,1,23.45-2,49.23,49.23,0,0,1,7.88,1.09c.95.21,1.69.42,2.2.58l.36.1a29.74,29.74,0,0,1,2.52-2.73c-2.56-1.38-7.51-3.23-15.72-3.23A80.61,80.61,0,0,0,128.76,88C110.16,92.93,96.39,99.24,96.39,114.18Zm30.22-24.89,1.39-.42c.89-.24,2.17-.62,3.72-.94s3.37-.7,5.34-1,4.08-.47,6.19-.61,4.24-.1,6.22,0,3.84.22,5.42.4,2.88.39,3.79.54l1.43.27-1.45-.1c-.92-.07-2.24-.13-3.81-.21s-3.42-.09-5.39-.12-4.07,0-6.16.17-4.19.27-6.15.49-3.78.43-5.34.69-2.86.44-3.77.62Zm16.92,12.59c-.69-.31-1.38-.6-2.05-.83s-1.29-.48-1.84-.63-1-.33-1.32-.41l-.51-.16.54,0c.33,0,.83,0,1.4.09a16.06,16.06,0,0,1,2,.38c.7.21,1.44.46,2.17.75s1.4.7,2,1.08a14.89,14.89,0,0,1,1.62,1.17,11.68,11.68,0,0,1,1,1l.35.4-.46-.26c-.29-.18-.72-.4-1.21-.69s-1.09-.57-1.71-.91S144.22,102.17,143.53,101.88Zm-22.93.05,1,0c.63,0,1.55.07,2.64.21s2.36.28,3.71.54,2.78.59,4.2.94,2.8.84,4.1,1.28,2.48,1,3.49,1.38,1.82.86,2.4,1.14l.89.47-1-.31c-.6-.21-1.48-.48-2.51-.82s-2.26-.7-3.55-1.11-2.69-.79-4.1-1.15-2.8-.75-4.12-1.05-2.56-.6-3.63-.81-2-.42-2.58-.54ZM146.23,165s0-.33.09-.89.13-1.35.23-2.3.17-2.07.27-3.26.15-2.46.17-3.73.06-2.54,0-3.74,0-2.31-.09-3.26-.07-1.76-.11-2.32l0-.88s.08.31.21.86.31,1.33.44,2.29.3,2.07.37,3.28.1,2.5.09,3.79-.17,2.58-.3,3.78-.35,2.32-.55,3.26-.42,1.73-.56,2.27S146.23,165,146.23,165Zm-7.63-46.42c-.4-.37-.73-.7-1-.9l-.4-.34.49.19a7.15,7.15,0,0,1,1.22.65,9.06,9.06,0,0,1,1.53,1.24,13.47,13.47,0,0,1,1.42,1.79,14.13,14.13,0,0,1,1,2.06,9.69,9.69,0,0,1,.42,1.92,6.7,6.7,0,0,1,0,1.39l-.05.52-.12-.51c-.06-.32-.2-.77-.36-1.29a16.16,16.16,0,0,0-.65-1.75,13.58,13.58,0,0,0-1-1.87,13.08,13.08,0,0,0-1.23-1.73A15.87,15.87,0,0,0,138.6,118.57Zm-2,40.15.28-.73c.21-.45.5-1.09.82-1.86s.8-1.61,1.23-2.54,1-1.89,1.44-2.88,1-1.92,1.52-2.84,1-1.74,1.37-2.47.79-1.32,1-1.74l.43-.65-.1.77c-.09.48-.23,1.18-.42,2s-.55,1.74-.89,2.74-.86,2-1.33,3-1.13,1.94-1.69,2.83-1.21,1.65-1.73,2.31-1.05,1.15-1.39,1.5Zm-8.9-1.6.2-.51c.15-.3.32-.77.59-1.29s.55-1.14.92-1.77l1.13-2,1.23-1.92c.4-.61.82-1.15,1.15-1.63s.67-.85.88-1.12l.35-.41-.2.5c-.15.31-.32.77-.59,1.29s-.55,1.14-.92,1.78-.74,1.31-1.13,2L130.11,154c-.39.62-.82,1.16-1.15,1.64s-.67.84-.87,1.12Zm-12.84-10.88.28-.61c.2-.38.47-.95.87-1.57a22.51,22.51,0,0,1,1.43-2.09c.57-.72,1.22-1.47,1.89-2.2s1.43-1.37,2.14-2a24.57,24.57,0,0,1,2-1.49c.61-.42,1.16-.7,1.54-.92l.6-.3-.5.45c-.33.27-.78.69-1.33,1.17s-1.16,1.08-1.83,1.68-1.35,1.3-2,2-1.35,1.39-1.94,2.07-1.17,1.31-1.62,1.89-.87,1-1.13,1.36Zm-2-2,.57-1.28c.19-.41.45-.89.77-1.43s.65-1.16,1.08-1.81a39.31,39.31,0,0,1,3.31-4.13,42.8,42.8,0,0,1,4.59-4,44.34,44.34,0,0,1,5.27-3,39,39,0,0,1,5-1.77c.75-.2,1.44-.33,2.06-.44s1.15-.21,1.6-.26l1.4-.12-1.32.46c-.43.13-.94.31-1.51.54s-1.22.46-1.91.78a38.53,38.53,0,0,0-4.6,2.21,41.69,41.69,0,0,0-4.93,3.11,40.69,40.69,0,0,0-4.54,3.65,37,37,0,0,0-3.6,3.63c-.53.54-1,1.07-1.36,1.54s-.74.89-1,1.25Zm-8.38-15,.45-1a11.52,11.52,0,0,1,.59-1.12,11.68,11.68,0,0,1,.86-1.38,21.1,21.1,0,0,1,2.65-3.15,26.76,26.76,0,0,1,3.71-2.93,27.61,27.61,0,0,1,4.25-2.06,21.42,21.42,0,0,1,4-1,13.12,13.12,0,0,1,1.62-.18c.49,0,.91,0,1.26,0l1.09,0-1.08.15a8.74,8.74,0,0,0-1.22.2c-.48.08-1,.19-1.57.34a26.2,26.2,0,0,0-7.86,3.34,27,27,0,0,0-3.66,2.73,29.13,29.13,0,0,0-2.77,2.88c-.38.45-.71.88-1,1.27a11.82,11.82,0,0,0-.72,1Zm-1.7-19.29.27-.5a14.68,14.68,0,0,1,.8-1.25,18.47,18.47,0,0,1,1.33-1.63c.54-.56,1.13-1.13,1.74-1.68s1.31-1,2-1.43a18,18,0,0,1,1.84-1,13.86,13.86,0,0,1,1.37-.58l.53-.18-.45.33c-.3.2-.7.52-1.19.86s-1,.8-1.65,1.24-1.22.95-1.82,1.48-1.22,1-1.76,1.54-1.08,1-1.5,1.41-.81.77-1,1Z"/><path class="cls-7" d="M217.74,168.73a78.27,78.27,0,0,0,14.63-.61,20.94,20.94,0,0,0,5.84-2.54l-5.35-11.16,7.54,9.63c6.59-5,12.35-13.66,17.15-23.08a38.58,38.58,0,0,0-2.22-3.9,37.79,37.79,0,0,0-3-4,38.3,38.3,0,0,1,4.06,3.12c.91.79,1.76,1.64,2.41,2.33,2.89-5.94,5.41-12.1,7.52-17.78l-4.59-5.52,5.38,3.33c5.42-15.22-3.34-23.07-28.9-30.59A75.28,75.28,0,0,0,217,84.57c-8.61,0-14,2.05-16.82,3.53a34.55,34.55,0,0,1,2.4,2.58c.5-.14,1.17-.33,2-.52a49.23,49.23,0,0,1,7.88-1.09,87.33,87.33,0,0,1,23.45,2c2.1.47,4.16,1.06,6.16,1.72a59.18,59.18,0,0,1,5.74,2.3,48.44,48.44,0,0,1,9.28,5.7,37.78,37.78,0,0,1,5.5,5.35c.62.69,1,1.29,1.33,1.68l.46.6-.5-.57c-.33-.37-.78-.94-1.43-1.58a37.43,37.43,0,0,0-5.78-4.91,47.4,47.4,0,0,0-9.43-5c-1.82-.69-3.73-1.32-5.7-1.85a60.61,60.61,0,0,0-6.05-1.25c-2.85-.44-5.72-.72-8.51-.87,1.9.29,3.68.64,5.12,1,2.16.5,3.57.93,3.57.93s-1.45-.26-3.64-.51a67.89,67.89,0,0,0-8.05-.43c-.74,0-1.47,0-2.18,0a60.83,60.83,0,0,1,7.91,1.75c1.38.39,2.51.77,3.29,1.05l1.23.44L233,96.45c-.82-.16-2-.37-3.39-.55a60.39,60.39,0,0,0-20.39.71c-.93.19-1.73.38-2.4.54a56.47,56.47,0,0,1,3.48,8.7c.27.86.56,1.64.85,2.36.19-.3.38-.61.6-.91a10.83,10.83,0,0,1,1.83-1.94,8.87,8.87,0,0,1,.94-.71,9.21,9.21,0,0,0-.62,1,10.3,10.3,0,0,0-.93,2.28l-.06.22.75-.7a19.16,19.16,0,0,1,3.38-2.35,15.92,15.92,0,0,1,1.65-.78,16.6,16.6,0,0,0-1.2,1.33,17.87,17.87,0,0,0-2.05,3.2c-.24.49-.44,1-.62,1.46l2.91-1.76L216.27,111l23.4-6.29a46.14,46.14,0,0,0-9.77,5.84l6-1.53-5.33,3a33.25,33.25,0,0,1,4.5-.29,32.43,32.43,0,0,1,4.8.43,32.08,32.08,0,0,1,4.63,1.2,31.05,31.05,0,0,1,4.22,1.84,31.72,31.72,0,0,1,6.58,4.65A28.8,28.8,0,0,1,259,124c.42.54.69,1,.9,1.3l.3.46-.35-.43c-.23-.28-.54-.72-1-1.21a28.36,28.36,0,0,0-4.06-3.82,31,31,0,0,0-6.73-3.9,33.31,33.31,0,0,0-4.13-1.37,32.55,32.55,0,0,0-4.4-.72,27.94,27.94,0,0,0-8.63.68,29.31,29.31,0,0,0-7,2.66c-.61.33-1.16.67-1.68,1a20.58,20.58,0,0,0-3.29,9.85c-.08,1.45-.2,2.67-.33,3.73a18.14,18.14,0,0,0,2.38,2.39,19,19,0,0,0,3.56,2.33,19.85,19.85,0,0,1-4.25-1.16,16.23,16.23,0,0,1-2.13-1c-1.14,5-3,4.72-4.07,12.27C213.17,154.1,216,163.79,217.74,168.73Zm20.35-79.1-1.4-.33c-.44-.12-1-.23-1.61-.36s-1.32-.29-2.09-.43c-1.53-.33-3.34-.57-5.27-.85s-4-.44-6.08-.53-4.16-.14-6.11-.08-3.77.15-5.33.33c-.78.07-1.49.15-2.12.23s-1.19.12-1.64.2L205,88l1.4-.36c.44-.12,1-.24,1.61-.37s1.34-.28,2.12-.39a51.65,51.65,0,0,1,5.35-.61c2-.1,4.08-.12,6.19,0s4.2.36,6.15.66,3.75.73,5.27,1.13c.77.19,1.46.4,2.07.6s1.14.37,1.57.53Zm-17.2,9-.52,0-1.35.06c-.56,0-1.2.08-1.89.09s-1.43.09-2.15.17-1.47.11-2.15.2-1.33.13-1.88.22l-1.34.17-.52,0,.47-.22a12.38,12.38,0,0,1,1.27-.49,16,16,0,0,1,1.87-.51c.7-.13,1.45-.24,2.2-.33s1.51-.05,2.22,0a16.81,16.81,0,0,1,1.93.19,12.93,12.93,0,0,1,1.34.27Zm23.21,4.68h-.79c-.5,0-1.21,0-2.06,0s-1.83.11-2.88.2a39.7,39.7,0,0,0-6.47,1.29c-1,.33-2,.6-2.73.93s-1.46.55-1.91.76l-.73.31.64-.46a17.21,17.21,0,0,1,1.79-1.08,21.78,21.78,0,0,1,2.7-1.21,30.53,30.53,0,0,1,3.27-.92,29,29,0,0,1,3.38-.4,21.62,21.62,0,0,1,3,.07,16.8,16.8,0,0,1,2.06.31Zm2.38,8.72a18.26,18.26,0,0,1,2.41.83,28.09,28.09,0,0,1,2.62,1.33,27.33,27.33,0,0,1,2.38,1.71,20,20,0,0,1,1.85,1.75,16.39,16.39,0,0,1,1.15,1.39l.39.56-.52-.44c-.32-.29-.8-.67-1.37-1.14s-1.26-1-2-1.5a27.75,27.75,0,0,0-2.37-1.56c-.82-.51-1.67-1-2.48-1.39s-1.57-.79-2.25-1.06-1.23-.54-1.63-.69l-.63-.26.67.09A15.66,15.66,0,0,1,246.48,112Zm13.61-4c-.67-.6-1.52-1.23-2.4-1.94s-1.85-1.4-2.85-2.07-2-1.35-3-1.93-1.86-1.13-2.66-1.55-1.46-.81-1.93-1l-.74-.4.81.24a21.45,21.45,0,0,1,2.08.74c.84.36,1.83.78,2.83,1.33s2.05,1.19,3.08,1.87,2,1.47,2.83,2.21a29.8,29.8,0,0,1,2.25,2.18c.64.65,1.1,1.26,1.44,1.67l.51.67-.64-.54C261.36,109.12,260.78,108.64,260.09,108.05Zm-17.52,9.19-.85-.09c-.53-.07-1.3-.12-2.22-.17s-2,0-3.12-.06a31.3,31.3,0,0,0-3.56.27,34,34,0,0,0-3.52.59c-1.11.28-2.16.51-3,.8s-1.61.51-2.11.71l-.8.28.73-.44a15.2,15.2,0,0,1,2-1,22,22,0,0,1,3-1.09,32.27,32.27,0,0,1,3.6-.73,32.84,32.84,0,0,1,3.67-.15,23.43,23.43,0,0,1,3.18.33,19,19,0,0,1,2.2.51Zm-3,19.27.59.33a17.53,17.53,0,0,1,1.48.95c.59.43,1.29.93,2,1.54s1.39,1.28,2.08,2,1.28,1.47,1.85,2.18,1,1.44,1.43,2.05a16.83,16.83,0,0,1,.87,1.54l.3.6-.44-.51c-.27-.33-.68-.77-1.14-1.33s-1-1.17-1.62-1.85-1.24-1.38-1.91-2.06-1.31-1.39-2-2-1.22-1.23-1.76-1.71-.95-.93-1.27-1.21Zm-8.93-8.78c-.68-.32-1.32-.57-1.9-.78s-1.08-.41-1.51-.54l-1.32-.46,1.4.12c.45.05,1,.14,1.6.26s1.31.24,2.06.44a38.39,38.39,0,0,1,5,1.77,44.45,44.45,0,0,1,5.28,3,42.8,42.8,0,0,1,4.59,4,39.12,39.12,0,0,1,3.3,4.13c.43.65.79,1.26,1.09,1.81a16.16,16.16,0,0,1,.76,1.43l.58,1.28-.87-1.1c-.26-.36-.6-.78-1-1.25s-.84-1-1.36-1.54a38.18,38.18,0,0,0-3.6-3.63,40.69,40.69,0,0,0-4.54-3.65,41.69,41.69,0,0,0-4.93-3.11A37.9,37.9,0,0,0,230.61,127.73Zm-2.57,22,.28.54c.16.35.4.85.69,1.44s.63,1.28,1,2,.72,1.53,1.12,2.31.76,1.57,1.13,2.3.7,1.42,1,2,.54,1.09.71,1.43l.26.55-.4-.45c-.25-.3-.62-.72-1-1.26s-.84-1.18-1.26-1.89-.85-1.5-1.26-2.28-.72-1.62-1-2.4-.52-1.52-.72-2.15-.29-1.19-.38-1.56ZM219.7,143l.42.65c.25.42.6,1,1,1.74s.86,1.58,1.37,2.47,1,1.89,1.52,2.84,1,2,1.44,2.88.85,1.81,1.23,2.54.61,1.41.82,1.86l.28.72-.58-.53c-.34-.35-.82-.87-1.38-1.5s-1.11-1.45-1.73-2.31-1.13-1.85-1.69-2.83-.93-2-1.33-3-.65-1.93-.89-2.74-.33-1.52-.42-2ZM218,163.84a18.92,18.92,0,0,1-1.09-2.12,22.22,22.22,0,0,1-1.11-3.19,30.23,30.23,0,0,1-.69-3.83,29.58,29.58,0,0,1,0-3.88,20.9,20.9,0,0,1,.53-3.34,16.39,16.39,0,0,1,.68-2.28l.33-.84s-.05.32-.16.89-.23,1.36-.35,2.32-.18,2.09-.25,3.29a30,30,0,0,0,.13,3.76,31,31,0,0,0,.55,3.73,32.46,32.46,0,0,0,.83,3.19c.29.92.55,1.69.77,2.22s.32.84.32.84Z"/><path class="cls-2" d="M93.68,114.18c0,10.2,4.51,22.9,12.07,33.95,7.4,10.82,16.72,18.75,25.83,22,0,0,5.7,2.7,7.83,3.8,1.49.41,3.21.79,5,1.14a29.63,29.63,0,0,1-4.38,2.46,56.72,56.72,0,0,1-7.32,2.46,40.18,40.18,0,0,1-7.32,1,2.71,2.71,0,0,0-1.2,5.13,45.62,45.62,0,0,0,10.3,3.84,46.54,46.54,0,0,0,8.13.83,25,25,0,0,0,14.82-5.58c4.54-3.34,8.91-9.32,8.91-9.32.48,26.44,6.75,48.49,8.81,54.49a73.49,73.49,0,0,0,5.13,11.66s2.91,4.59,6.08,8.65c4,5.4,9.37,11.61,15.47,16.18l2.65,1.71,1.42.58.74.29a20.55,20.55,0,0,0,7.66,1.53,17.92,17.92,0,0,0,14.16-6.79c2-2.55,2.77-5.27,2.19-7.46-1-3.84-4.47-7.81-8.52-7.81a6,6,0,0,0-4.88,2.57,13.84,13.84,0,0,0-2.08,4.25,7,7,0,0,1-.49,1.24,3.52,3.52,0,0,1-1.6.21c-1.61,0-3.74-2-6.5-6l-2.17-2.82c-3.28-5.08-5.44-11.43-6.8-18.33l-.45-2.47a118,118,0,0,1-1.49-16.29c0-.63,0-1,.07-1.69,0,0-.42-22.43,2.4-37.63a23.46,23.46,0,0,0,3.94,7.1c.27.32.53.67.78,1,5.24,6.73,12.09,10.41,19.86,10.74l2.86,0a40.23,40.23,0,0,0,15.59-4.63,2.71,2.71,0,0,0-1.19-5.13,41.3,41.3,0,0,1-10.81-2l-2.55-.94a30.08,30.08,0,0,1-5.85-3.15,8.56,8.56,0,0,1-2.75-2.74,78.92,78.92,0,0,0,13.22-1.1c13.87-2.11,26.77-19.42,38.37-51.5,2.34-6.48,2.34-11.89,0-16.54-3.65-7.2-12.81-12.5-30.62-17.74A78.49,78.49,0,0,0,217,81.85c-10.44,0-16.66,2.91-19.35,4.58a38.85,38.85,0,0,0-30,0c-2.53-1.64-8.14-4.24-18.18-4.24a84,84,0,0,0-21.42,3.17c-11.32,3-18.73,6-24,9.78C97.06,100,93.68,106.27,93.68,114.18Zm124.06,54.55c-1.71-4.94-4.57-14.63-3.6-21.65,1.05-7.55,2.93-7.23,4.07-12.27a16.23,16.23,0,0,0,2.13,1,19.85,19.85,0,0,0,4.25,1.16,19,19,0,0,1-3.56-2.33,18.14,18.14,0,0,1-2.38-2.39c.13-1.06.25-2.28.33-3.73a20.58,20.58,0,0,1,3.29-9.85c.52-.33,1.07-.67,1.68-1a29.31,29.31,0,0,1,7-2.66,27.94,27.94,0,0,1,8.63-.68,32.55,32.55,0,0,1,4.4.72,33.31,33.31,0,0,1,4.13,1.37,31,31,0,0,1,6.73,3.9,28.36,28.36,0,0,1,4.06,3.82c.46.49.77.93,1,1.21l.35.43-.3-.46c-.21-.3-.48-.76-.9-1.3a28.8,28.8,0,0,0-3.75-4.24,31.72,31.72,0,0,0-6.58-4.65,31.05,31.05,0,0,0-4.22-1.84,32.08,32.08,0,0,0-4.63-1.2,32.43,32.43,0,0,0-4.8-.43,33.25,33.25,0,0,0-4.5.29l5.33-3-6,1.53a46.14,46.14,0,0,1,9.77-5.84L216.27,111l1.46-2.44-2.91,1.76c.18-.48.38-1,.62-1.46a17.87,17.87,0,0,1,2.05-3.2,16.6,16.6,0,0,1,1.2-1.33,15.92,15.92,0,0,0-1.65.78,19.16,19.16,0,0,0-3.38,2.35l-.75.7.06-.22a10.3,10.3,0,0,1,.93-2.28,9.21,9.21,0,0,1,.62-1,8.87,8.87,0,0,0-.94.71,10.83,10.83,0,0,0-1.83,1.94c-.22.3-.41.61-.6.91-.29-.72-.58-1.5-.85-2.36a56.47,56.47,0,0,0-3.48-8.7c.67-.16,1.47-.35,2.4-.54a60.39,60.39,0,0,1,20.39-.71c1.41.18,2.57.39,3.39.55l1.28.25-1.23-.44c-.78-.28-1.91-.66-3.29-1.05a60.83,60.83,0,0,0-7.91-1.75c.71,0,1.44,0,2.18,0a67.89,67.89,0,0,1,8.05.43c2.19.25,3.64.51,3.64.51s-1.41-.43-3.57-.93c-1.44-.34-3.22-.69-5.12-1,2.79.15,5.66.43,8.51.87a60.61,60.61,0,0,1,6.05,1.25c2,.53,3.88,1.16,5.7,1.85a47.4,47.4,0,0,1,9.43,5,37.43,37.43,0,0,1,5.78,4.91c.65.64,1.1,1.21,1.43,1.58l.5.57-.46-.6c-.31-.39-.71-1-1.33-1.68a37.78,37.78,0,0,0-5.5-5.35,48.44,48.44,0,0,0-9.28-5.7,59.18,59.18,0,0,0-5.74-2.3c-2-.66-4.06-1.25-6.16-1.72a87.33,87.33,0,0,0-23.45-2,49.23,49.23,0,0,0-7.88,1.09c-.86.19-1.53.38-2,.52a34.55,34.55,0,0,0-2.4-2.58c2.79-1.48,8.21-3.53,16.82-3.53A75.28,75.28,0,0,1,238.17,88c25.56,7.52,34.32,15.37,28.9,30.59l-5.38-3.33,4.59,5.52c-2.11,5.68-4.63,11.84-7.52,17.78-.65-.69-1.5-1.54-2.41-2.33a38.3,38.3,0,0,0-4.06-3.12,37.79,37.79,0,0,1,3,4,38.58,38.58,0,0,1,2.22,3.9c-4.8,9.42-10.56,18-17.15,23.08l-7.54-9.63,5.35,11.16a20.94,20.94,0,0,1-5.84,2.54A78.27,78.27,0,0,1,217.74,168.73Zm-9.32,7.35s-.69-.71-1.61-1.85a31,31,0,0,1-3-4.42,31.41,31.41,0,0,1-2.13-4.8c-.19-.57-.35-1.06-.46-1.44a6.6,6.6,0,0,1,5.63-2.8h.07a46.75,46.75,0,0,0,4.34,9.21s-.47-1.53-.9-3.43c7.33,16.95,29.53,17.2,29.53,17.2-.49.25-.95.46-1.42.68l-.73.08c-1.09.17-2.37.29-3.73.37a42.35,42.35,0,0,1-4.26.15c-1.45,0-2.9,0-4.26-.1s-2.64-.16-3.73-.32-2-.22-2.66-.33l-1-.12.93.46c.6.26,1.48.62,2.55,1a37.81,37.81,0,0,0,3.77.89,41.82,41.82,0,0,0,4.44.35c1.16-.05,2.3-.15,3.41-.28a30.59,30.59,0,0,1-9.4,1.59c-12.71,0-19.51-9.68-22.42-15.39.37.55.75,1.12,1.17,1.69a36,36,0,0,0,3.71,4.17,35.28,35.28,0,0,0,4.34,3.47,32.2,32.2,0,0,0,4.19,2.35c.63.31,1.22.56,1.75.76s1,.39,1.38.5l1.22.4-1.18-.51c-.37-.15-.82-.36-1.32-.62s-1.07-.54-1.66-.91a31.2,31.2,0,0,1-3.87-2.67,31.36,31.36,0,0,1-7-8,36.56,36.56,0,0,1-1.79-3.39c.14.19.28.38.43.56a32.53,32.53,0,0,0,3.79,4C207.62,175.51,208.42,176.08,208.42,176.08Zm-50-18c.18-1.05.55-2.91,1.07-4.77a56,56,0,0,1,1.86-5.52,54.1,54.1,0,0,0-3.11,5l-.56,1c.06-.29.11-.57.16-.84.37-.89.8-1.95,1.24-3.14.36-.94.74-2,1.11-3s.79-2.22,1.16-3.41.8-2.4,1.17-3.66.76-2.54,1.1-3.86a36.54,36.54,0,0,0,.77-4,21.09,21.09,0,0,0,.17-4,17.23,17.23,0,0,0-1.78-6.93,13.71,13.71,0,0,0-3-4,12.18,12.18,0,0,0-1.07-.87l-.4-.27.29.38c.2.25.46.63.77,1.11a18,18,0,0,1,1.94,4.24c.11.36.2.74.29,1.13a6.33,6.33,0,0,0-.36-.54,11.53,11.53,0,0,0-1.72-1.43l-1.62-.87c-.5-.21-.9-.4-1.18-.55l-.47-.2s.09.16.23.46.45.65.8,1.09l.54.56a1.87,1.87,0,0,0-1.09.65,1.72,1.72,0,0,0-.31.62,6.53,6.53,0,0,1-.36-1.14,4.87,4.87,0,0,1-.13-.58s-.09.2-.22.57a6.64,6.64,0,0,0-.17,1.63,6.86,6.86,0,0,0,.64,2.29,14,14,0,0,0,1.58,2.11,15.76,15.76,0,0,1,1.63,1.68,5,5,0,0,1,1,1.62,3,3,0,0,1,.34,1.36,2.73,2.73,0,0,1,0,.58,2.3,2.3,0,0,0,.36-.5,3.6,3.6,0,0,0,.31-1.66,6.24,6.24,0,0,0-.74-2.29,17.21,17.21,0,0,0-1.61-2l-.27-.26a2.1,2.1,0,0,0,2.15-.62,1.32,1.32,0,0,0,.12-.2,6,6,0,0,1,.59,1.28,6.36,6.36,0,0,1,.4,1.19l.08.26v.17a29,29,0,0,1-.37,3.62c-.06.38-.14.76-.22,1.13a35,35,0,0,1-3.35,6.17l-.8-3.87-.8,4.28a1.6,1.6,0,0,0,0-.21c-.27-.95-.52-2-.74-3s-.55-2-.76-3-.49-1.85-.65-2.63-.38-1.43-.49-1.89l-.22-.72s-.05.27-.13.75-.12,1.15-.17,2,.05,1.77.12,2.79c.08.63.2,1.29.32,2a42.75,42.75,0,0,1-1.46-13.75c.12-.42.25-.85.4-1.27a19.1,19.1,0,0,1,1.32-2.93,16.43,16.43,0,0,1,1.83-2.75,26.64,26.64,0,0,1,2.26-2.52l2.41-2.41a28.18,28.18,0,0,0,4-4.79,13.25,13.25,0,0,0,1.85-4.08,8.64,8.64,0,0,0,.21-1.22l0-.44a12.54,12.54,0,0,1-.75,1.46,18.4,18.4,0,0,1-2.57,3.32c-.54.56-1.15,1.14-1.8,1.72.14-.27.29-.53.42-.79.29-.74.54-1.42.72-2s.24-1.14.3-1.5,0-.58,0-.58-.14.16-.37.45-.51.71-.89,1.2-.73,1.08-1.18,1.68c-.2.31-.41.63-.63.95.38-1.08.82-2.26,1.33-3.51.5-.89,1-1.77,1.56-2.57.62-1,1.23-2,1.8-2.78s1-1.51,1.3-2,.49-.77.49-.77l-.74.53c-.37.29-.86.7-1.43,1.21a19.42,19.42,0,0,1,5.9-6.84,34.67,34.67,0,0,1,12.36-2.14c8.68,0,14.05,2.8,15.05,3.37A31.52,31.52,0,0,1,205.16,100l-.08-.14c-.85-1.15-1.73-2.27-2.6-3.28s-1.81-1.84-2.61-2.55-1.53-1.22-2-1.58l-.82-.54.58.79c.39.48.93,1.17,1.54,2s1.38,1.78,2.13,2.84,1.57,2.16,2.32,3.31,1.57,2.27,2.25,3.37l.46.71-1-1c-.64-.57-1.24-1.1-1.77-1.54l-1.36-1-.56-.32.3.57.88,1.4c.4.55.85,1.19,1.33,1.88s1,1.26,1.49,1.92a43.68,43.68,0,0,1-3.27-3,18.4,18.4,0,0,1-2.57-3.32,14,14,0,0,1-.76-1.46s0,.16,0,.44a9,9,0,0,0,.22,1.22,13.43,13.43,0,0,0,1.84,4.08,28.74,28.74,0,0,0,4.06,4.79L207.6,112a26.64,26.64,0,0,1,2.26,2.52,17.07,17.07,0,0,1,1.83,2.75,22.86,22.86,0,0,1,1,2.18,32,32,0,0,1,0,9.65,38.32,38.32,0,0,1-1.21,6.14c.1-.57.18-1.13.25-1.68.07-1.12.1-2.17.07-3.07s-.17-1.64-.25-2.16-.18-.8-.18-.8l-.17.8c-.08.51-.21,1.24-.41,2.09s-.35,1.85-.61,2.9-.48,2.16-.81,3.26-.57,2.21-.9,3.23c-.18.6-.35,1.18-.53,1.72l-.29-4.26-1.46,5.38c-.3-1.19-.57-2.42-.92-3.65s-.69-2.53-1-3.8a36.26,36.26,0,0,1-.81-3.74,27.27,27.27,0,0,1-.37-3.62c0-.13,0-.24,0-.37l0-.06a6.36,6.36,0,0,1,.4-1.19,6,6,0,0,1,.59-1.28,1.32,1.32,0,0,0,.12.2,2.1,2.1,0,0,0,2.15.62l-.27.26a17.21,17.21,0,0,0-1.61,2,6.24,6.24,0,0,0-.74,2.29,3.73,3.73,0,0,0,.31,1.66,2.3,2.3,0,0,0,.36.5,2.73,2.73,0,0,1,0-.58,3,3,0,0,1,.34-1.36,5,5,0,0,1,1-1.62,15.76,15.76,0,0,1,1.63-1.68,14,14,0,0,0,1.58-2.11,5.37,5.37,0,0,0,.47-3.92,4.53,4.53,0,0,0-.22-.57,4.87,4.87,0,0,1-.13.58,5.77,5.77,0,0,1-.36,1.14,1.87,1.87,0,0,0-.3-.62,1.92,1.92,0,0,0-1.1-.65l.54-.56c.35-.44.62-.82.8-1.09L209,119l-.47.2c-.28.15-.68.34-1.18.55l-1.61.87a11.1,11.1,0,0,0-1.73,1.43c-.1.13-.18.27-.27.4.08-.34.16-.68.26-1a18,18,0,0,1,1.94-4.24c.31-.48.57-.86.77-1.11l.29-.38-.4.27a10.85,10.85,0,0,0-1.07.87,13.89,13.89,0,0,0-3,4,17.07,17.07,0,0,0-1.77,6.93,21.09,21.09,0,0,0,.17,4,39,39,0,0,0,.76,4c.35,1.32.74,2.61,1.11,3.86s.79,2.47,1.17,3.66.78,2.33,1.16,3.41.75,2.09,1.11,3c.5,1.34,1,2.51,1.37,3.46.27,1.38.51,3,.71,4.86a11.74,11.74,0,0,0-1.46-.09h0a10.12,10.12,0,0,0-5.61,1.69l-.86-3.35-.76,3-1.06-7.25-.41,4.91c-.09-1.3-.21-2.53-.33-3.66-.49-4.72-1.15-7.83-1.15-7.83s-.25,3.17-.4,7.88c0,1.18-.09,2.46-.13,3.8s-.11,2.77-.13,4.24-.08,3-.13,4.52-.08,3.11-.13,4.67-.08,3.08-.12,4.59c-2,12.28-4.21,34.83-.77,53.92l-.08.2.13,0A72.9,72.9,0,0,0,197.65,240l-1.07,0c-.49.09-1.06.22-1.67.39a17.32,17.32,0,0,0-1.8.79c-.55.38-1.1.77-1.58,1.17a17.13,17.13,0,0,0-1.15,1.29c-.28.43-.49.8-.63,1.06s-.18.44-.18.44l.43-.2c.25-.14.61-.34,1.05-.54l.53-.31,4.78,5-3.29-5.83c.31-.18.63-.35,1-.52l.64-.41,1,.47,0-1.08c.44-.29.86-.55,1.23-.76s.63-.45.86-.6a43.36,43.36,0,0,0,5.38,10.69,9,9,0,0,0-1,.26,8.75,8.75,0,0,0-1.44.89,8.49,8.49,0,0,0-1,1.34,7.55,7.55,0,0,0-.5,1.38,6.61,6.61,0,0,0,0,1l.07.4.27-.29a5.1,5.1,0,0,1,.63-.71,4.55,4.55,0,0,1,.37-.44l4,3.48-2.87-4.58.23-.19,2.52,1.37-1.34-2.4a6.67,6.67,0,0,1,.8-.6c2.45,3.72,4.43,5.89,6.21,7a4.63,4.63,0,0,0-.43.24,6,6,0,0,0-1.2,1.42,6.88,6.88,0,0,0-.52,1.72,9.31,9.31,0,0,0,0,1.52c.1.43.21.78.29,1l.17.38.18-.37A9.75,9.75,0,0,1,209,264c.06-.2.13-.42.21-.64l1.84.11-1.27-1.44.2-.37,2,.2-1.23-1.46,0,0a4,4,0,0,1,.64-.75A5.29,5.29,0,0,0,213,260c2.44,0,3.41-.64,4-1.67,0,.55,0,1.1.05,1.61a15.56,15.56,0,0,0,.53,2.14,12.66,12.66,0,0,0,.67,1.4l.34.48v-.58a11.51,11.51,0,0,1,0-1.49v-.24l.17,0A3.64,3.64,0,0,0,220,261a3.25,3.25,0,0,0,.84-.88,2.75,2.75,0,0,0,.24-.46,2.5,2.5,0,0,1-.42.26,2.67,2.67,0,0,1-1,.25,2.17,2.17,0,0,1-.9-.13.37.37,0,0,1-.11-.05,1.21,1.21,0,0,1,0-.19,16.06,16.06,0,0,1,.2-2.26c0-.08,0-.16,0-.24l.63,1.06.23-1.33a6.77,6.77,0,0,0,1.1,1.26,6.88,6.88,0,0,0,2.52,1.27,5.88,5.88,0,0,0,1.94,0,2.58,2.58,0,0,0,.52-.13l.17,0-.18,0a3.39,3.39,0,0,1-.5-.13,4.93,4.93,0,0,1-1.59-.66,5.42,5.42,0,0,1-1.79-1.44,4.69,4.69,0,0,1-1.2-2.15,3.76,3.76,0,0,1-.07-2.34,2.48,2.48,0,0,1,.38-.84,3.22,3.22,0,0,1,1.05-.18c2.44,0,5.09,2.72,5.89,5.78.92,3.49-4.86,10.85-13.72,10.85a17.64,17.64,0,0,1-5.68-1c-7.4-3.58-14.5-12-20.29-20.09-6.79-9.51-13-27.71-16.22-49.9-1.2-8.41-2-16.62-2.49-23.56,0-1-.05-2.05-.08-3.09,0-1.56-.09-3.13-.13-4.67s-.09-3-.13-4.52-.1-2.89-.13-4.24-.09-2.62-.13-3.8c-.15-4.71-.4-7.88-.4-7.88s-.66,3.11-1.15,7.83c-.13,1.18-.25,2.46-.34,3.81,0,.57-.08,1.15-.11,1.74l-.53-1.87-.59,4.39A9.58,9.58,0,0,0,158.42,158.06Zm48.07-33.4c0-.06.06-.18.11-.27s.09-.21.16-.3a2,2,0,0,0,.19-.28l.24-.25c.06-.09.19-.15.25-.22s.18-.12.24-.17l.1-.07.06.12a.92.92,0,0,1,.08.3,1.27,1.27,0,0,1,0,.42,2.92,2.92,0,0,1-.22.43,3.47,3.47,0,0,1-.36.31,1.92,1.92,0,0,1-.4.14.82.82,0,0,1-.32,0l-.13,0Zm-47.37.16a1.8,1.8,0,0,1-.33,0,2.21,2.21,0,0,1-.42-.12,4.78,4.78,0,0,1-.42-.26c-.11-.12-.21-.25-.31-.37a2.17,2.17,0,0,1-.17-.4,1.53,1.53,0,0,1,0-.33v-.14l.13,0c.07,0,.2,0,.3.11a3.79,3.79,0,0,1,.34.18,1.89,1.89,0,0,1,.62.55c.09.09.15.23.22.31s.11.22.15.28l.05.13ZM156.6,161a7.59,7.59,0,0,1,1.8-.2,6.68,6.68,0,0,1,5.23,2.27,34.1,34.1,0,0,1-1.85,5.79,35.93,35.93,0,0,1-2.92,5.49,36.31,36.31,0,0,0,4.11-4.83c.39-.54.75-1.09,1.09-1.63-.17.52-.38,1.09-.62,1.71a30.53,30.53,0,0,1-5.49,8.89,31.05,31.05,0,0,1-8.33,6.57,30.11,30.11,0,0,1-3.22,1.5c-.8.32-1.26.48-1.26.48s.48-.12,1.3-.37a28.67,28.67,0,0,0,3.36-1.23A31.39,31.39,0,0,0,162.06,176c-3.57,5.53-10,12.18-20.58,12.18a26.45,26.45,0,0,1-3.59-.25,29.85,29.85,0,0,0,3.83-.74,27.6,27.6,0,0,0,3.16-1.27,21.45,21.45,0,0,0,2-1.26l.72-.55-.87.24a20.56,20.56,0,0,1-2.25.62,24.65,24.65,0,0,1-3.16.69,28.19,28.19,0,0,1-3.65.47,28.71,28.71,0,0,1-3.67.18,26.69,26.69,0,0,1-3.07-.12,46.32,46.32,0,0,1-5.6-2.41S152.23,183.45,156.6,161ZM96.39,114.18c0-14.94,13.77-21.25,32.37-26.23a80.61,80.61,0,0,1,20.72-3.07c8.21,0,13.16,1.85,15.72,3.23a29.74,29.74,0,0,0-2.52,2.73l-.36-.1c-.51-.16-1.25-.37-2.2-.58a49.23,49.23,0,0,0-7.88-1.09,87.3,87.3,0,0,0-23.45,2c-2.1.47-4.16,1.06-6.17,1.72a60,60,0,0,0-5.73,2.3,48.23,48.23,0,0,0-9.29,5.7,37.62,37.62,0,0,0-5.49,5.35c-.62.69-1,1.29-1.34,1.68l-.45.6.49-.57c.34-.37.78-.94,1.44-1.58a37,37,0,0,1,5.78-4.91,47.58,47.58,0,0,1,9.42-5c1.82-.69,3.74-1.32,5.71-1.85a60.42,60.42,0,0,1,6-1.25,89.9,89.9,0,0,1,10.17-1,82.76,82.76,0,0,0-10,2.35c-2.68.82-4.43,1.48-4.43,1.48s1.8-.5,4.54-1.07a82,82,0,0,1,10.1-1.43c.81-.06,1.62-.11,2.42-.14a60.13,60.13,0,0,0-7.36,1.66c-1.38.39-2.51.77-3.29,1.05l-1.23.44,1.28-.25c.81-.16,2-.37,3.38-.55a60.6,60.6,0,0,1,20.13.65,8.37,8.37,0,0,0-1.43,2.66c-1,2.81-1.93,5.62-2.69,8.28l-.06-.06a18.45,18.45,0,0,0-3.38-2.35,16.49,16.49,0,0,0-1.64-.78,15.58,15.58,0,0,1,1.19,1.33,16.83,16.83,0,0,1,2.05,3.2c.19.39.36.77.51,1.15l-3.27-1.08,1.86,1.83-22.5-6a41.4,41.4,0,0,1,7.81,4.82,44.2,44.2,0,0,0-4.54-1,44.42,44.42,0,0,1,5.63,2.69c.7.39,1.37.81,2,1.21q-1.17-.27-2.4-.45a32.8,32.8,0,0,0-4.69-.31A29.39,29.39,0,0,0,120,113.3a31.2,31.2,0,0,0-10.79,6.49,28.8,28.8,0,0,0-3.75,4.24c-.42.54-.69,1-.9,1.3l-.3.46.34-.43c.24-.28.55-.72,1-1.21a28.75,28.75,0,0,1,4.05-3.82,31.29,31.29,0,0,1,6.74-3.9,33.31,33.31,0,0,1,4.13-1.37,32.55,32.55,0,0,1,4.4-.72,27.94,27.94,0,0,1,8.63.68,29.31,29.31,0,0,1,7,2.66l1,.56a21.79,21.79,0,0,1,3.28,10.2c0,.48.06.93.09,1.36l-.38.2a10.76,10.76,0,0,0-2.53,1.95,10.08,10.08,0,0,0-1.75,2.51,8.06,8.06,0,0,0-.5,1.25,8.64,8.64,0,0,1,.85-1,9.42,9.42,0,0,1,2.23-1.68,9.23,9.23,0,0,1,2.3-.83c.94,8.27,2.94,8.07,4.14,16.74.94,6.75-.76,15.1-1.91,19.64a85.31,85.31,0,0,1-13.92-.69A32.59,32.59,0,0,1,128.7,166l.7-3.92-2.67,2.52,4.86-10.14-7.1,9.06c-7.19-4.8-13.79-12.19-18.77-20.42a33,33,0,0,1,2-3.55,37.79,37.79,0,0,1,3-4,38.3,38.3,0,0,0-4.06,3.12c-.25.21-.49.43-.73.65l.51-1.63-2.69,2.11a64.52,64.52,0,0,1-6.51-17.22l2.58-4.61-3.07,1.89-.06-.44,5.14-6.18-5.43,3.36C96.43,115.75,96.39,115,96.39,114.18Z"/><path class="cls-2" d="M114.27,141.51c.3-.55.65-1.16,1.08-1.81a39.31,39.31,0,0,1,3.31-4.13,42.8,42.8,0,0,1,4.59-4,44.34,44.34,0,0,1,5.27-3,39,39,0,0,1,5-1.77c.75-.2,1.44-.33,2.06-.44s1.15-.21,1.6-.26l1.4-.12-1.32.46c-.43.13-.94.31-1.51.54s-1.22.46-1.91.78a38.53,38.53,0,0,0-4.6,2.21,41.69,41.69,0,0,0-4.93,3.11,40.69,40.69,0,0,0-4.54,3.65,37,37,0,0,0-3.6,3.63c-.53.54-1,1.07-1.36,1.54s-.74.89-1,1.25l-.87,1.1.57-1.28C113.69,142.53,114,142.05,114.27,141.51Z"/><path class="cls-2" d="M137.73,156.13c.38-.73.8-1.61,1.23-2.54s1-1.89,1.44-2.88,1-1.92,1.52-2.84,1-1.74,1.37-2.47.79-1.32,1-1.74l.43-.65-.1.77c-.09.48-.23,1.18-.42,2s-.55,1.74-.89,2.74-.86,2-1.33,3-1.13,1.94-1.69,2.83-1.21,1.65-1.73,2.31-1.05,1.15-1.39,1.5l-.57.54.28-.73C137.12,157.54,137.41,156.9,137.73,156.13Z"/><path class="cls-2" d="M228.71,127c-.58-.23-1.08-.41-1.51-.54l-1.32-.46,1.4.12c.45.05,1,.14,1.6.26s1.31.24,2.06.44a38.39,38.39,0,0,1,5,1.77,44.45,44.45,0,0,1,5.28,3,42.8,42.8,0,0,1,4.59,4,39.12,39.12,0,0,1,3.3,4.13c.43.65.79,1.26,1.09,1.81a16.16,16.16,0,0,1,.76,1.43l.58,1.28-.87-1.1c-.26-.36-.6-.78-1-1.25s-.84-1-1.36-1.54a38.18,38.18,0,0,0-3.6-3.63,40.69,40.69,0,0,0-4.54-3.65,41.69,41.69,0,0,0-4.93-3.11,37.9,37.9,0,0,0-4.61-2.21C229.93,127.41,229.29,127.16,228.71,127Z"/><path class="cls-2" d="M221.16,145.4c.38.73.86,1.58,1.37,2.47s1,1.89,1.52,2.84,1,2,1.44,2.88.85,1.81,1.23,2.54.61,1.41.82,1.86l.28.72-.58-.53c-.34-.35-.82-.87-1.38-1.5s-1.11-1.45-1.73-2.31-1.13-1.85-1.69-2.83-.93-2-1.33-3-.65-1.93-.89-2.74-.33-1.52-.42-2l-.1-.77.42.65C220.37,144.08,220.72,144.69,221.16,145.4Z"/><path class="cls-2" d="M189.71,89.23l-1.24-.1-1.13,4L186,89.05c-1,0-2,0-3,0a23.48,23.48,0,0,0-.66,2.82A24.56,24.56,0,0,0,182,95a25.9,25.9,0,0,1-1-3.09,26.87,26.87,0,0,1-.57-2.82c-.71,0-1.42.08-2.09.15l-.5,0-1.5,2.93-.93-2.68-.52.08c-1,.1-1.87.23-2.46.34l-.94.13.85-.42c.56-.24,1.37-.57,2.36-.9s2.18-.59,3.47-.85,2.68-.33,4.08-.41,2.79.08,4.09.2,2.49.41,3.51.66,1.83.57,2.4.77l.88.37-.95-.08C191.58,89.36,190.73,89.27,189.71,89.23Z"/><path class="cls-2" d="M193.42,99.29c-.51-.12-1.08-.24-1.71-.34s-1.4-.28-2.17-.39a14.71,14.71,0,0,0-.66,1.79,18.33,18.33,0,0,0-.58,2.44,19.29,19.29,0,0,1-.78-2.47,19,19,0,0,1-.38-2,35.49,35.49,0,0,0-4.41-.18l-1.38,4.21-1-4.14c-.92,0-1.83.13-2.7.24l-1.41.19-1.11,6.74-1.5-6.25-.22,0c-.63.11-1.19.25-1.69.38s-1,.24-1.3.36l-1.15.3,1-.63c.33-.19.73-.4,1.21-.63a15.62,15.62,0,0,1,1.62-.75,34,34,0,0,1,4.29-1.31,39.49,39.49,0,0,1,5.12-.57,38.51,38.51,0,0,1,5.14.46A33.58,33.58,0,0,1,192,98c.61.24,1.16.48,1.64.71s.89.42,1.23.61l1,.61-1.15-.28C194.37,99.51,193.93,99.4,193.42,99.29Z"/><path class="cls-2" d="M170.57,113.64c.56-.23,1.19-.47,1.89-.71a43.36,43.36,0,0,1,4.92-1.2,50.64,50.64,0,0,1,5.79-.52,53.39,53.39,0,0,1,5.79.43,50.57,50.57,0,0,1,4.94,1.12c.7.22,1.34.45,1.9.66s1,.39,1.45.56l1.22.56-1.33-.23c-.41-.09-.92-.18-1.5-.27l-.32-.06-1.42,4.12-.22-4.35h0c-.88-.16-1.87-.28-2.91-.38l-1.89,8.73-.72-8.94c-1.2-.09-2.45-.13-3.71-.13l-.93,8.17L182,113c-1,0-2,.06-3,.14L177.93,116l-1.26-2.63c-1.28.12-2.48.28-3.55.48l-.44,4.57-1.17-4.31-.76.14c-.58.11-1.09.21-1.5.32l-1.32.27,1.21-.6C169.53,114.05,170,113.86,170.57,113.64Z"/><path class="cls-2" d="M173.73,129.68c1.26-.3,2.75-.57,4.36-.83s3.36-.31,5.09-.37,3.48.14,5.1.3,3.11.49,4.38.77,2.3.63,3,.86l1.12.41-1.19-.07c-.75-.07-1.82-.15-3.1-.2-.67-.06-1.4-.11-2.17-.14l-1.05,4-1.28-4.1c-1.36-.07-2.81-.08-4.26-.05l-1.13,9-1.27-9-1.38,0-.71,2.93-.83-2.87h-.2l-1.79.08-1.37,4.41-1.1-4.22h-.08c-1.28.06-2.35.17-3.1.25l-1.18.08,1.11-.43C171.44,130.35,172.47,130,173.73,129.68Z"/><path class="cls-2" d="M190.19,146.49c-.61-.06-1.29-.09-2-.12l-1.53,7.42-1-7.49c-.93,0-1.88,0-2.83,0-1.24,0-2.48,0-3.65.08l-1.52,4.47-.85-4.37-1.3.11c-1,0-1.85.12-2.45.18l-.94.06.86-.4c.56-.22,1.36-.52,2.35-.84s2.17-.53,3.45-.77,2.65-.27,4-.33,2.76.14,4,.28,2.46.46,3.46.72,1.79.59,2.36.81l.86.38-.94,0C192.05,146.58,191.2,146.52,190.19,146.49Z"/><path class="cls-2" d="M175.13,163.36c1-.27,2.18-.53,3.45-.77s2.66-.27,4-.33,2.76.14,4,.28,2.46.46,3.46.72,1.8.59,2.36.81l.87.38-.95,0c-.53,0-1.26-.11-2.14-.14l-1.44,7.3-1.11-7.44-1.18,0c-1.06,0-2.19-.06-3.32,0l-1.73,4.11-.75-4.1c-.68,0-1.35,0-2,.09-1.25,0-2.42.09-3.42.2s-1.86.12-2.45.18l-1,.06.87-.4C173.34,164,174.15,163.68,175.13,163.36Z"/><path class="cls-2" d="M175.45,181.43c.89-.25,2-.49,3.1-.71s2.4-.26,3.65-.32,2.49.13,3.65.27,2.21.43,3.11.67,1.61.56,2.12.76l.77.36-.85,0c-.53,0-1.3-.08-2.21-.09s-1.74-.11-2.74-.12l-1.19,2.56-1.22-2.6c-.47,0-.95,0-1.43,0-1.05,0-2.09,0-3.09,0l-1.49,7.63-1-7.53c-.35,0-.68,0-1,.08-.91,0-1.67.08-2.21.12l-.85,0,.77-.38C173.84,182,174.56,181.73,175.45,181.43Z"/><path class="cls-2" d="M176.83,199.54c.76-.23,1.67-.45,2.66-.66s2.06-.23,3.13-.29,2.14.13,3.14.25,1.9.4,2.67.62,1.38.51,1.81.7l.66.33h-.74c-.46,0-1.11-.05-1.9,0-.42,0-.88-.05-1.37-.05l-1.47,8.49-1.08-8.52c-.57,0-1.13,0-1.71,0s-1.23,0-1.83,0L179.7,204l-1.07-3.57c-.58,0-1.13,0-1.62.08-.79,0-1.44,0-1.9.06h-.74l.65-.34C175.45,200.07,176.07,199.81,176.83,199.54Z"/><path class="cls-2" d="M199.8,137a26.23,26.23,0,0,1-.71-4.65,17.16,17.16,0,0,1,.12-3.32c.12-.79.22-1.24.22-1.24s0,.46,0,1.25a21.1,21.1,0,0,0,.2,3.26,33.16,33.16,0,0,0,1,4.5c.44,1.63,1,3.34,1.64,5s1.22,3.42,1.8,5,1.05,3.12,1.49,4.41.75,2.39,1,3.15l.36,1.2-.52-1.14c-.31-.73-.79-1.77-1.31-3s-1.14-2.73-1.75-4.32-1.26-3.29-1.92-5S200.21,138.65,199.8,137Z"/><path class="cls-2" d="M163.6,142c.28-.85.5-1.87.78-2.94s.5-2.24.67-3.41.36-2.34.45-3.44.19-2.15.2-3,.06-1.64.05-2.16,0-.83,0-.83l.16.81a19.64,19.64,0,0,1,.29,2.17,30.12,30.12,0,0,1,.08,3.1c-.06,1.13-.18,2.34-.34,3.54s-.5,2.37-.81,3.46a27.22,27.22,0,0,1-1.06,2.91,20.18,20.18,0,0,1-1,2l-.41.72.25-.79C163.13,143.57,163.34,142.85,163.6,142Z"/><path class="cls-2" d="M241.61,137.79c.59.43,1.29.93,2,1.54s1.39,1.28,2.08,2,1.28,1.47,1.85,2.18,1,1.44,1.43,2.05a16.83,16.83,0,0,1,.87,1.54l.3.6-.44-.51c-.27-.33-.68-.77-1.14-1.33s-1-1.17-1.62-1.85-1.24-1.38-1.91-2.06-1.31-1.39-2-2-1.22-1.23-1.76-1.71-.95-.93-1.27-1.21l-.48-.47.59.33A17.53,17.53,0,0,1,241.61,137.79Z"/><path class="cls-2" d="M239.5,117c-.91-.09-2,0-3.12-.06a31.3,31.3,0,0,0-3.56.27,34,34,0,0,0-3.52.59c-1.11.28-2.16.51-3,.8s-1.61.51-2.11.71l-.8.28.73-.44a15.2,15.2,0,0,1,2-1,22,22,0,0,1,3-1.09,32.27,32.27,0,0,1,3.6-.73,32.84,32.84,0,0,1,3.67-.15,23.43,23.43,0,0,1,3.18.33,19,19,0,0,1,2.2.51l.81.26-.85-.09C241.19,117.08,240.42,117,239.5,117Z"/><path class="cls-2" d="M257.69,106.11c-.88-.69-1.85-1.4-2.85-2.07s-2-1.35-3-1.93-1.86-1.13-2.66-1.55-1.46-.81-1.93-1l-.74-.4.81.24a21.45,21.45,0,0,1,2.08.74c.84.36,1.83.78,2.83,1.33s2.05,1.19,3.08,1.87,2,1.47,2.83,2.21a29.8,29.8,0,0,1,2.25,2.18c.64.65,1.1,1.26,1.44,1.67l.51.67-.64-.54c-.39-.37-1-.85-1.66-1.44S258.57,106.82,257.69,106.11Z"/><path class="cls-2" d="M219,98.69c-.56,0-1.2.08-1.89.09s-1.43.09-2.15.17-1.47.11-2.15.2-1.33.13-1.88.22l-1.34.17-.52,0,.47-.22a12.38,12.38,0,0,1,1.27-.49,16,16,0,0,1,1.87-.51c.7-.13,1.45-.24,2.2-.33s1.51-.05,2.22,0a16.81,16.81,0,0,1,1.93.19,12.93,12.93,0,0,1,1.34.27l.5.14-.52,0Z"/><path class="cls-2" d="M229,151.7c.26.6.63,1.28,1,2s.72,1.53,1.12,2.31.76,1.57,1.13,2.3.7,1.42,1,2,.54,1.09.71,1.43l.26.55-.4-.45c-.25-.3-.62-.72-1-1.26s-.84-1.18-1.26-1.89-.85-1.5-1.26-2.28-.72-1.62-1-2.4-.52-1.52-.72-2.15-.29-1.19-.38-1.56l-.11-.6.28.54C228.48,150.61,228.72,151.11,229,151.7Z"/><path class="cls-2" d="M215.84,158.53a30.23,30.23,0,0,1-.69-3.83,29.58,29.58,0,0,1,0-3.88,20.9,20.9,0,0,1,.53-3.34,16.39,16.39,0,0,1,.68-2.28l.33-.84s-.05.32-.16.89-.23,1.36-.35,2.32-.18,2.09-.25,3.29a30,30,0,0,0,.13,3.76,31,31,0,0,0,.55,3.73,32.46,32.46,0,0,0,.83,3.19c.29.92.55,1.69.77,2.22s.32.84.32.84l-.48-.76a18.92,18.92,0,0,1-1.09-2.12A22.22,22.22,0,0,1,215.84,158.53Z"/><path class="cls-2" d="M146.55,161.8c.12-1,.17-2.07.27-3.26s.15-2.46.17-3.73.06-2.54,0-3.74,0-2.31-.09-3.26-.07-1.76-.11-2.32l0-.88s.08.31.21.86.31,1.33.44,2.29.3,2.07.37,3.28.1,2.5.09,3.79-.17,2.58-.3,3.78-.35,2.32-.55,3.26-.42,1.73-.56,2.27-.26.85-.26.85,0-.33.09-.89S146.45,162.75,146.55,161.8Z"/><path class="cls-2" d="M138.6,118.57c-.4-.37-.73-.7-1-.9l-.4-.34.49.19a7.15,7.15,0,0,1,1.22.65,9.06,9.06,0,0,1,1.53,1.24,13.47,13.47,0,0,1,1.42,1.79,14.13,14.13,0,0,1,1,2.06,9.69,9.69,0,0,1,.42,1.92,6.7,6.7,0,0,1,0,1.39l-.05.52-.12-.51c-.06-.32-.2-.77-.36-1.29a16.16,16.16,0,0,0-.65-1.75,13.58,13.58,0,0,0-1-1.87,13.08,13.08,0,0,0-1.23-1.73A15.87,15.87,0,0,0,138.6,118.57Z"/><path class="cls-2" d="M105.59,127.07a11.68,11.68,0,0,1,.86-1.38,21.1,21.1,0,0,1,2.65-3.15,26.76,26.76,0,0,1,3.71-2.93,27.61,27.61,0,0,1,4.25-2.06,21.42,21.42,0,0,1,4-1,13.12,13.12,0,0,1,1.62-.18c.49,0,.91,0,1.26,0l1.09,0-1.08.15a8.74,8.74,0,0,0-1.22.2c-.48.08-1,.19-1.57.34a26.2,26.2,0,0,0-7.86,3.34,27,27,0,0,0-3.66,2.73,29.13,29.13,0,0,0-2.77,2.88c-.38.45-.71.88-1,1.27a11.82,11.82,0,0,0-.72,1l-.6.9.45-1A11.52,11.52,0,0,1,105.59,127.07Z"/><path class="cls-2" d="M116,144.06a22.51,22.51,0,0,1,1.43-2.09c.57-.72,1.22-1.47,1.89-2.2s1.43-1.37,2.14-2a24.57,24.57,0,0,1,2-1.49c.61-.42,1.16-.7,1.54-.92l.6-.3-.5.45c-.33.27-.78.69-1.33,1.17s-1.16,1.08-1.83,1.68-1.35,1.3-2,2-1.35,1.39-1.94,2.07-1.17,1.31-1.62,1.89-.87,1-1.13,1.36l-.43.52.28-.61C115.37,145.25,115.64,144.68,116,144.06Z"/><path class="cls-2" d="M128.52,155.32c.27-.51.55-1.14.92-1.77l1.13-2,1.23-1.92c.4-.61.82-1.15,1.15-1.63s.67-.85.88-1.12l.35-.41-.2.5c-.15.31-.32.77-.59,1.29s-.55,1.14-.92,1.78-.74,1.31-1.13,2L130.11,154c-.39.62-.82,1.16-1.15,1.64s-.67.84-.87,1.12l-.36.41.2-.51C128.08,156.31,128.25,155.84,128.52,155.32Z"/><path class="cls-2" d="M124.25,102.18c1.09.13,2.36.28,3.71.54s2.78.59,4.2.94,2.8.84,4.1,1.28,2.48,1,3.49,1.38,1.82.86,2.4,1.14l.89.47-1-.31c-.6-.21-1.48-.48-2.51-.82s-2.26-.7-3.55-1.11-2.69-.79-4.1-1.15-2.8-.75-4.12-1.05-2.56-.6-3.63-.81-2-.42-2.58-.54l-1-.21,1,0C122.24,102,123.16,102,124.25,102.18Z"/><path class="cls-2" d="M103.92,108.14a18.47,18.47,0,0,1,1.33-1.63c.54-.56,1.13-1.13,1.74-1.68s1.31-1,2-1.43a18,18,0,0,1,1.84-1,13.86,13.86,0,0,1,1.37-.58l.53-.18-.45.33c-.3.2-.7.52-1.19.86s-1,.8-1.65,1.24-1.22.95-1.82,1.48-1.22,1-1.76,1.54-1.08,1-1.5,1.41-.81.77-1,1l-.41.39.27-.5A14.68,14.68,0,0,1,103.92,108.14Z"/><path class="cls-2" d="M131.72,87.93c1.55-.34,3.37-.7,5.34-1s4.08-.47,6.19-.61,4.24-.1,6.22,0,3.84.22,5.42.4,2.88.39,3.79.54l1.43.27-1.45-.1c-.92-.07-2.24-.13-3.81-.21s-3.42-.09-5.39-.12-4.07,0-6.16.17-4.19.27-6.15.49-3.78.43-5.34.69-2.86.44-3.77.62l-1.43.24,1.39-.42C128.89,88.63,130.17,88.25,131.72,87.93Z"/><path class="cls-2" d="M235.08,88.94c-.62-.14-1.32-.29-2.09-.43-1.53-.33-3.34-.57-5.27-.85s-4-.44-6.08-.53-4.16-.14-6.11-.08-3.77.15-5.33.33c-.78.07-1.49.15-2.12.23s-1.19.12-1.64.2L205,88l1.4-.36c.44-.12,1-.24,1.61-.37s1.34-.28,2.12-.39a51.65,51.65,0,0,1,5.35-.61c2-.1,4.08-.12,6.19,0s4.2.36,6.15.66,3.75.73,5.27,1.13c.77.19,1.46.4,2.07.6s1.14.37,1.57.53l1.35.49-1.4-.33C236.25,89.18,235.7,89.07,235.08,88.94Z"/><path class="cls-2" d="M151.49,173.76c.44-.45.88-1,1.39-1.64a21.71,21.71,0,0,0,1.41-2,20.12,20.12,0,0,0,1.24-2.12c.34-.7.7-1.35.92-1.94s.46-1.08.58-1.43l.22-.55s0,.21,0,.59a13.11,13.11,0,0,1-.28,1.55,14.78,14.78,0,0,1-.69,2.12,21.56,21.56,0,0,1-1.19,2.27,21.81,21.81,0,0,1-1.57,2,15.61,15.61,0,0,1-1.64,1.51,12.34,12.34,0,0,1-1.3.89l-.52.28.41-.42C150.7,174.63,151.06,174.23,151.49,173.76Z"/><path class="cls-2" d="M205.55,169.69c-.33-.36-.68-.76-1-1.16s-.58-.88-.84-1.3a11.24,11.24,0,0,1-.6-1.21,5.92,5.92,0,0,1-.32-.9l-.1-.35.25.27c.14.18.38.41.61.72s.54.65.81,1,.59.79.91,1.18.6.83.89,1.21.53.76.77,1.07.39.6.52.78l.19.31-.31-.18a9.58,9.58,0,0,1-.78-.57A9.81,9.81,0,0,1,205.55,169.69Z"/><path class="cls-2" d="M199,139.54c.22.51.52,1.11.77,1.76l.8,2.06c.23.72.47,1.43.69,2.1s.36,1.32.51,1.87.23,1,.3,1.34.1.51.1.51-.1-.16-.26-.46-.39-.71-.61-1.22-.53-1.11-.78-1.77l-.8-2.06c-.23-.72-.47-1.43-.69-2.1s-.36-1.32-.51-1.86-.23-1-.31-1.34l-.09-.52.26.46C198.51,138.61,198.75,139,199,139.54Z"/><path class="cls-2" d="M200.22,123.9l-.17.47s0-.19,0-.5a10,10,0,0,1,.13-1.32,11.86,11.86,0,0,1,.43-1.83,21.36,21.36,0,0,1,.81-2c.36-.64.75-1.26,1.15-1.83a11.94,11.94,0,0,1,1.23-1.41,8.85,8.85,0,0,1,1-.87l.41-.29-.28.41c-.19.25-.43.64-.73,1.07s-.62,1-1,1.53a18.15,18.15,0,0,0-1,1.8,18.45,18.45,0,0,0-.89,1.86c-.23.61-.51,1.17-.67,1.68S200.31,123.6,200.22,123.9Z"/><path class="cls-2" d="M164.25,120.6c-.23-.39-.56-.8-.86-1.27s-.66-1-1-1.41-.71-1-1.07-1.38-.68-.85-1-1.18-.53-.64-.72-.84l-.27-.33.38.2a7.22,7.22,0,0,1,1,.6,10.29,10.29,0,0,1,1.22,1c.4.42.82.88,1.21,1.37s.69,1,1,1.54a12.32,12.32,0,0,1,.64,1.46,8.75,8.75,0,0,1,.32,1.08l.07.42s-.08-.13-.24-.35S164.49,121,164.25,120.6Z"/><path class="cls-2" d="M139.64,100.42c-.54-.16-1-.33-1.32-.41l-.51-.16.54,0c.33,0,.83,0,1.4.09a16.06,16.06,0,0,1,2,.38c.7.21,1.44.46,2.17.75s1.4.7,2,1.08a14.89,14.89,0,0,1,1.62,1.17,11.68,11.68,0,0,1,1,1l.35.4-.46-.26c-.29-.18-.72-.4-1.21-.69s-1.09-.57-1.71-.91-1.31-.64-2-.93-1.38-.6-2.05-.83S140.19,100.57,139.64,100.42Z"/><path class="cls-2" d="M241.25,103.3c-.85,0-1.83.11-2.88.2a39.7,39.7,0,0,0-6.47,1.29c-1,.33-2,.6-2.73.93s-1.46.55-1.91.76l-.73.31.64-.46a17.21,17.21,0,0,1,1.79-1.08,21.78,21.78,0,0,1,2.7-1.21,30.53,30.53,0,0,1,3.27-.92,29,29,0,0,1,3.38-.4,21.62,21.62,0,0,1,3,.07,16.8,16.8,0,0,1,2.06.31l.77.18h-.79C242.81,103.26,242.1,103.28,241.25,103.3Z"/><path class="cls-2" d="M251.51,114.16a27.33,27.33,0,0,1,2.38,1.71,20,20,0,0,1,1.85,1.75,16.39,16.39,0,0,1,1.15,1.39l.39.56-.52-.44c-.32-.29-.8-.67-1.37-1.14s-1.26-1-2-1.5a27.75,27.75,0,0,0-2.37-1.56c-.82-.51-1.67-1-2.48-1.39s-1.57-.79-2.25-1.06-1.23-.54-1.63-.69l-.63-.26.67.09a15.66,15.66,0,0,1,1.76.38,18.26,18.26,0,0,1,2.41.83A28.09,28.09,0,0,1,251.51,114.16Z"/><path class="cls-15" d="M127.78,42h-22.4a.88.88,0,0,1-.87-.56,1.08,1.08,0,0,1,.19-1.06l20.84-20.79H105.38a.93.93,0,0,1,0-1.86h22.4a.86.86,0,0,1,.87.56,1.11,1.11,0,0,1-.18,1.06L107.62,40.16h20.16a.86.86,0,0,1,.65.28.88.88,0,0,1,.28.65,1,1,0,0,1-.93.94Zm-14-28a1,1,0,0,1-.93-.93V7.49a1,1,0,0,1,.93-.93h5.6a1,1,0,0,1,.93.93v5.6a1,1,0,0,1-.93.93Zm.93-1.86h3.74V8.42h-3.74Z"/><path class="cls-15" d="M155.84,42h-22.4a.92.92,0,0,1-.65-.28.9.9,0,0,1-.28-.66V18.69a.86.86,0,0,1,.28-.65.88.88,0,0,1,.65-.28h22.4a1,1,0,0,1,.94.93v22.4a1,1,0,0,1-.94.94Zm-21.46-1.87h20.53V19.62H134.38ZM144.64,14a.92.92,0,0,1-.68-.24,1,1,0,0,1,0-1.37l5.6-5.6a1,1,0,0,1,1.37,0,1,1,0,0,1,0,1.37l-5.6,5.6A1,1,0,0,1,144.64,14Z"/><path class="cls-15" d="M161.44,36.43a1.33,1.33,0,0,1-.68-.25,1,1,0,0,1,0-1.37L172,23.61a.85.85,0,0,1,1.37,0,1,1,0,0,1,0,1.37l-11.2,11.2A1.33,1.33,0,0,1,161.44,36.43Zm11.2,11.2H167a.94.94,0,0,1-.65-.28.9.9,0,0,1-.28-.66V14h-4.67a.9.9,0,0,1-.65-.28.89.89,0,0,1,0-1.3.9.9,0,0,1,.65-.28H167a1,1,0,0,1,.94.93V45.76h4.66a.9.9,0,0,1,.66.28.92.92,0,0,1,.28.65,1,1,0,0,1-.94.94Z"/><path class="cls-15" d="M201.3,18a.92.92,0,0,1,.28.7.87.87,0,0,1-.28.65,1,1,0,0,1-.66.25H190.38V41.1a.93.93,0,0,1-1.59.65.9.9,0,0,1-.28-.65V19.62H178.24a1,1,0,0,1-.65-.25.83.83,0,0,1-.28-.65.88.88,0,0,1,.28-.7.91.91,0,0,1,.65-.26h22.4A.92.92,0,0,1,201.3,18Z"/><path class="cls-15" d="M229.33,18a.9.9,0,0,1,0,1.3l-22.4,22.4a.89.89,0,0,1-1.37,0,.9.9,0,0,1,0-1.3l10.58-10.52L205.56,19.31a.9.9,0,0,1,0-1.3.85.85,0,0,1,1.37,0l10.52,10.51L228,18a.91.91,0,0,1,1.37,0Z"/><path class="cls-15" d="M172.85,75.76h-22.4a.94.94,0,0,1-.66-.28,1,1,0,0,1-.28-.72.8.8,0,0,1,.28-.62,1,1,0,0,1,.66-.25h21.46v-9.4H150.45a1,1,0,0,1-.66-.25.8.8,0,0,1-.28-.62V52.36a1,1,0,0,1,.94-.93h22.4a.91.91,0,0,1,.65.27.84.84,0,0,1,.28.63.94.94,0,0,1-.93,1H151.38v9.34h21.47a.93.93,0,0,1,.65.25.84.84,0,0,1,.28.68v11.2a.93.93,0,0,1-.28.71A.89.89,0,0,1,172.85,75.76Z"/><path class="cls-15" d="M178.45,70.16a1.33,1.33,0,0,1-.69-.25,1,1,0,0,1,0-1.37L189,57.34a.85.85,0,0,1,1.37,0,1,1,0,0,1,0,1.37l-11.2,11.2A1.33,1.33,0,0,1,178.45,70.16Zm11.2,11.2h-5.6a1,1,0,0,1-.94-.94V47.75h-4.66a.93.93,0,0,1,0-1.86h5.6a.88.88,0,0,1,.65.28.86.86,0,0,1,.28.65V79.49h4.67a1,1,0,0,1,.93.93.9.9,0,0,1-.28.66A.92.92,0,0,1,189.65,81.36Z"/><path class="cls-15" d="M217.65,75.76h-22.4a1,1,0,0,1-.94-.94V52.42a1,1,0,0,1,.94-.93h22.4a.88.88,0,0,1,.65.28.86.86,0,0,1,.28.65v22.4a.9.9,0,0,1-.28.66A.92.92,0,0,1,217.65,75.76Zm-21.47-1.87h20.53V53.35H196.18Z"/><path class="cls-15" d="M245.65,75.76a1.33,1.33,0,0,1-.69-.25L224.18,54.66V74.82a.9.9,0,0,1-.28.66.92.92,0,0,1-.65.28,1,1,0,0,1-.94-.94V52.42a.89.89,0,0,1,.56-.87,1.11,1.11,0,0,1,1.06.19l20.79,20.84V52.42a.93.93,0,0,1,1.86,0v22.4a.93.93,0,0,1-.56.87A.74.74,0,0,1,245.65,75.76Zm-11.2-28a1,1,0,0,1-.69-.24,1,1,0,0,1,0-1.37l5.6-5.6a1,1,0,1,1,1.37,1.37l-5.6,5.6A.92.92,0,0,1,234.45,47.75Z"/></svg>