<svg xmlns="http://www.w3.org/2000/svg" xmlns:xlink="http://www.w3.org/1999/xlink" viewBox="0 0 365 200"><defs><style>.cls-1,.cls-13,.cls-15,.cls-18,.cls-19,.cls-20,.cls-21,.cls-24{fill:none;}.cls-2{isolation:isolate;}.cls-3{clip-path:url(#clip-path);}.cls-4{clip-path:url(#clip-path-2);}.cls-5{clip-path:url(#clip-path-3);}.cls-6{fill:#343434;}.cls-7{fill:#f3e600;}.cls-12,.cls-22,.cls-27,.cls-8{fill:#fff;}.cls-9{clip-path:url(#clip-path-4);}.cls-10{fill:#163354;}.cls-11{clip-path:url(#clip-path-5);}.cls-12{mix-blend-mode:multiply;opacity:0.4;}.cls-13,.cls-16,.cls-21,.cls-22,.cls-24{stroke:#fff;}.cls-13,.cls-15,.cls-16,.cls-17,.cls-18,.cls-19,.cls-20,.cls-21,.cls-22,.cls-24{stroke-miterlimit:10;}.cls-13,.cls-15,.cls-21{stroke-width:0.37px;}.cls-14{clip-path:url(#clip-path-6);}.cls-15,.cls-17,.cls-18,.cls-19,.cls-20{stroke:#f1e511;}.cls-16,.cls-17{fill:#9a9999;}.cls-16,.cls-17,.cls-22{stroke-width:0.56px;}.cls-18{stroke-width:0.36px;}.cls-19{stroke-width:0.34px;}.cls-20{stroke-width:0.36px;}.cls-21,.cls-23{opacity:0.5;}.cls-23{mix-blend-mode:soft-light;}.cls-24{stroke-width:9.5px;stroke-dasharray:0.15 2.92;}.cls-25{opacity:0.13;}.cls-26{fill:#313132;}.cls-27{font-size:42.23px;font-family:AmazObitaemOstrovItalic;}</style><clipPath id="clip-path"><rect class="cls-1" x="-9.48" y="-5.9" width="382.53" height="220.95"/></clipPath><clipPath id="clip-path-2"><rect class="cls-1" x="-66.17" y="-37.89" width="519.33" height="275.78"/></clipPath><clipPath id="clip-path-3"><rect id="SVGID" class="cls-1" x="191.93" y="-43.98" width="281.42" height="283.26" transform="translate(665.27 195.3) rotate(-180)"/></clipPath><clipPath id="clip-path-4"><rect id="SVGID-2" data-name="SVGID" class="cls-1" x="192.07" y="-46.76" width="426.98" height="284.65" transform="translate(811.13 191.13) rotate(-180)"/></clipPath><clipPath id="clip-path-5"><rect id="SVGID-3" data-name="SVGID" class="cls-1" x="-233.44" y="-42.59" width="426.98" height="284.65"/></clipPath><clipPath id="clip-path-6"><rect id="SVGID-4" data-name="SVGID" class="cls-1" x="-118.86" y="-109.81" width="622.39" height="414.93"/></clipPath></defs><g class="cls-2"><g id="Слой_1" data-name="Слой 1"><g class="cls-3"><g class="cls-4"><g class="cls-5"><rect class="cls-6" x="187.14" y="177.25" width="309.58" height="72.28" transform="translate(683.85 426.78) rotate(-180)"/><rect class="cls-6" x="187.14" y="-49.17" width="309.58" height="72.28" transform="translate(683.85 -26.06) rotate(-180)"/><polygon class="cls-7" points="453.5 19.36 226.68 19.36 206.99 5.75 176.36 5.75 176.36 112.68 476.36 112.68 476.36 27.12 464.73 27.12 453.5 19.36"/><polygon class="cls-7" points="453.5 197.77 226.68 197.77 206.99 211.38 176.36 211.38 176.36 104.45 476.36 104.45 476.36 190.01 464.73 190.01 453.5 197.77"/><polygon class="cls-8" points="202.56 33.97 429.77 33.97 449.49 19.79 480.17 19.79 480.17 131.19 179.66 131.19 179.66 42.05 191.32 42.05 202.56 33.97"/><polygon class="cls-8" points="197.51 149.66 428.85 149.66 448.93 163.84 480.17 163.84 480.17 52.44 174.2 52.44 174.2 141.58 186.06 141.58 197.51 149.66"/><rect class="cls-7" x="169.99" y="72.63" width="311.98" height="35.51" transform="translate(651.96 180.77) rotate(-180)"/><rect class="cls-7" x="187" y="39.62" width="9.85" height="108.38"/><rect class="cls-7" x="224.85" y="81.49" width="31.29" height="106.55" transform="translate(-24.85 209.53) rotate(-45)"/><rect class="cls-7" x="192.03" y="19.36" width="304.64" height="170.61" transform="translate(688.69 209.33) rotate(-180)"/><g class="cls-9"><path class="cls-7" d="M381.86,5.75h0v-48.3l-31.69,1.08-4.1,1.64c-.48,1-7.63,16.88,1.64,31.43C354.76,2.67,368.35,8.35,381.86,5.75Z"/><rect class="cls-8" x="334.38" y="-46.76" width="47.44" height="47.44" rx="20.9" transform="translate(716.19 -46.09) rotate(-180)"/><rect class="cls-8" x="334.38" y="0.67" width="47.44" height="47.44" transform="translate(716.19 48.78) rotate(-180)"/><rect class="cls-6" x="347.95" y="14.24" width="20.3" height="20.3" transform="translate(716.19 48.78) rotate(-180)"/><rect class="cls-7" x="286.94" y="0.67" width="47.44" height="47.44" transform="translate(621.32 48.78) rotate(-180)"/><path class="cls-7" d="M286.94.67h47.44a0,0,0,0,1,0,0V48.11a0,0,0,0,1,0,0h-5.64A41.79,41.79,0,0,1,286.94,6.32V.67A0,0,0,0,1,286.94.67Z" transform="translate(621.32 48.78) rotate(-180)"/><path class="cls-6" d="M192.07.67h47.44a0,0,0,0,1,0,0V48.11a0,0,0,0,1,0,0h-5.64A41.79,41.79,0,0,1,192.07,6.32V.67A0,0,0,0,1,192.07.67Z" transform="translate(431.58 48.78) rotate(-180)"/><path class="cls-6" d="M239.51.67h47.44a0,0,0,0,1,0,0V6.32a41.79,41.79,0,0,1-41.79,41.79h-5.64a0,0,0,0,1,0,0V.67a0,0,0,0,1,0,0Z" transform="translate(526.45 48.78) rotate(-180)"/><path class="cls-6" d="M328.73,48.11h5.64a0,0,0,0,1,0,0V95.54a0,0,0,0,1,0,0H286.94a0,0,0,0,1,0,0V89.9a41.79,41.79,0,0,1,41.79-41.79Z" transform="translate(621.32 143.65) rotate(-180)"/><path class="cls-6" d="M239.51,48.11h5.64A41.79,41.79,0,0,1,286.94,89.9v5.64a0,0,0,0,1,0,0H239.51a0,0,0,0,1,0,0V48.11A0,0,0,0,1,239.51,48.11Z" transform="translate(526.45 143.65) rotate(180)"/><path class="cls-6" d="M286.94,48.11h23.49a23.49,23.49,0,0,0-23.49-23.49h0Z"/><path class="cls-6" d="M263.46,24.62h23.49a0,0,0,0,1,0,0v2.79a20.69,20.69,0,0,1-20.69,20.69h-2.79a0,0,0,0,1,0,0V24.62A0,0,0,0,1,263.46,24.62Z" transform="translate(550.4 72.73) rotate(-180)"/><path class="cls-6" d="M286.94,71.6h0V48.11H263.46A23.49,23.49,0,0,0,286.94,71.6Z"/><path class="cls-6" d="M239.51,95.54V48.11H192.07a47.43,47.43,0,0,0,47.44,47.43Z"/><path class="cls-6" d="M192.07,143h47.44V95.54h0A47.44,47.44,0,0,0,192.07,143Z"/><path class="cls-10" d="M239.51,95.54h47.44a0,0,0,0,1,0,0V143a0,0,0,0,1,0,0H281.3a41.79,41.79,0,0,1-41.79-41.79V95.54A0,0,0,0,1,239.51,95.54Z" transform="translate(526.45 238.52) rotate(-180)"/><path class="cls-6" d="M239.51,95.54h47.44a0,0,0,0,1,0,0V143a0,0,0,0,1,0,0H281.3a41.79,41.79,0,0,1-41.79-41.79V95.54A0,0,0,0,1,239.51,95.54Z" transform="translate(526.45 238.52) rotate(-180)"/><path class="cls-7" d="M381.82,190.42h0v47.43H334.38A47.43,47.43,0,0,1,381.82,190.42Z"/><path class="cls-7" d="M334.38,190.42h0a47.44,47.44,0,0,1-47.44,47.43h0A47.43,47.43,0,0,1,334.38,190.42Z"/><path class="cls-8" d="M384.59,130.24h0A55.64,55.64,0,0,1,334,190.53h0A55.65,55.65,0,0,1,384.59,130.24Z"/><path class="cls-6" d="M286.94,143h0a47.44,47.44,0,0,1,47.44,47.44h0A47.44,47.44,0,0,1,286.94,143Z"/><path class="cls-6" d="M279.5,137.16h0A11.86,11.86,0,0,1,291.36,149h0a11.86,11.86,0,0,1-11.86,11.86h0A11.86,11.86,0,0,1,267.64,149h0A11.86,11.86,0,0,1,279.5,137.16Z"/><rect class="cls-7" x="205.69" y="156.59" width="20.21" height="20.21" transform="translate(431.58 333.4) rotate(-180)"/></g><path class="cls-6" d="M347.43,66.71H502.3a77.44,77.44,0,0,1-77.43,77.44H270A77.44,77.44,0,0,1,347.43,66.71Z"/></g><rect class="cls-6" x="-111.1" y="-54.23" width="309.58" height="72.28"/><rect class="cls-6" x="-111.1" y="172.19" width="309.58" height="72.28"/><rect class="cls-7" x="129.47" y="7.27" width="31.29" height="106.55" transform="translate(290.54 0.73) rotate(135)"/><rect class="cls-7" x="-111.05" y="5.33" width="303.23" height="170.61"/><g class="cls-11"><path class="cls-7" d="M3.8,194.63H-43.63A47.43,47.43,0,0,0,3.8,242.07h0Z"/><path class="cls-7" d="M3.76,189.56h0v48.29l40-2.78A27,27,0,0,0,45.5,229c2.11-12.87-6.08-23.37-7.59-25.31C26.19,188.68,5.89,189.44,3.76,189.56Z"/><rect class="cls-8" x="3.8" y="194.63" width="47.44" height="47.44" rx="20.9"/><path class="cls-8" d="M3.8,147.19h0a47.43,47.43,0,0,0-47.43,47.44H3.8Z"/><path class="cls-7" d="M3.8,167.66h0a27,27,0,0,0-27,27h27Z"/><rect class="cls-8" x="3.8" y="147.19" width="47.44" height="47.44"/><rect class="cls-6" x="17.37" y="160.76" width="20.3" height="20.3"/><rect class="cls-7" x="51.24" y="147.19" width="47.44" height="47.44"/><path class="cls-8" d="M51.24,147.19H98.67a0,0,0,0,1,0,0v47.44a0,0,0,0,1,0,0H93a41.79,41.79,0,0,1-41.79-41.79v-5.64A0,0,0,0,1,51.24,147.19Z"/><path class="cls-6" d="M98.67,147.19h47.44a0,0,0,0,1,0,0v5.64a41.79,41.79,0,0,1-41.79,41.79H98.67a0,0,0,0,1,0,0V147.19A0,0,0,0,1,98.67,147.19Z"/><path class="cls-6" d="M93,99.76h5.64a0,0,0,0,1,0,0v47.44a0,0,0,0,1,0,0H51.24a0,0,0,0,1,0,0v-5.64A41.79,41.79,0,0,1,93,99.76Z"/><path class="cls-6" d="M98.67,99.76h5.64a41.79,41.79,0,0,1,41.79,41.79v5.64a0,0,0,0,1,0,0H98.67a0,0,0,0,1,0,0V99.76A0,0,0,0,1,98.67,99.76Z"/><path class="cls-6" d="M98.67,147.19H75.19a23.48,23.48,0,0,0,23.48,23.49h0Z"/><path class="cls-6" d="M98.67,147.19h23.49a0,0,0,0,1,0,0V150a20.69,20.69,0,0,1-20.69,20.69H98.67a0,0,0,0,1,0,0V147.19A0,0,0,0,1,98.67,147.19Z"/><path class="cls-7" d="M98.67,123.71h0v23.48h23.49A23.49,23.49,0,0,0,98.67,123.71Z"/><path class="cls-6" d="M193.54,52.32H146.11V99.76h0a47.43,47.43,0,0,0,47.43-47.44Z"/><path class="cls-10" d="M98.67,52.32h47.44a0,0,0,0,1,0,0V99.76a0,0,0,0,1,0,0h-5.64A41.79,41.79,0,0,1,98.67,58V52.32a0,0,0,0,1,0,0Z"/><path class="cls-6" d="M98.67,52.32h47.44a0,0,0,0,1,0,0V99.76a0,0,0,0,1,0,0h-5.64A41.79,41.79,0,0,1,98.67,58V52.32a0,0,0,0,1,0,0Z"/><path class="cls-6" d="M175.9,52.32H146.11v29.8h0a29.8,29.8,0,0,0,29.79-29.8Z"/><path class="cls-7" d="M115.78,52h30.1a0,0,0,0,1,0,0v30.1a0,0,0,0,1,0,0h-3.58a26.51,26.51,0,0,1-26.51-26.51V52A0,0,0,0,1,115.78,52Z"/><path class="cls-8" d="M3.8,4.89h0A47.43,47.43,0,0,1-43.63-42.55H3.8Z"/><path class="cls-7" d="M3.8,4.89h0V-42.55H51.24A47.44,47.44,0,0,1,3.8,4.89Z"/><path class="cls-7" d="M51.24,4.89h0A47.43,47.43,0,0,1,98.67-42.55h0A47.43,47.43,0,0,1,51.24,4.89Z"/><path class="cls-8" d="M1,65.07H1A55.66,55.66,0,0,1,51.61,4.77h0A55.66,55.66,0,0,1,1,65.07Z"/><path class="cls-6" d="M98.67,52.32h0A47.42,47.42,0,0,1,51.24,4.89h0A47.42,47.42,0,0,1,98.67,52.32Z"/><path class="cls-6" d="M106.12,58.15h0A11.86,11.86,0,0,1,94.26,46.29h0a11.86,11.86,0,0,1,11.86-11.86h0A11.86,11.86,0,0,1,118,46.29h0A11.86,11.86,0,0,1,106.12,58.15Z"/><rect class="cls-6" x="146.11" y="4.89" width="47.44" height="47.44"/><rect class="cls-6" x="159.72" y="18.5" width="20.21" height="20.21"/></g><path class="cls-6" d="M38.18,128.59H-116.68A77.43,77.43,0,0,1-39.25,51.16H115.62A77.44,77.44,0,0,1,38.18,128.59Z"/><path class="cls-6" d="M146.11,147.19h52.27a0,0,0,0,1,0,0v52.27a0,0,0,0,1,0,0h-6.22a46,46,0,0,1-46-46v-6.22A0,0,0,0,1,146.11,147.19Z"/><path class="cls-6" d="M146.11,94.93v52.26h52.27a52.27,52.27,0,0,0-52.27-52.26Z"/><ellipse class="cls-6" cx="147.02" cy="166.58" rx="16.57" ry="19.38"/><rect class="cls-6" x="184.09" y="139.02" width="78.71" height="86.21"/><path class="cls-12" d="M263.56,142.71H239.31A24.25,24.25,0,0,0,263.56,167h0Z"/><path class="cls-6" d="M292.55,125,98.47,156.36,96.94,71.09C109,80.56,126,90.48,142.62,86.32c13.47-3.38,15.16-13.11,31.39-23.66,30-19.48,64.67-12.58,66.53-12.18,29.46,6.31,46.63,26.91,52,34Z"/><rect class="cls-6" x="224.96" y="9.48" width="31.98" height="44.27"/><polygon class="cls-13" points="171.76 6.05 166.2 6.05 163.42 10.86 166.2 15.68 171.76 15.68 174.54 10.86 171.76 6.05"/><polygon class="cls-13" points="78.69 25.68 73.54 25.68 70.97 30.13 73.54 34.58 78.69 34.58 81.26 30.13 78.69 25.68"/><polygon class="cls-13" points="27.85 95.64 23.77 95.64 21.73 99.17 23.77 102.71 27.85 102.71 29.89 99.17 27.85 95.64"/><polygon class="cls-13" points="32.6 189.23 28.47 189.23 26.4 192.81 28.47 196.39 32.6 196.39 34.67 192.81 32.6 189.23"/><polygon class="cls-13" points="253.67 20.14 230.92 20.14 219.54 39.84 230.92 59.55 253.67 59.55 265.05 39.84 253.67 20.14"/><polygon class="cls-13" points="356.14 184.58 349.87 184.58 346.74 190.01 349.87 195.44 356.14 195.44 359.27 190.01 356.14 184.58"/><g class="cls-14"><polygon class="cls-7" points="68.27 67.83 -47.37 67.83 -64.12 51.08 -188.03 51.08 -188.03 53.01 -81.81 53.01 -64.23 70.58 69.1 70.58 68.27 67.83"/><polygon class="cls-7" points="-67.74 77.3 10.85 77.3 12.38 78.83 -72.83 78.83 -87.51 64.15 -142.68 64.15 -144.48 62.34 -81.96 62.34 -67.74 77.3"/><polygon class="cls-7" points="51.92 138.19 -48.52 138.19 -52.06 141.73 48.47 141.73 51.92 138.19"/><path class="cls-7" d="M343.88,164.16l-17.57-17.57H291.62c.85.91,1.69,1.84,2.54,2.75h15.28l16.75,16.75H450.1v-1.93Z"/><polygon class="cls-7" points="547.77 69.95 457.95 69.95 451.03 63.04 317.7 63.04 302.77 48.1 291.98 48.1 289.9 46.02 314.66 46.02 328.7 60.06 490.46 60.06 498.47 68.06 551.33 68.06 547.77 69.95"/><polygon class="cls-7" points="352.56 56.9 453.01 56.9 456.55 53.36 356.02 53.36 352.56 56.9"/><polygon class="cls-7" points="361.63 144.31 347.92 144.31 344.39 140.78 358.17 140.78 361.63 144.31"/></g><polygon class="cls-7" points="14.61 87.14 6.86 94.89 -61.88 94.89 -55.7 88.7 -55.7 93.23 6.32 93.23 12.4 87.14 14.61 87.14"/><path class="cls-7" d="M314.24,125.89l7.7-14,125,.19-11.16,11.16v-8.17H323.9l-6.17,10.57Z"/><polygon class="cls-7" points="454.4 171.79 371 171.79 349.4 150.19 349.4 157.84 351.88 155.36 369.87 173.35 454.4 173.35 454.4 171.79"/><polyline class="cls-15" points="117.74 87.69 18.48 87.69 8.66 97.51 -63.68 97.51 -96.56 64.63 -118.86 64.63"/><polyline class="cls-15" points="121.21 120.85 72 120.85 29.49 163.36 -71.56 163.36 -84.26 176.05 -118.86 176.05"/><line class="cls-15" x1="124.62" y1="131.26" x2="61.59" y2="131.26"/><path class="cls-13" d="M-118.86,39.84H13.08l5.54,5.53"/><polygon class="cls-16" points="20.36 46.98 20.06 43.76 18.6 45.22 17.14 46.68 20.36 46.98"/><polyline class="cls-15" points="116.08 107.61 45.45 107.61 33.16 119.9 11.98 119.9"/><path class="cls-17" d="M12.68,119.87a1.3,1.3,0,1,1-1.29-1.3A1.29,1.29,0,0,1,12.68,119.87Z"/><polyline class="cls-13" points="117.76 73.59 2.7 73.59 -40.76 30.13"/><polyline class="cls-15" points="128.16 54.5 0.14 54.5 -8.12 62.76"/><polyline class="cls-15" points="113.5 102.35 41.85 102.35 33.83 110.38 -61.88 110.38"/><polygon class="cls-17" points="48.08 159.21 44.86 159.51 46.32 160.97 47.78 162.43 48.08 159.21"/><polyline class="cls-15" points="-56.98 172.92 34.33 172.92 46.3 160.95"/><polyline class="cls-15" points="265.8 117.19 365.06 117.19 374.88 107.38 447.22 107.38 480.1 140.26 502.4 140.26"/><polyline class="cls-18" points="269.06 84.04 316.9 84.04 358.23 41.53 456.48 41.53 468.82 28.84 504.48 28.84"/><path class="cls-15" d="M503.53,175.72H344.64l-5.53-5.53"/><polygon class="cls-17" points="337.36 168.57 337.66 171.8 339.12 170.34 340.58 168.88 337.36 168.57"/><polyline class="cls-19" points="280.83 97.28 342.39 97.28 353.1 84.99 371.56 84.99"/><polyline class="cls-15" points="265.78 131.3 380.84 131.3 424.3 174.76"/><polyline class="cls-20" points="279.6 102.53 347.34 102.53 354.93 94.51 445.42 94.51"/><polygon class="cls-17" points="335.46 45.68 338.68 45.38 337.22 43.91 335.76 42.45 335.46 45.68"/><polyline class="cls-15" points="440.52 31.96 349.22 31.96 337.24 43.93"/><circle class="cls-13" cx="192.75" cy="98.07" r="135.96"/><path class="cls-13" d="M315,19.68a145.41,145.41,0,0,1,6.08,146.39"/><path class="cls-21" d="M82.68,192.81A145.25,145.25,0,0,1,111.08-22"/><path class="cls-7" d="M92.46,179.28a.85.85,0,0,1,.12-1.17h0a.83.83,0,0,1,1.17.13h0a.83.83,0,0,1-.12,1.17h0a.84.84,0,0,1-.52.18h0A.83.83,0,0,1,92.46,179.28Zm-5-6.65a.84.84,0,0,1,.2-1.16h0a.83.83,0,0,1,1.16.2h0a.84.84,0,0,1-.2,1.16h0a.83.83,0,0,1-.48.15h0A.84.84,0,0,1,87.41,172.63Zm-4.6-7a.85.85,0,0,1,.26-1.15h0a.84.84,0,0,1,1.15.27h0a.83.83,0,0,1-.28,1.15h0a.82.82,0,0,1-.43.12h0A.82.82,0,0,1,82.81,165.67Zm-4.15-7.25A.82.82,0,0,1,79,157.3h0a.83.83,0,0,1,1.12.34h0a.83.83,0,0,1-.35,1.12h0a.81.81,0,0,1-.39.1h0A.83.83,0,0,1,78.66,158.42ZM75,150.92a.84.84,0,0,1,.41-1.1h0a.85.85,0,0,1,1.11.42h0a.84.84,0,0,1-.42,1.1h0a.83.83,0,0,1-.34.07h0A.83.83,0,0,1,75,150.92ZM299,27.74a.85.85,0,0,1,.23-1.16h0a.83.83,0,0,1,1.15.23h0a.85.85,0,0,1-.23,1.16h0a.88.88,0,0,1-.46.14h0A.81.81,0,0,1,299,27.74ZM294.2,21a.81.81,0,0,1,.15-1.16h0a.84.84,0,0,1,1.16.16h0a.83.83,0,0,1-.15,1.16h0a.81.81,0,0,1-.51.18h0A.79.79,0,0,1,294.2,21ZM289,14.62h0a.82.82,0,0,1,.09-1.17h0a.83.83,0,0,1,1.17.08h0a.84.84,0,0,1-.09,1.17h0a.87.87,0,0,1-.55.2h0A.8.8,0,0,1,289,14.62Zm-5.61-6a.85.85,0,0,1,0-1.18h0a.84.84,0,0,1,1.18,0h0a.83.83,0,0,1,0,1.17h0a.85.85,0,0,1-.58.25h0A.87.87,0,0,1,283.38,8.57Zm-6-5.69a.83.83,0,0,1-.08-1.17h0a.84.84,0,0,1,1.18-.06h0a.83.83,0,0,1,.07,1.17h0a.85.85,0,0,1-.62.28h0A.83.83,0,0,1,277.41,2.88ZM109.75.33a.83.83,0,0,1,.1-1.17h0a.84.84,0,0,1,1.17.1h0a.83.83,0,0,1-.1,1.17h0a.77.77,0,0,1-.53.19h0A.82.82,0,0,1,109.75.33ZM271.07-2.4h0a.82.82,0,0,1-.14-1.17h0a.84.84,0,0,1,1.16-.14h0a.83.83,0,0,1,.14,1.16h0a.81.81,0,0,1-.66.33h0A.81.81,0,0,1,271.07-2.4ZM116.24-4.84A.84.84,0,0,1,116.42-6h0a.84.84,0,0,1,1.17.19h0a.82.82,0,0,1-.19,1.15h0a.8.8,0,0,1-.49.16h0A.82.82,0,0,1,116.24-4.84ZM264.4-7.27h0a.81.81,0,0,1-.21-1.15h0a.83.83,0,0,1,1.14-.22h0a.85.85,0,0,1,.22,1.16h0a.85.85,0,0,1-.69.36h0A.82.82,0,0,1,264.4-7.27ZM123.06-9.57a.83.83,0,0,1,.25-1.15h0a.84.84,0,0,1,1.15.25h0a.84.84,0,0,1-.26,1.15h0a.78.78,0,0,1-.44.13h0A.82.82,0,0,1,123.06-9.57Zm134.37-2.12h0a.84.84,0,0,1-.29-1.14h0a.83.83,0,0,1,1.14-.29h0a.83.83,0,0,1,.29,1.14h0a.83.83,0,0,1-.71.41h0A1,1,0,0,1,257.43-11.69ZM130.16-13.86a.82.82,0,0,1,.32-1.13h0a.83.83,0,0,1,1.13.33h0a.84.84,0,0,1-.32,1.13h0a1,1,0,0,1-.4.1h0A.83.83,0,0,1,130.16-13.86Zm120-1.8h0a.82.82,0,0,1-.37-1.11h0a.83.83,0,0,1,1.11-.37h0a.82.82,0,0,1,.37,1.11h0a.82.82,0,0,1-.74.45h0A.81.81,0,0,1,250.2-15.66Zm-112.68-2a.84.84,0,0,1,.4-1.11h0a.83.83,0,0,1,1.1.4h0a.83.83,0,0,1-.4,1.11h0a.85.85,0,0,1-.35.08h0A.82.82,0,0,1,137.52-17.68Zm105.19-1.46a.83.83,0,0,1-.44-1.09h0a.83.83,0,0,1,1.09-.44h0a.83.83,0,0,1,.44,1.09h0a.83.83,0,0,1-.77.5h0A1,1,0,0,1,242.71-19.14ZM145.11-21a.85.85,0,0,1,.47-1.08h0a.85.85,0,0,1,1.08.47h0a.85.85,0,0,1-.47,1.08h0a.89.89,0,0,1-.31.06h0A.84.84,0,0,1,145.11-21ZM235-22.14a.83.83,0,0,1-.51-1.05h0a.84.84,0,0,1,1.07-.52h0a.84.84,0,0,1,.5,1.07h0a.83.83,0,0,1-.79.55h0A.65.65,0,0,1,235-22.14Zm-82.1-1.7a.82.82,0,0,1,.54-1h0a.83.83,0,0,1,1.05.53h0A.84.84,0,0,1,154-23.3h0a.72.72,0,0,1-.25,0h0A.84.84,0,0,1,152.91-23.84Zm74.23-.78a.83.83,0,0,1-.57-1h0a.82.82,0,0,1,1-.57h0a.82.82,0,0,1,.58,1h0a.84.84,0,0,1-.8.6h0A.63.63,0,0,1,227.14-24.62Zm-66.25-1.54a.83.83,0,0,1,.6-1h0a.85.85,0,0,1,1,.61h0a.82.82,0,0,1-.61,1h0a.64.64,0,0,1-.2,0h0A.82.82,0,0,1,160.89-26.16Zm58.25-.42a.84.84,0,0,1-.64-1h0a.82.82,0,0,1,1-.64h0a.83.83,0,0,1,.64,1h0a.83.83,0,0,1-.81.66h0ZM169-28a.82.82,0,0,1,.66-1h0a.83.83,0,0,1,1,.67h0a.83.83,0,0,1-.66,1h-.15A.81.81,0,0,1,169-28ZM211-28h0a.84.84,0,0,1-.71-.94h0a.84.84,0,0,1,.94-.71h0a.84.84,0,0,1,.71.94h0a.83.83,0,0,1-.82.71H211Zm-33.83-1.21a.84.84,0,0,1,.73-.92h0a.85.85,0,0,1,.93.74h0a.83.83,0,0,1-.73.91H178A.83.83,0,0,1,177.19-29.22Zm25.63.29a.81.81,0,0,1-.76-.88h0a.83.83,0,0,1,.89-.77h0a.83.83,0,0,1,.76.89h0a.83.83,0,0,1-.82.77h-.07Zm-17.36-1a.84.84,0,0,1,.79-.87h0a.85.85,0,0,1,.87.79h0a.83.83,0,0,1-.79.87h0A.83.83,0,0,1,185.46-29.95Zm9.12.65h0a.83.83,0,0,1-.81-.85h0a.82.82,0,0,1,.84-.81h0a.82.82,0,0,1,.81.84h0a.82.82,0,0,1-.82.82h0Z"/><path class="cls-13" d="M156.39,35.25,133.89-3.5A117.6,117.6,0,0,1,224.33-15l-12,43.16a72.82,72.82,0,0,0-55.9,7.09Z"/><path class="cls-22" d="M193.31,231l-.06-6.64a126.08,126.08,0,0,0,55.28-13.43l3,5.92A132.82,132.82,0,0,1,193.31,231ZM279.69,9.55A124.09,124.09,0,0,0,231.22-20l2.07-6.31a130.68,130.68,0,0,1,51,31.08l.13.12-4.65,4.74ZM68.58,138a132.79,132.79,0,0,1-4.7-59.72l6.57,1A126,126,0,0,0,74.91,136Z"/><g class="cls-23"><path class="cls-24" d="M304,98.07a111.21,111.21,0,0,1-111.2,111.2c-147.51-5.86-147.47-216.57,0-222.4A111.2,111.2,0,0,1,304,98.07Z"/></g><circle class="cls-22" cx="321.09" cy="166.07" r="1.24"/><circle class="cls-16" cx="315.02" cy="19.68" r="1.24"/><circle class="cls-16" cx="82.79" cy="192.81" r="1.24"/><circle class="cls-12" cx="192.33" cy="97.65" r="81.33"/><g class="cls-25"><path class="cls-26" d="M309.19,106.54a1.14,1.14,0,0,0-2.06-.27c-2,3.57-4.09,7.14-6.24,10.65a29.36,29.36,0,0,0-2.68,4.24,3.29,3.29,0,0,0-.52,1.22,1.67,1.67,0,0,0,2.49,1.67A2.24,2.24,0,0,0,301,123a3.6,3.6,0,0,0,.51-.6c2.09-3,3.12-6.68,4.89-9.9q1.33-2.53,2.65-5.07A1.15,1.15,0,0,0,309.19,106.54Z"/></g><g class="cls-25"><path class="cls-26" d="M275.93,138c-.82-.25-1.59.21-2.38.36-5.26,1.46-8.8,1.53-14.82,1.34a2.07,2.07,0,0,0,0,4.14c4.58.13,9.23.19,13.7-1,1.05-.24,2.11-.48,3.15-.77a2.42,2.42,0,0,0,1.58-1.07A2.09,2.09,0,0,0,275.93,138Z"/></g><g class="cls-25"><path class="cls-26" d="M309.19,106.54a1.14,1.14,0,0,0-2.06-.27c-2,3.57-4.09,7.14-6.24,10.65a29.36,29.36,0,0,0-2.68,4.24,3.29,3.29,0,0,0-.52,1.22,1.67,1.67,0,0,0,2.49,1.67A2.24,2.24,0,0,0,301,123a3.6,3.6,0,0,0,.51-.6c2.09-3,3.12-6.68,4.89-9.9q1.33-2.53,2.65-5.07A1.15,1.15,0,0,0,309.19,106.54Z"/></g><g class="cls-25"><path class="cls-26" d="M275.93,138c-.82-.25-1.59.21-2.38.36-5.26,1.46-8.8,1.53-14.82,1.34a2.07,2.07,0,0,0,0,4.14c4.58.13,9.23.19,13.7-1,1.05-.24,2.11-.48,3.15-.77a2.42,2.42,0,0,0,1.58-1.07A2.09,2.09,0,0,0,275.93,138Z"/></g><path class="cls-8" d="M311.69,143.53h6.6a0,0,0,0,1,0,0V199a0,0,0,0,1,0,0H262.8a0,0,0,0,1,0,0v-6.6A48.89,48.89,0,0,1,311.69,143.53Z" transform="translate(581.09 342.55) rotate(180)"/><path class="cls-6" d="M261.31,142h29a29,29,0,0,1-29,29h0Z"/><text class="cls-27" transform="translate(106.18 179.47)">FabLAB</text><path class="cls-8" d="M309.8,105.84a.88.88,0,0,0-.22-.25.8.8,0,0,0-.29-.15,17.46,17.46,0,0,1-12.66-12.67c-.08-.38-.15-.76-.2-1.14a14.59,14.59,0,0,1-.13-2.29A16,16,0,0,1,297,84.8c.11-.37.24-.73.37-1.09a17.31,17.31,0,0,1,1-2.09,15.46,15.46,0,0,1,4.52-5.16.84.84,0,0,0,.33-.53.87.87,0,0,0-.14-.62c-.54-.76-1.08-1.51-1.64-2.27s-1.12-1.5-1.7-2.25a146.43,146.43,0,0,0-11.63-13.22h0a0,0,0,0,1,0,0,.87.87,0,0,0-.43-.21h-.18a.83.83,0,0,0-.6.3,18.32,18.32,0,0,1-3.45,3.22,16.3,16.3,0,0,1-3.52,1.95l-.68.25a14.84,14.84,0,0,1-3.86.8,18.49,18.49,0,0,1-9.75-2.25,15.26,15.26,0,0,1-2.69-1.81c-3-2.54-5-6-5.35-7.67a1.55,1.55,0,0,1,0-.69.81.81,0,0,0-.22-.81.81.81,0,0,0-.81-.2c-1.9.57-3.8,1.12-5.66,1.66-6,1.76-11.71,3.42-15.12,5.05a.83.83,0,0,0-.46.71.43.43,0,0,1,0,0s0,0,0,.06a.82.82,0,0,0,.06.26,19.92,19.92,0,0,1,1,3.19c.11.48.21,1,.29,1.52.06.36.1.73.14,1.11s.06.78.07,1.18a16,16,0,0,1-.69,5.17c-.07.23-.15.45-.23.68a15.27,15.27,0,0,1-1.75,3.4,15,15,0,0,1-1,1.35,7.37,7.37,0,0,1-.73.75,8.21,8.21,0,0,1-1.4,1,11.87,11.87,0,0,1-2.17,1l-.6.19a21.7,21.7,0,0,1-8.61.57,13.67,13.67,0,0,1-2.48-.57.83.83,0,0,0-1.05.47c-1,2.48-1.86,5-2.64,7.48a99.55,99.55,0,0,0-2.54,10c-.16.84-.31,1.67-.45,2.51a.8.8,0,0,0,.14.62.82.82,0,0,0,.55.33,31.21,31.21,0,0,1,8.8,2.71,13.93,13.93,0,0,1,3.6,2.35c.22.22.43.43.62.65a7.37,7.37,0,0,1,.91,1.39,6.52,6.52,0,0,1,.29.73,6.4,6.4,0,0,1,.26,1.37,10.49,10.49,0,0,1-.19,2.81,19.51,19.51,0,0,1-6.64,11.34.89.89,0,0,0-.3.55.83.83,0,0,0,.17.6q1.29,1.68,2.78,3.33a78.57,78.57,0,0,0,10.77,9.77.79.79,0,0,0,.31.14.86.86,0,0,0,.17,0l.17,0a.81.81,0,0,0,.55-.36,10.62,10.62,0,0,1,.74-1,9.68,9.68,0,0,1,.82-.87l.14-.11a11.78,11.78,0,0,1,1.74-1.33,16.43,16.43,0,0,1,1.54-.86c.53-.26,1.06-.51,1.61-.74l1.08-.43a13.08,13.08,0,0,1,5.78-1.2,7.9,7.9,0,0,1,3.08,1,12.38,12.38,0,0,1,2.28,1.69,15.58,15.58,0,0,1,3.1,4.08c.23.44.44.88.63,1.34s.35.91.49,1.38a15.2,15.2,0,0,1,.65,3.61.82.82,0,0,0,.52.72.78.78,0,0,0,.31.06h0c2.47-.06,4.94-.21,7.44-.45.84-.08,1.67-.17,2.51-.27,3.36-.4,6.77-1,10.29-1.68a1,1,0,0,0,.24-.09,1.56,1.56,0,0,0,.2-.16.88.88,0,0,0,.21-.46c.08-.68.16-1.36.23-2,.13-1.18.26-2.34.43-3.47a25.69,25.69,0,0,1,1.28-5.39,15.7,15.7,0,0,1,.87-1.9,13,13,0,0,1,1.93-2.68,10.63,10.63,0,0,1,.9-.88l.48-.39a10.89,10.89,0,0,1,1-.67,8.33,8.33,0,0,1,1.58-.73,8.89,8.89,0,0,1,2.31-.48,11.08,11.08,0,0,1,2.37,0l.8.11c.54.09,1.08.22,1.62.36l.82.23c1.1.34,2.21.75,3.33,1.21l.84.35.84.36a1.11,1.11,0,0,0,.29.07.85.85,0,0,0,.75-.4c1.28-2.15,2.49-4.42,3.6-6.77s2.13-4.79,3-7.27q.92-2.49,1.66-5a.93.93,0,0,0,0-.33A.87.87,0,0,0,309.8,105.84Zm-60.48-9.7a17.72,17.72,0,0,1,7.08-10.62,12.59,12.59,0,0,1,12.43-1,15.53,15.53,0,0,1,8,13,14.48,14.48,0,0,1-9.58,13.91,14.76,14.76,0,0,1-16.14-5.11,11.6,11.6,0,0,1-2.15-4.85A13.19,13.19,0,0,1,249.32,96.14Z"/><circle class="cls-6" cx="136.67" cy="70.57" r="27.49"/><path class="cls-8" d="M151.45,51.91h20.61l-5.79,27.68,14.25,9.49L174.84,116,142.65,93.48Zm40.65-1.16h20.73l-19.92,93.8L176.12,126Z"/><path class="cls-8" d="M84.51,51.91h20.62L99.34,79.59l14.24,9.49L107.91,116,75.71,93.48Zm40.65-1.16h20.73L126,144.55,109.18,126Z"/></g></g></g></g></svg>