<svg id="Слой_1" data-name="Слой 1" xmlns="http://www.w3.org/2000/svg" viewBox="0 0 365 200"><defs><style>.cls-1{fill:#fec703;}.cls-2{fill:#482682;}</style></defs><rect class="cls-1" x="-8.56" y="-5.9" width="386.96" height="221.31"/><path class="cls-2" d="M100.39,145.88A3.22,3.22,0,0,1,98,145a28.14,28.14,0,0,1-3-2.51,13.58,13.58,0,0,1-2.3-2.82c-.56-.95-.63-1.59-.21-1.94a139.45,139.45,0,0,1,13.5-5.81q7.42-2.76,15.07-4.86c-1.47-1.26-2.1-2.3-1.89-3.14a175.1,175.1,0,0,1,10.62-17.37q5.5-7.85,11.46-15.07T153.8,77q6.54-7.22,13.76-15.69a98.08,98.08,0,0,0-22.39,11.24,224.21,224.21,0,0,0-23.12,18c-.49.28-1.47.16-2.93-.36a29,29,0,0,1-4.5-2.09,27.32,27.32,0,0,1-3.93-2.67c-1.08-.91-1.44-1.57-1.09-2A185.25,185.25,0,0,1,132.46,66a136.5,136.5,0,0,1,23.8-12.24,124,124,0,0,1,25.43-7,135.83,135.83,0,0,1,27.73-1.51c.49.14.9.77,1.25,1.88a16.27,16.27,0,0,1,.68,3.61,12.92,12.92,0,0,1-.15,3.56c-.21,1.08-.6,1.69-1.15,1.83a140.19,140.19,0,0,0-21.77.58,97.5,97.5,0,0,0-18.73,3.92,7.47,7.47,0,0,1,2.1,1.2,15.14,15.14,0,0,1,2.09,2A13.69,13.69,0,0,1,175.25,66a1.7,1.7,0,0,1,.27,1.62q-6.6,7.76-12.3,14.55T152.5,95.66q-5,6.69-9.53,13.65t-8.78,15c1-.14,1.91-.25,2.82-.32l2.72-.21c.63,0,1.22.6,1.78,1.78a20.25,20.25,0,0,1,1.36,4,18.51,18.51,0,0,1,.52,4.19c0,1.29-.31,2-.94,2.14a139.94,139.94,0,0,0-21.34,2.77A84.07,84.07,0,0,0,100.39,145.88Z"/><path class="cls-2" d="M224,53.38c.42-.34,1-.17,1.83.53a16.5,16.5,0,0,1,2.36,2.61q11.5-2.19,24.32-3.55a217.32,217.32,0,0,1,27.58-1c.48.14,1.16.87,2,2.2a39.78,39.78,0,0,1,2.45,4.29,24.84,24.84,0,0,1,1.73,4.29c.38,1.32.33,2-.16,2.09q-10.77-.32-19.46-.16t-16.06.74q-7.38.57-13.81,1.56t-12.51,2.36q-7.85,8.89-15.79,18.36t-15,19.57A203.19,203.19,0,0,0,180.85,128,115.66,115.66,0,0,0,172,149.75c-.28.56-1,.51-2.2-.15a21.49,21.49,0,0,1-3.71-2.72,24.91,24.91,0,0,1-3.35-3.61c-.94-1.26-1.31-2.2-1.1-2.83A113.76,113.76,0,0,1,169.24,123a170.52,170.52,0,0,1,10.3-16.69q5.7-8.16,12.14-16.06t13.13-15.44q-6.9,2.1-14.65,4.77T172.9,85.3a3.47,3.47,0,0,1-2.51-.11,20.73,20.73,0,0,1-3.93-1.67,42.15,42.15,0,0,1-4.34-2.72,31,31,0,0,1-3.82-3.19,10.83,10.83,0,0,1-2.3-3.14,2.21,2.21,0,0,1,.26-2.57,98.82,98.82,0,0,0,14-1.67q7.23-1.37,15-3.35t16.32-4.24q8.53-2.25,17.95-4.34Z"/><path class="cls-2" d="M216.22,94.92c.35-.41.92-.38,1.72.11a10.86,10.86,0,0,1,2.46,2.14,21.52,21.52,0,0,1,2.25,3,5.51,5.51,0,0,1,1,2.77,7.74,7.74,0,0,1-1.21,2.3c-.8,1.26-1.77,2.76-2.93,4.5s-2.39,3.61-3.71,5.6-2.53,3.86-3.61,5.6-1.95,3.24-2.62,4.5-.89,2-.68,2.3.75.07,1.63-.63a33.42,33.42,0,0,0,3.24-3.08c1.29-1.37,2.74-2.95,4.34-4.77s3.23-3.67,4.87-5.59,3.22-3.8,4.76-5.65,2.89-3.47,4.08-4.87c.9-.7,1.69-.78,2.35-.26s.75,1.31.26,2.35q-1.66,2.31-4,5.5c-1.57,2.13-3.27,4.32-5.08,6.59s-3.71,4.52-5.7,6.75-3.91,4.2-5.76,5.91a34.62,34.62,0,0,1-5.23,4.08,6.87,6.87,0,0,1-4.24,1.31,7,7,0,0,1-2.19-.63,10.06,10.06,0,0,1-2.15-1.31,7,7,0,0,1-1.62-1.78,3.31,3.31,0,0,1-.52-2.14,22.69,22.69,0,0,1,1.51-6.07,71.24,71.24,0,0,1,3.2-7.12q1.88-3.66,4.08-7.32t4.13-6.59q1.93-2.92,3.45-5C215.29,96.13,215.94,95.27,216.22,94.92Zm10-17.47a2.2,2.2,0,0,1,2.41-.31,8.81,8.81,0,0,1,2.93,1.67,7.56,7.56,0,0,1,2,2.62,2,2,0,0,1-.26,2.4l-1.94,2.67c-.73,1-1.46,2.08-2.19,3.19s-1.42,2.24-2.05,3.35a27.24,27.24,0,0,0-1.56,3.25c-.15.34-.56.4-1.26.15A5.91,5.91,0,0,1,222.23,95a8.1,8.1,0,0,1-1.77-2.88,7.13,7.13,0,0,1-.27-4c.21-.55.51-1.27.89-2.14s.84-1.8,1.36-2.78,1.1-2,1.73-3A18.78,18.78,0,0,1,226.26,77.45Z"/><path class="cls-2" d="M265.81,101.73a17.35,17.35,0,0,1-1.67,6.43,49.27,49.27,0,0,1-3.45,6.07q-2,3-4.24,5.86t-4.13,5.7a5.08,5.08,0,0,0-.95,2c.21.28.75.07,1.63-.63a33.42,33.42,0,0,0,3.24-3.08c1.29-1.37,2.74-2.95,4.34-4.77s3.23-3.67,4.87-5.59,3.22-3.8,4.76-5.65,2.89-3.47,4.08-4.87a1.85,1.85,0,0,1,2.41-.26c.69.52.8,1.31.31,2.35q-1.68,2.31-4.08,5.5c-1.61,2.13-3.33,4.32-5.18,6.59s-3.75,4.52-5.7,6.75a79.69,79.69,0,0,1-5.71,5.91,34.13,34.13,0,0,1-5.23,4.08,6.86,6.86,0,0,1-4.23,1.31,7,7,0,0,1-2.31-.73,15,15,0,0,1-2.35-1.47,8.34,8.34,0,0,1-1.83-1.88,3.23,3.23,0,0,1-.63-2.2,12.47,12.47,0,0,1,1.1-4.29,44,44,0,0,1,2.46-4.81,63.08,63.08,0,0,1,4.39-6.54,57.48,57.48,0,0,0,4.19-6.23c.69-1.18,1.24-2.18,1.62-3s.5-1.31.37-1.52-.79-.08-1.73.58a33.89,33.89,0,0,0-3.51,3q-2.09,2-4.65,4.66c-1.71,1.77-3.44,3.61-5.18,5.49s-3.44,3.73-5.08,5.55-3.05,3.41-4.23,4.81q-2.1,3.45-3.35,5.91a15.29,15.29,0,0,1-1.78,3c-.35.42-.91.4-1.68,0a9.34,9.34,0,0,1-2.3-2,17.82,17.82,0,0,1-2-3,6.08,6.08,0,0,1-.89-2.78,8,8,0,0,1,1-2.61q1-2,2.51-4.71c1-1.81,2.12-3.77,3.35-5.86s2.4-4.1,3.55-6,2.16-3.62,3-5.12,1.52-2.6,1.93-3.3c.77-1.46,1.35-2.56,1.73-3.3s.75-1.37,1.1-1.93v.1c.35-.48.92-.48,1.73,0a10.74,10.74,0,0,1,2.4,2.1,15.51,15.51,0,0,1,2.09,3,5.24,5.24,0,0,1,.79,2.83,1.52,1.52,0,0,1-.42.83c-.28.35-.57.7-.89,1l-.94,1c-.31.35-.51.56-.58.62-.55.91-1,1.71-1.41,2.41s-.75,1.36-1.1,2c1.75-2.09,3.54-4.15,5.39-6.17a74.58,74.58,0,0,1,5.34-5.34,29.35,29.35,0,0,1,4.81-3.61,6.46,6.46,0,0,1,3.93-1.1,17.63,17.63,0,0,1,5.59,2.41,11.87,11.87,0,0,1,2.46,2.14A3.16,3.16,0,0,1,265.81,101.73Z"/><path class="cls-2" d="M311.64,116.16a123.51,123.51,0,0,1-11.45,11.1q-5.61,4.71-11.46,9-1.78,2.93-3.87,6.43c-1.4,2.34-2.9,4.93-4.5,7.8l-3,5.23c-.81,1.39-1.52,2.56-2.15,3.5a28.13,28.13,0,0,1-1.83,2.46c-.59.7-1.31,1.47-2.15,2.3a14.53,14.53,0,0,1-5.7,2.72,6.66,6.66,0,0,1-4.13-.41,5.87,5.87,0,0,1-2.62-2.72,10.94,10.94,0,0,1-1.1-4.14,14.72,14.72,0,0,1,.47-4.65,12.81,12.81,0,0,1,2-4.29,32.35,32.35,0,0,1,7.54-7.85,107.68,107.68,0,0,1,9.41-6.07c.7-1.19,1.38-2.39,2-3.61s1.31-2.42,1.94-3.61l-2.15,1.94c-.8.73-1.62,1.41-2.45,2A22.24,22.24,0,0,1,274,135a6.25,6.25,0,0,1-2.19.78,5,5,0,0,1-2.36-.15,8.27,8.27,0,0,1-2.14-1,16.13,16.13,0,0,1-4.5-3.61,7.44,7.44,0,0,1-2-5.07,19.43,19.43,0,0,1,1.47-6.39,44,44,0,0,1,3.55-7,50.3,50.3,0,0,1,5.13-6.85,45.9,45.9,0,0,1,6.17-5.81,29.55,29.55,0,0,1,6.75-4,14.89,14.89,0,0,1,6.75-1.26,9.54,9.54,0,0,1,3.93,1,18.17,18.17,0,0,1,3.5,2.4,9.53,9.53,0,0,1,1.67,2.51l2-2.3c.28-.42.84-.38,1.68.11a10.81,10.81,0,0,1,2.51,2.14,17.46,17.46,0,0,1,2.2,3.09,6.19,6.19,0,0,1,.94,2.82,11.61,11.61,0,0,1-1.31,2q-1.1,1.47-2.67,3.51c-1.05,1.36-2.14,2.82-3.29,4.39s-2.22,3.09-3.2,4.55a12.91,12.91,0,0,1-.94,1.42,17.25,17.25,0,0,0-1,1.51l-.32.53a125,125,0,0,0,12.66-11.09q4.5-4.5,9.11-10c.9-.7,1.69-.78,2.35-.26s.75,1.31.26,2.35q-1.47,2.1-3.87,5T311.64,116.16ZM261.1,161.37c.42.28,1-.11,1.89-1.15s2-2.62,3.45-4.71l3.24-5.44-2.51,2.09a30.11,30.11,0,0,0-2.82,2.25,22.84,22.84,0,0,0-2.57,2.67,7.1,7.1,0,0,0-1.41,2.51A1.46,1.46,0,0,0,261.1,161.37Zm11.3-31.71a5.56,5.56,0,0,0,2.31-1.1q1.67-1.09,3.92-2.82t4.76-3.87c1.68-1.43,3.28-2.84,4.82-4.24l3-5.13a5.94,5.94,0,0,1-2.25,0c-.52-.14-.51-.42.05-.83a16.57,16.57,0,0,0,2.25-2.25,36.77,36.77,0,0,0,2.57-3.3,11.37,11.37,0,0,0,1.56-3c.28-.91.07-1.43-.62-1.57q-1.57-.21-4.66,1.93a48.56,48.56,0,0,0-6.33,5.34,81.69,81.69,0,0,0-6.12,6.75,30.33,30.33,0,0,0-4,6.07c-.35.69-.75,1.53-1.2,2.51a18.28,18.28,0,0,0-1,2.72,5.4,5.4,0,0,0-.26,2.09C271.22,129.49,271.64,129.73,272.4,129.66Z"/><path class="cls-2" d="M355.69,108l-2.61,2.93q-2.41,2.73-5,5.34a31.81,31.81,0,0,1-5.86,4.6l-2.41,1.52a5.27,5.27,0,0,1-2.62,1,3.38,3.38,0,0,1-1,.06c-.31,0-.65-.09-1-.16a47.56,47.56,0,0,1-3.35,3.61,29.6,29.6,0,0,1-3.77,3.09c-.63.42-1.4.94-2.3,1.57s-1.9,1.24-3,1.83a34.19,34.19,0,0,1-3.3,1.57,10.42,10.42,0,0,1-3,.78,6.92,6.92,0,0,1-4.61-1.15,16.42,16.42,0,0,1-4.5-3.61,7.06,7.06,0,0,1-1.88-5.07A23.32,23.32,0,0,1,308.4,116a50.52,50.52,0,0,1,7.11-10.36A41.63,41.63,0,0,1,325,97.59a18,18,0,0,1,10.15-3,9.32,9.32,0,0,1,4,1,18.18,18.18,0,0,1,3.45,2.4,8.58,8.58,0,0,1,2.1,3.19,4.7,4.7,0,0,1,0,2.78,4.26,4.26,0,0,1,.57,3.14,9.73,9.73,0,0,1-2,4.39c-1,1.26-1.81,2.32-2.51,3.19s-1.2,1.54-1.52,2-.38.72-.21.79.65-.11,1.42-.53a18.33,18.33,0,0,0,2.82-1.83q1.58-1.2,3.3-2.77t3.4-3.3q1.67-1.72,3.14-3.29l2.3-2.62a1.85,1.85,0,0,1,2.41-.26c.69.52.8,1.31.31,2.35ZM317,129.66a4.61,4.61,0,0,0,2.77,0,15,15,0,0,0,3.72-1.51,35.13,35.13,0,0,0,4.18-2.78,51,51,0,0,0,4.19-3.55,7.32,7.32,0,0,1-2.36-4.71,9.29,9.29,0,0,1,1.21-5.76,9.61,9.61,0,0,1,1.57-2.19,21.91,21.91,0,0,1,2.3-2.2,23.32,23.32,0,0,1,2.61-1.89,13.17,13.17,0,0,1,2.62-1.25c.56-1.33.42-2.09-.42-2.3q-1.58-.21-4.66,1.93a49.92,49.92,0,0,0-6.33,5.34,81.69,81.69,0,0,0-6.12,6.75,30.33,30.33,0,0,0-4,6.07c-.35.69-.73,1.46-1.15,2.3a17.32,17.32,0,0,0-1,2.41,4.44,4.44,0,0,0-.21,2.09A1.49,1.49,0,0,0,317,129.66Z"/><path class="cls-2" d="M75.09,134.71H58.26V109.38c0-2.59-1.08-3.85-3.18-3.85s-3.17,1.26-3.17,3.85v25.33H35.08v-25a20.52,20.52,0,0,1,5.8-14.78,19.07,19.07,0,0,1,14.2-6,19.07,19.07,0,0,1,15.43,7c3,3.61,4.53,8.69,4.53,15.18v23.62Z"/><path class="cls-2" d="M55.82,57.21a22.24,22.24,0,0,1,16.35,6.88A22.61,22.61,0,0,1,79,80.54a22.28,22.28,0,0,1-6.93,16.54,22.88,22.88,0,0,1-16.69,6.84A22.84,22.84,0,0,1,38.74,97a22.2,22.2,0,0,1-6.93-16.49A22.12,22.12,0,0,1,38.74,64,23.54,23.54,0,0,1,55.82,57.21Zm-.44,16.6a6.08,6.08,0,0,0-4.59,2,6.57,6.57,0,0,0-1.9,4.78,6.67,6.67,0,0,0,1.9,4.78,6.26,6.26,0,0,0,9.17,0,6.68,6.68,0,0,0,1.91-4.78A6.58,6.58,0,0,0,60,75.76,6.18,6.18,0,0,0,55.38,73.81Z"/><path class="cls-2" d="M84.22,99.13a8.14,8.14,0,0,1,2.39-5.9,8,8,0,0,1,11.47-.15,9.29,9.29,0,0,1,0,12.1A8,8,0,0,1,86.61,105,8.35,8.35,0,0,1,84.22,99.13Z"/><path class="cls-2" d="M9.46,99.13a8.14,8.14,0,0,1,2.39-5.9,7.69,7.69,0,0,1,5.71-2.49,7.67,7.67,0,0,1,5.76,2.34,9.29,9.29,0,0,1,0,12.1,7.64,7.64,0,0,1-5.76,2.35A7.69,7.69,0,0,1,11.85,105,8.35,8.35,0,0,1,9.46,99.13Z"/><path class="cls-2" d="M82.8,154.82H27.37v-16.5H82.8Z"/></svg>